<?xml version="1.0" standalone="no"?>
<!DOCTYPE svg PUBLIC "-//W3C//DTD SVG 20010904//EN"
 "http://www.w3.org/TR/2001/REC-SVG-20010904/DTD/svg10.dtd">
<svg version="1.0" xmlns="http://www.w3.org/2000/svg"
 width="217.000000pt" height="283.000000pt" viewBox="0 0 217.000000 283.000000"
 preserveAspectRatio="xMidYMid meet">

<g transform="translate(0.000000,283.000000) scale(0.100000,-0.100000)"
fill="#000000" stroke="none">
<path d="M695 2494 c-209 -102 -383 -189 -387 -193 -4 -3 -50 -195 -102 -426
l-94 -420 174 -218 175 -218 27 21 c15 11 43 43 62 69 99 137 103 143 90 151
-9 6 -9 13 -1 28 15 27 14 32 -5 32 -10 0 7 26 46 69 l62 70 -14 43 c-14 41
-16 43 -51 40 -32 -3 -39 1 -57 30 -23 37 -35 76 -27 85 4 3 19 -3 34 -13 49
-32 137 -6 166 49 13 26 37 132 37 169 0 5 -16 26 -36 47 -34 38 -36 39 -53
22 -10 -10 -18 -30 -18 -45 0 -15 -4 -30 -7 -34 -11 -10 -26 20 -26 54 0 16
-7 39 -15 50 -14 19 -15 18 -34 -6 -17 -21 -21 -23 -26 -8 -4 9 -2 26 4 37 7
11 9 32 5 46 -4 15 -1 32 6 40 20 24 33 18 25 -12 l-6 -28 21 23 c11 12 28 23
38 24 33 3 57 5 82 7 22 2 20 4 -13 16 -33 11 -71 44 -62 53 4 4 135 -18 171
-29 42 -12 134 7 152 32 18 26 69 52 77 39 3 -6 16 -10 28 -10 18 0 16 -3 -11
-17 -18 -8 -31 -18 -28 -20 2 -3 13 0 23 5 11 6 38 8 61 5 35 -5 40 -8 30 -20
-10 -12 -6 -14 25 -8 58 11 182 -40 182 -75 0 -5 20 -26 45 -47 44 -37 64 -60
65 -76 0 -4 20 -20 43 -36 28 -18 39 -31 30 -34 -9 -3 6 -24 44 -63 38 -39 60
-72 67 -99 6 -22 25 -59 42 -83 l31 -42 -27 0 c-29 0 -29 -6 1 -79 8 -18 14
-67 14 -107 0 -65 -3 -79 -27 -112 -38 -52 -44 -53 -59 -7 -10 33 -12 35 -13
14 -1 -21 -16 -76 -38 -139 -3 -9 -13 4 -24 35 l-19 50 5 -49 c3 -27 5 -57 5
-66 0 -10 22 -34 49 -53 l48 -35 173 220 174 221 -98 421 c-53 231 -99 422
-100 423 -3 3 -776 373 -779 373 -1 0 -173 -84 -382 -186z m431 47 c-3 -4 1
-57 9 -117 8 -60 15 -112 15 -116 0 -5 -13 -8 -30 -8 -25 0 -30 4 -30 24 0 31
-36 43 -45 15 -4 -10 -3 -23 0 -29 4 -6 -7 -10 -28 -10 l-34 0 8 58 c4 31 9
84 11 117 2 41 8 62 18 67 22 10 112 9 106 -1z m145 -11 c31 -6 65 -20 74 -30
15 -17 16 -25 5 -70 -7 -29 -18 -50 -25 -50 -22 0 -26 -16 -15 -66 6 -26 9
-48 7 -51 -2 -2 -16 1 -30 6 -19 7 -28 20 -33 46 -11 60 -29 52 -27 -12 1 -12
-48 -19 -59 -8 -2 3 -1 31 3 62 5 32 9 88 10 126 2 57 4 67 18 63 9 -3 41 -10
72 -16z m-291 -186 c0 -38 -13 -50 -64 -59 -34 -7 -41 -5 -58 16 -11 13 -18
17 -15 9 7 -25 -11 -49 -53 -69 -68 -33 -74 -27 -178 180 -1 3 12 12 31 21
l33 16 33 -84 c32 -78 51 -99 66 -74 4 6 -7 47 -24 91 -17 44 -31 82 -31 84 0
3 59 25 66 25 2 0 4 -8 4 -17 0 -9 10 -47 21 -83 l22 -67 40 3 c22 2 42 6 45
9 5 5 -18 125 -25 125 -2 0 -13 -5 -24 -10 -17 -10 -19 -7 -19 24 0 33 3 36
38 41 20 4 42 8 47 9 11 3 44 -138 45 -190z m563 97 c4 -4 -6 -54 -22 -112
-37 -133 -37 -133 -28 -137 9 -3 107 133 107 147 0 4 -11 14 -25 21 -30 16
-31 22 -6 44 18 16 22 15 87 -35 91 -67 87 -62 73 -93 l-12 -26 -28 26 -27 26
-58 -79 c-32 -43 -59 -79 -60 -81 -1 -2 -27 13 -58 33 -49 33 -54 40 -50 65 5
20 1 29 -12 34 -17 7 -34 -8 -34 -31 0 -8 -7 -8 -30 0 -17 6 -29 14 -27 17 1
3 27 55 57 116 l55 110 45 -18 c25 -11 48 -23 53 -27z m-947 -70 l24 -19 -45
-26 c-25 -15 -45 -33 -45 -39 0 -16 59 -97 70 -97 15 0 30 28 24 44 -4 10 -18
16 -35 16 -16 0 -29 4 -29 9 0 15 61 49 80 44 24 -6 60 -74 54 -100 -6 -23
-84 -83 -108 -83 -23 0 -132 137 -128 163 3 21 87 107 105 107 5 0 20 -9 33
-19z m152 -532 c-3 -8 -7 -3 -11 10 -4 17 -3 21 5 13 5 -5 8 -16 6 -23z m-7
-52 l-24 -22 19 27 c10 14 21 24 23 22 3 -3 -6 -15 -18 -27z m-99 -73 c-3 -15
-8 -22 -14 -16 -9 9 -1 42 12 42 4 0 5 -12 2 -26z m41 -29 c3 -16 0 -24 -7
-22 -14 4 -21 47 -8 47 5 0 12 -11 15 -25z"/>
<path d="M1060 2442 c0 -18 5 -32 10 -32 6 0 8 11 4 28 -10 39 -14 40 -14 4z"/>
<path d="M1240 2445 c0 -29 12 -32 34 -9 23 22 20 34 -9 34 -20 0 -25 -5 -25
-25z"/>
<path d="M1451 2364 c-7 -17 -8 -31 -2 -37 5 -5 12 3 16 23 9 40 2 48 -14 14z"/>
<path d="M1198 2073 c7 -3 16 -2 19 1 4 3 -2 6 -13 5 -11 0 -14 -3 -6 -6z"/>
<path d="M1248 2063 c6 -2 18 -2 25 0 6 3 1 5 -13 5 -14 0 -19 -2 -12 -5z"/>
<path d="M1300 2050 c0 -5 9 -10 20 -10 11 0 20 5 20 10 0 6 -9 10 -20 10 -11
0 -20 -4 -20 -10z"/>
<path d="M1007 2039 c-10 -6 -25 -8 -34 -5 -14 6 -14 4 -2 -11 7 -10 15 -20
16 -22 2 -2 12 4 23 14 20 18 21 18 27 -3 3 -12 9 -22 14 -22 14 0 11 16 -8
39 -14 16 -22 18 -36 10z"/>
<path d="M1253 2033 c9 -2 23 -2 30 0 6 3 -1 5 -18 5 -16 0 -22 -2 -12 -5z"/>
<path d="M670 1980 c0 -12 26 -31 33 -23 12 11 7 21 -13 26 -11 3 -20 2 -20
-3z"/>
<path d="M1488 1923 c7 -3 16 -2 19 1 4 3 -2 6 -13 5 -11 0 -14 -3 -6 -6z"/>
<path d="M1230 1905 c0 -9 6 -12 15 -9 8 4 15 7 15 9 0 2 -7 5 -15 9 -9 3 -15
0 -15 -9z"/>
<path d="M1310 1891 c0 -5 17 -8 39 -7 46 1 71 -17 71 -53 1 -22 2 -24 11 -9
12 21 -2 53 -31 68 -23 12 -90 13 -90 1z"/>
<path d="M1246 1784 c-11 -8 -16 -14 -10 -14 13 0 39 18 34 24 -3 2 -14 -2
-24 -10z"/>
<path d="M1276 1750 c3 -14 11 -32 16 -40 6 -10 7 -7 2 10 -3 14 -11 32 -16
40 -6 10 -7 7 -2 -10z"/>
<path d="M1430 1725 c19 -19 36 -35 39 -35 3 0 -10 16 -29 35 -19 19 -36 35
-39 35 -3 0 10 -16 29 -35z"/>
<path d="M1565 1710 c10 -11 20 -20 23 -20 3 0 -3 9 -13 20 -10 11 -20 20 -23
20 -3 0 3 -9 13 -20z"/>
<path d="M1200 1700 c8 -5 20 -10 25 -10 6 0 3 5 -5 10 -8 5 -19 10 -25 10 -5
0 -3 -5 5 -10z"/>
<path d="M1076 1681 c-3 -4 7 -19 22 -32 l27 -24 -23 26 c-12 14 -19 29 -15
32 3 4 4 7 0 7 -3 0 -8 -4 -11 -9z"/>
<path d="M1301 1674 c0 -11 3 -14 6 -6 3 7 2 16 -1 19 -3 4 -6 -2 -5 -13z"/>
<path d="M1605 1660 c10 -11 20 -20 23 -20 3 0 -3 9 -13 20 -10 11 -20 20 -23
20 -3 0 3 -9 13 -20z"/>
<path d="M1689 1643 c-13 -17 -13 -17 6 -3 11 8 22 16 24 17 2 2 0 3 -6 3 -6
0 -17 -8 -24 -17z"/>
<path d="M897 1630 l-39 -17 27 -7 c15 -4 30 -5 33 -1 3 3 -3 5 -14 5 -15 1
-14 4 9 16 15 8 27 17 27 19 0 6 3 7 -43 -15z"/>
<path d="M1341 1624 c0 -11 3 -14 6 -6 3 7 2 16 -1 19 -3 4 -6 -2 -5 -13z"/>
<path d="M1640 1616 c7 -7 13 -7 20 0 6 6 3 10 -10 10 -13 0 -16 -4 -10 -10z"/>
<path d="M1120 1617 c0 -2 15 -16 33 -33 l32 -29 -29 33 c-28 30 -36 37 -36
29z"/>
<path d="M1351 1584 c0 -11 3 -14 6 -6 3 7 2 16 -1 19 -3 4 -6 -2 -5 -13z"/>
<path d="M1555 1590 c-13 -5 -14 -9 -5 -9 8 0 24 4 35 9 13 5 14 9 5 9 -8 0
-24 -4 -35 -9z"/>
<path d="M890 1569 c0 -5 5 -7 10 -4 6 3 10 8 10 11 0 2 -4 4 -10 4 -5 0 -10
-5 -10 -11z"/>
<path d="M1508 1573 c7 -3 16 -2 19 1 4 3 -2 6 -13 5 -11 0 -14 -3 -6 -6z"/>
<path d="M1445 1560 c-13 -5 -14 -9 -5 -9 8 0 24 4 35 9 13 5 14 9 5 9 -8 0
-24 -4 -35 -9z"/>
<path d="M1059 1543 c-12 -16 -12 -17 1 -7 8 6 22 14 30 17 13 5 12 6 -1 6 -9
1 -23 -7 -30 -16z"/>
<path d="M1360 1551 c0 -6 4 -13 10 -16 6 -3 7 1 4 9 -7 18 -14 21 -14 7z"/>
<path d="M1398 1543 c7 -3 16 -2 19 1 4 3 -2 6 -13 5 -11 0 -14 -3 -6 -6z"/>
<path d="M1115 1524 l-30 -15 30 6 c17 4 34 11 40 16 13 13 -5 10 -40 -7z"/>
<path d="M1210 1526 c0 -2 8 -10 18 -17 15 -13 16 -12 3 4 -13 16 -21 21 -21
13z"/>
<path d="M1026 1501 c-17 -19 -17 -19 1 -15 11 3 20 12 20 20 0 18 0 18 -21
-5z"/>
<path d="M760 1498 c0 -9 5 -20 10 -23 6 -3 10 -11 10 -17 0 -6 -7 -5 -17 3
-10 7 -7 1 6 -14 30 -33 34 -30 20 14 -14 41 -29 60 -29 37z"/>
<path d="M1265 1480 c10 -11 20 -20 23 -20 3 0 -3 9 -13 20 -10 11 -20 20 -23
20 -3 0 3 -9 13 -20z"/>
<path d="M1325 1470 c-4 -11 -11 -17 -17 -14 -7 5 -8 2 -3 -6 6 -10 11 -9 22
5 13 19 17 35 9 35 -3 0 -8 -9 -11 -20z"/>
<path d="M923 1473 c9 -2 25 -2 35 0 9 3 1 5 -18 5 -19 0 -27 -2 -17 -5z"/>
<path d="M846 1445 c-9 -26 -7 -32 5 -12 6 10 9 21 6 23 -2 3 -7 -2 -11 -11z"/>
<path d="M1030 1458 c10 -11 152 -79 146 -70 -3 5 -24 17 -47 27 -34 16 -38
20 -23 26 14 6 11 8 -13 8 -17 1 -40 4 -50 8 -10 3 -16 4 -13 1z"/>
<path d="M1153 1433 c9 -2 23 -2 30 0 6 3 -1 5 -18 5 -16 0 -22 -2 -12 -5z"/>
<path d="M1211 1426 c12 -10 60 -16 54 -6 -3 5 -18 10 -32 10 -15 0 -24 -2
-22 -4z"/>
<path d="M831 1399 c-1 -8 6 -24 15 -35 15 -19 15 -19 6 1 -5 11 -12 27 -15
35 -5 13 -6 13 -6 -1z"/>
<path d="M1150 1359 c-69 -4 -154 -10 -190 -13 -36 -3 -76 -6 -89 -6 -38 0
-13 -15 59 -34 85 -23 184 -76 245 -131 l50 -45 -45 25 c-46 24 -128 48 -208
59 -58 9 -62 -9 -18 -76 66 -99 126 -313 126 -449 l0 -47 43 5 c34 4 50 -1 89
-26 29 -18 50 -40 54 -56 3 -14 11 -25 17 -25 15 0 1 162 -23 255 -12 44 -43
126 -70 183 -40 83 -45 100 -29 91 11 -6 34 -31 50 -57 62 -99 101 -246 102
-392 1 -109 -17 -180 -63 -253 -37 -58 -42 -91 -9 -61 41 37 137 193 167 271
72 187 82 410 25 575 -39 111 -106 219 -137 217 -11 -1 -77 -5 -146 -10z m200
-81 c17 -29 42 -89 57 -133 24 -72 27 -94 27 -225 0 -137 -2 -150 -32 -240
-18 -52 -43 -114 -55 -138 l-23 -42 4 104 c5 120 -12 214 -60 340 -34 88 -107
176 -146 176 -12 0 -22 -3 -22 -7 0 -4 20 -48 45 -97 24 -50 55 -125 69 -166
25 -75 49 -200 41 -208 -2 -3 -18 7 -35 22 -31 25 -49 33 -100 38 -23 3 -25 8
-32 72 -15 150 -60 296 -117 381 l-30 45 25 0 c41 0 143 -29 196 -56 63 -32
123 -86 155 -141 28 -48 37 -56 23 -19 -57 152 -182 274 -340 332 -31 11 -15
13 142 13 l178 1 30 -52z"/>
<path d="M1525 1300 c10 -11 20 -20 23 -20 3 0 -3 9 -13 20 -10 11 -20 20 -23
20 -3 0 3 -9 13 -20z"/>
<path d="M918 1273 c7 -3 16 -2 19 1 4 3 -2 6 -13 5 -11 0 -14 -3 -6 -6z"/>
<path d="M960 1270 c-12 -8 -10 -10 8 -10 13 0 20 4 17 10 -7 12 -6 12 -25 0z"/>
<path d="M1558 1258 c12 -14 10 -19 -15 -32 -33 -18 -25 -21 12 -4 30 13 31
21 8 39 -16 13 -17 12 -5 -3z"/>
<path d="M710 1210 c0 -13 18 -22 24 -11 3 5 -1 11 -9 15 -8 3 -15 1 -15 -4z"/>
<path d="M805 1190 c-27 -9 -83 -34 -122 -54 -40 -20 -83 -36 -96 -36 -13 0
-26 -3 -30 -6 -3 -3 15 -33 39 -67 25 -34 63 -97 84 -142 41 -84 90 -248 90
-301 0 -16 7 -39 15 -50 14 -18 14 -18 15 9 0 19 11 39 31 58 47 43 177 76
194 49 30 -49 29 97 -2 250 -19 96 -53 178 -98 241 -49 66 -60 70 -120 49z
m84 -37 c62 -75 121 -270 121 -398 l0 -43 -58 -4 c-37 -2 -80 -15 -116 -32
-31 -15 -58 -26 -60 -25 -1 2 -10 36 -20 74 -25 99 -69 201 -121 280 -25 37
-45 71 -45 74 1 12 225 108 257 110 6 1 25 -16 42 -36z"/>
<path d="M730 1105 c-11 -13 -6 -31 28 -103 22 -48 49 -117 61 -155 28 -91 38
-107 65 -107 40 0 46 46 21 145 -19 74 -69 182 -97 213 -25 25 -60 29 -78 7z
m75 -41 c63 -63 133 -328 82 -311 -6 2 -23 42 -37 88 -15 47 -42 117 -61 157
-20 40 -33 75 -30 77 9 10 30 5 46 -11z"/>
<path d="M1460 1168 c0 -9 7 -43 15 -75 9 -32 18 -105 21 -163 l7 -105 84 -79
c68 -64 82 -82 77 -100 -12 -43 -85 -186 -94 -186 -23 0 -19 50 10 123 16 43
30 86 30 95 0 15 -90 112 -103 112 -3 0 -12 -33 -21 -72 -9 -40 -32 -109 -51
-153 -19 -44 -35 -84 -35 -90 0 -6 10 -15 23 -20 28 -13 108 -173 115 -232 2
-23 -1 -56 -7 -74 -6 -18 -9 -35 -6 -38 15 -15 175 198 228 304 45 92 84 235
103 380 l6 50 -86 83 c-47 45 -127 109 -178 142 -51 34 -103 73 -115 88 -18
21 -23 23 -23 10z m125 -109 c100 -64 245 -203 245 -235 0 -60 -10 -56 -109
38 l-96 92 -3 -45 c-3 -43 -1 -46 83 -133 47 -48 88 -98 91 -111 13 -51 -82
-267 -171 -390 -43 -59 -55 -67 -55 -35 0 25 -95 217 -121 246 -19 20 -19 21
6 77 14 32 32 87 41 123 l17 66 34 -35 35 -34 -36 -90 -36 -90 27 -48 c25 -45
27 -47 40 -29 22 29 78 143 98 201 l18 52 -26 34 c-14 19 -53 56 -86 83 -60
48 -61 50 -61 99 0 48 -15 161 -26 198 -8 26 4 22 91 -34z m206 -313 c52 -70
31 -58 -56 30 -95 97 -119 152 -29 64 31 -30 69 -73 85 -94z"/>
<path d="M486 1015 c-27 -19 -55 -35 -63 -35 -22 0 -15 -19 23 -58 58 -60 118
-194 149 -335 l6 -29 47 38 c78 63 81 60 7 -9 -70 -65 -70 -65 -77 -39 -4 15
-14 58 -24 96 -9 39 -32 99 -50 136 -33 65 -98 150 -115 150 -5 0 -34 -22 -64
-50 -30 -27 -62 -50 -70 -50 -24 0 -17 -36 10 -50 29 -16 94 -97 123 -155 60
-122 100 -323 88 -445 -8 -73 1 -71 29 5 26 76 82 173 137 243 27 34 53 62 56
62 4 0 20 12 35 25 l29 25 -17 73 c-37 162 -122 366 -147 351 -4 -3 -8 3 -8
13 -1 15 -42 73 -52 73 -2 0 -25 -16 -52 -35z m58 -2 c5 -11 -4 -28 -29 -52
l-35 -36 -22 24 c-14 14 -19 25 -12 28 6 2 26 15 44 28 40 30 46 30 54 8z m86
-137 c15 -33 35 -85 45 -115 l18 -55 -29 -23 c-59 -49 -61 -48 -79 14 -9 32
-30 87 -47 123 l-29 65 38 32 c20 17 41 29 46 26 5 -3 22 -33 37 -67z m-209
-8 c17 -24 39 -60 50 -80 20 -39 63 -186 74 -250 4 -25 11 -38 21 -38 9 0 43
25 77 55 89 81 93 53 5 -36 -48 -49 -87 -100 -113 -149 l-39 -75 -8 70 c-18
160 -77 304 -165 404 l-47 54 49 44 c27 23 53 43 57 43 4 0 22 -19 39 -42z"/>
</g>
</svg>
