<?xml version="1.0" standalone="no"?>
<!DOCTYPE svg PUBLIC "-//W3C//DTD SVG 20010904//EN"
 "http://www.w3.org/TR/2001/REC-SVG-20010904/DTD/svg10.dtd">
<svg version="1.0" xmlns="http://www.w3.org/2000/svg"
 width="1200.000000pt" height="902.000000pt" viewBox="0 0 1200.000000 902.000000"
 preserveAspectRatio="xMidYMid meet">

<g transform="translate(0.000000,902.000000) scale(0.100000,-0.100000)"
fill="#000000" stroke="none">
<path d="M3993 8492 c-1084 -246 -1974 -449 -1977 -452 -2 -3 131 -269 297
-590 l302 -585 148 -3 c81 -1 147 -1 147 0 0 2 -123 242 -274 533 -151 292
-271 531 -268 532 17 5 3450 756 3472 760 21 3 22 2 5 -5 -11 -5 -696 -202
-1522 -438 -827 -236 -1503 -433 -1503 -438 0 -5 116 -220 258 -478 l257 -468
69 0 c55 0 67 3 63 14 -3 8 -115 205 -248 437 -175 305 -238 424 -228 428 8 3
687 201 1509 441 l1495 435 5 -370 5 -370 210 0 c190 0 214 -2 250 -20 22 -11
45 -31 52 -45 14 -28 16 -104 7 -199 l-7 -61 -157 0 -156 0 4 90 c4 86 3 90
-16 90 -11 0 -23 -8 -26 -17 -2 -10 -8 -143 -11 -295 -6 -241 -5 -278 7 -278
18 0 28 65 28 178 l0 72 153 0 154 0 -14 -112 c-24 -205 -46 -256 -121 -278
-57 -17 -258 -23 -341 -12 -84 12 -117 32 -143 83 -21 39 -24 18 -8 -42 12
-44 44 -75 90 -86 31 -8 35 -13 38 -46 l3 -37 1342 0 1342 0 264 476 c145 261
262 476 260 478 -2 2 -673 193 -1491 426 -818 233 -1486 425 -1484 428 3 3
3372 -727 3418 -741 4 -1 -116 -240 -267 -531 -151 -291 -275 -530 -275 -532
0 -2 62 -4 138 -4 l137 0 303 587 c166 323 299 590 295 594 -12 11 -3956 899
-3989 898 -16 0 -916 -202 -2001 -447z m2224 182 c-3 -3 -12 -4 -19 -1 -8 3
-5 6 6 6 11 1 17 -2 13 -5z m722 -931 c-16 -76 -32 -151 -35 -166 -5 -26 -3
-28 17 -25 22 3 26 16 60 163 l36 160 166 3 c92 1 167 1 167 0 0 -2 -58 -201
-128 -443 l-127 -440 -137 -3 c-76 -1 -138 1 -138 5 0 9 78 360 86 386 4 12 0
17 -15 17 -24 0 -26 -7 -72 -237 l-33 -173 -139 0 -139 0 5 33 c4 17 31 212
62 432 31 220 58 406 60 413 3 9 46 12 169 12 l164 0 -29 -137z m838 105 c-8
-18 -85 -219 -172 -445 l-158 -413 -140 0 c-107 0 -138 3 -135 13 3 6 67 207
143 445 l138 432 169 0 168 0 -13 -32z"/>
<path d="M4200 7803 c0 -5 75 -203 166 -440 l167 -433 143 0 c132 0 144 2 144
18 0 35 -21 42 -131 42 l-107 0 -30 78 c-16 42 -85 227 -153 410 l-123 332
-38 0 c-21 0 -38 -3 -38 -7z"/>
<path d="M4611 7793 c0 -10 8 -43 19 -73 l18 -55 1 73 c1 66 -1 72 -19 72 -13
0 -20 -6 -19 -17z"/>
<path d="M5052 7753 c-21 -37 -14 -93 47 -386 67 -319 91 -385 149 -413 87
-41 410 -41 490 0 36 19 47 36 55 91 l6 39 -19 -32 c-35 -58 -72 -67 -270 -67
-157 0 -180 2 -221 21 -74 35 -83 57 -154 402 -35 169 -65 321 -67 337 -3 29
-3 29 -16 8z"/>
<path d="M5406 7723 c-9 -10 -7 -48 3 -58 7 -8 71 -469 71 -514 0 -6 7 -11 15
-11 12 0 14 8 10 38 -6 38 -65 528 -65 536 0 7 -28 15 -34 9z"/>
<path d="M4792 7200 c16 -45 61 -197 63 -210 0 -8 7 -25 13 -37 12 -22 17 -23
162 -23 83 0 150 3 150 8 0 4 -7 16 -16 27 -13 17 -30 21 -132 25 l-117 5 -55
102 c-52 95 -80 138 -68 103z"/>
<path d="M210 6695 c0 -3 320 -428 711 -943 391 -515 714 -942 718 -947 9 -16
17 -25 -604 674 l-569 641 -195 0 -195 0 46 -47 c25 -27 658 -696 1407 -1488
750 -792 1368 -1444 1374 -1448 8 -6 106 40 267 123 434 224 716 356 916 430
222 82 696 220 759 220 10 0 54 -79 129 -229 l115 -229 87 -48 c51 -29 95 -61
106 -79 11 -16 176 -313 367 -660 190 -346 351 -629 356 -629 5 1 164 282 355
625 190 343 355 640 367 661 15 26 45 49 105 83 l84 47 114 229 c63 126 120
229 127 229 75 0 595 -154 843 -250 120 -46 593 -274 858 -413 123 -64 226
-117 228 -117 2 0 2577 2712 2807 2958 l31 32 -195 0 -194 0 -555 -626 c-606
-683 -627 -706 -612 -684 10 16 1131 1495 1324 1748 l109 142 -5795 0 c-3188
0 -5796 -2 -5796 -5z m10840 -350 c0 -12 -2038 -2770 -2046 -2768 -5 1 -99 43
-209 94 -1798 822 -3245 901 -4942 268 -221 -82 -545 -218 -745 -313 l-117
-55 -1014 1377 c-557 757 -1016 1383 -1021 1390 -6 9 1006 12 5043 12 2778 0
5051 -2 5051 -5z m-4525 -2099 c247 -27 491 -68 607 -102 15 -4 -6 -51 -127
-295 -133 -265 -147 -289 -168 -284 -55 12 -215 36 -352 52 -188 22 -726 25
-910 5 -139 -15 -392 -50 -417 -58 -14 -4 -44 49 -162 285 -123 245 -143 291
-128 295 118 37 532 99 767 115 186 13 721 5 890 -13z m-525 -1248 c0 -298 -2
-539 -5 -536 -3 3 -138 237 -300 519 l-294 514 32 7 c26 5 134 15 342 32 22 1
82 3 133 4 l92 2 0 -542z"/>
<path d="M1076 6278 c11 -18 1870 -2544 1906 -2590 29 -37 30 -37 61 -24 18 8
107 48 199 90 1076 486 2072 705 2991 658 858 -44 1670 -262 2640 -709 66 -30
120 -53 122 -51 15 17 1935 2630 1935 2633 0 3 -2219 5 -4931 5 -3941 0 -4929
-3 -4923 -12z m4176 -183 c145 -21 198 -55 226 -145 6 -19 12 -109 14 -200 l3
-165 -80 -2 c-44 -1 -144 -4 -222 -7 -79 -3 -143 -4 -143 -3 -3 64 -33 253
-41 264 -8 9 -26 13 -48 11 l-36 -3 2 -83 c3 -104 17 -156 46 -175 13 -8 100
-40 194 -70 320 -103 340 -124 354 -362 11 -202 11 -337 -2 -376 -22 -65 -81
-108 -176 -129 -96 -22 -429 -70 -483 -70 -102 1 -170 50 -208 152 -19 52 -98
446 -91 452 4 4 422 44 426 41 2 -1 12 -75 24 -166 11 -90 25 -170 31 -176 14
-17 40 -16 62 0 17 13 18 21 6 138 -14 143 -24 185 -50 199 -9 5 -100 36 -201
70 -101 33 -207 73 -236 90 -51 29 -98 85 -121 145 -22 56 -72 320 -72 380 0
74 27 138 67 158 102 53 496 69 755 32z m4588 11 c211 -11 277 -67 233 -197
-10 -31 -90 -171 -177 -313 l-158 -257 -37 5 c-20 3 -102 13 -183 22 -223 24
-211 1 -102 194 51 91 93 175 93 188 1 34 -53 31 -87 -7 -37 -39 -162 -282
-162 -314 0 -18 26 -53 90 -123 140 -154 145 -162 144 -258 0 -103 -5 -113
-226 -497 -253 -438 -306 -504 -412 -516 -58 -7 -128 17 -291 101 -269 138
-274 181 -69 644 52 117 94 217 94 222 0 5 4 11 9 15 8 4 312 -54 373 -71 15
-4 1 -38 -92 -224 -112 -222 -128 -270 -90 -270 30 0 46 23 152 227 70 135 98
198 98 224 0 30 -11 49 -67 115 -36 43 -87 102 -113 129 -82 88 -98 172 -55
300 22 66 148 332 199 420 75 127 156 189 293 221 73 17 289 32 388 27 33 -1
103 -5 155 -7z m-5606 -13 c3 -10 67 -301 142 -648 149 -686 162 -774 129
-861 -26 -69 -117 -118 -354 -190 -275 -83 -345 -65 -431 110 -22 44 -161 414
-309 821 -148 407 -272 748 -276 758 -7 16 9 17 244 17 138 0 251 -2 251 -4 0
-2 36 -123 81 -268 44 -144 136 -454 205 -687 69 -234 127 -428 130 -433 10
-16 62 -9 68 10 4 10 -79 323 -184 695 -104 372 -190 679 -190 682 0 5 120 10
327 13 146 2 162 0 167 -15z m1882 -60 c-10 -133 -18 -378 -13 -373 3 3 42
105 88 228 l82 222 249 0 c137 0 247 -3 245 -7 -35 -59 -307 -637 -307 -651 0
-11 36 -194 79 -407 l79 -388 -106 7 c-59 3 -150 9 -203 12 l-96 7 -64 278
c-35 153 -65 276 -67 274 -3 -2 -10 -124 -17 -270 -6 -145 -14 -267 -18 -271
-3 -3 -89 -8 -190 -11 l-184 -6 -6 129 c-4 71 -9 365 -12 654 -3 289 -8 553
-11 588 l-6 62 242 0 242 0 -6 -77z m1584 75 c-1 -2 -18 -64 -39 -138 l-38
-135 -134 0 -134 0 -31 -138 -31 -137 21 -5 c11 -2 65 -6 118 -7 53 -2 100 -6
103 -10 8 -7 -52 -246 -65 -261 -4 -4 -58 -3 -120 3 -62 6 -114 9 -116 7 -7
-7 -97 -418 -92 -422 2 -2 50 -11 107 -19 58 -9 105 -17 106 -18 4 -4 -62
-259 -68 -264 -3 -3 -85 8 -184 25 -98 17 -229 37 -292 45 -62 8 -115 17 -117
19 -2 2 48 326 111 719 63 393 115 720 115 726 0 9 100 12 390 12 215 0 390
-1 390 -2z m685 -8 c347 -9 400 -17 448 -70 48 -53 36 -129 -50 -335 -132
-313 -212 -431 -318 -470 -28 -10 -52 -20 -54 -21 -2 -2 10 -19 27 -38 40 -46
48 -89 28 -163 -8 -33 -75 -204 -148 -380 l-133 -320 -170 57 c-122 41 -169
61 -167 71 2 8 50 145 108 304 58 160 103 301 102 314 -2 18 -11 27 -32 33
-17 4 -31 6 -33 5 -1 -2 -51 -147 -111 -322 -93 -271 -113 -320 -128 -319 -26
2 -335 82 -341 88 -3 3 97 359 222 791 l228 785 106 -1 c58 0 246 -4 416 -9z
m-5292 -158 c33 -84 56 -156 52 -160 -3 -4 -69 -8 -146 -10 -80 -2 -139 -8
-139 -13 0 -5 36 -96 79 -202 208 -507 551 -1357 551 -1366 0 -6 -5 -11 -11
-11 -6 0 -74 -29 -152 -65 -102 -47 -143 -61 -148 -53 -4 7 -182 387 -396 846
l-388 834 -185 -4 -184 -3 -97 175 c-54 96 -98 178 -98 183 -1 4 270 6 601 5
l602 -3 59 -153z"/>
<path d="M8236 5768 c-9 -24 -41 -110 -70 -193 -50 -139 -53 -151 -36 -159 10
-5 30 -4 47 1 25 8 35 26 92 169 35 87 64 173 65 189 1 28 -1 30 -40 33 -41 3
-42 2 -58 -40z"/>
<path d="M5723 4183 c-23 -3 -33 -10 -33 -21 1 -26 67 -432 71 -436 2 -1 25
-1 51 2 43 4 47 6 44 26 -3 11 -7 51 -11 89 -4 54 -3 67 9 67 19 0 26 -22 26
-83 0 -90 5 -97 62 -97 l50 0 -4 96 c-3 86 -5 98 -26 114 -23 19 -23 19 -2 30
18 9 20 20 20 93 0 117 -4 121 -126 123 -55 1 -114 0 -131 -3z m139 -114 c0
-21 1 -45 2 -51 1 -7 -6 -14 -15 -16 -13 -2 -17 8 -22 50 -5 60 -3 70 18 61 9
-3 16 -20 17 -44z"/>
<path d="M6117 4158 c-3 -18 -19 -98 -36 -178 -16 -80 -33 -169 -37 -197 l-7
-53 46 0 c47 0 57 11 57 68 0 17 6 22 25 22 23 0 25 -4 25 -44 0 -46 11 -56
68 -56 l22 0 0 229 0 229 -22 6 c-13 3 -48 6 -79 6 -56 0 -56 0 -62 -32z m73
-193 c0 -60 -3 -75 -15 -75 -8 0 -15 5 -15 11 0 19 23 139 27 139 2 0 3 -34 3
-75z"/>
<path d="M5470 4163 c-25 -3 -48 -7 -52 -11 -6 -7 114 -428 126 -439 3 -3 38
-2 79 2 l74 6 -6 32 c-6 27 -12 32 -39 35 -25 3 -33 9 -38 30 -3 15 -10 43
-15 62 -13 49 -12 50 21 50 31 0 36 11 24 57 -5 18 -11 21 -39 16 -31 -5 -32
-4 -44 40 -6 25 -11 48 -11 51 0 3 16 6 35 6 36 0 40 6 29 48 -7 23 -23 25
-144 15z"/>
<path d="M6378 3949 c-26 -123 -45 -225 -43 -228 3 -2 38 -6 78 -9 71 -4 74
-4 80 19 11 40 8 49 -18 49 -14 0 -25 6 -25 13 0 6 23 91 50 186 27 96 48 176
47 177 -1 1 -29 6 -62 9 l-60 7 -47 -223z"/>
<path d="M5262 4130 c-18 -4 -36 -10 -39 -13 -3 -3 0 -36 6 -73 7 -36 10 -68
8 -70 -2 -2 -17 26 -32 63 -16 38 -30 70 -31 72 -4 4 -104 -20 -104 -25 0 -2
45 -96 100 -209 l99 -206 38 7 c21 4 40 8 42 10 2 2 -11 39 -29 81 -48 116
-48 116 21 15 l63 -93 40 7 c23 3 42 8 44 9 4 3 -63 114 -114 190 -32 46 -34
55 -34 132 0 118 -2 121 -78 103z"/>
<path d="M6672 3983 c-107 -198 -144 -274 -138 -280 2 -3 22 -7 43 -10 38 -5
40 -4 58 36 12 28 24 41 38 41 20 0 20 0 1 -67 -5 -19 -1 -23 31 -29 20 -3 40
-3 45 2 7 8 140 405 140 418 0 3 -26 10 -57 16 -32 7 -63 14 -69 17 -7 2 -45
-58 -92 -144z m74 -70 c-15 -44 -29 -69 -40 -71 -14 -3 -10 10 19 67 19 39 37
71 39 71 3 0 -6 -30 -18 -67z"/>
<path d="M4416 3654 c-66 -19 -121 -36 -122 -37 -3 -4 1701 -3297 1707 -3297
7 0 1709 3293 1705 3298 -2 1 -57 18 -122 37 -98 28 -121 32 -129 21 -5 -8
-334 -637 -730 -1399 -395 -763 -722 -1384 -725 -1381 -3 3 -329 631 -725
1396 -396 765 -724 1393 -730 1394 -5 2 -64 -13 -129 -32z"/>
<path d="M7556 2960 l-306 -599 76 -143 c238 -445 492 -794 823 -1130 315
-321 605 -540 946 -712 115 -59 277 -126 380 -157 85 -27 286 -65 450 -85 198
-26 574 -26 700 -1 197 40 310 127 279 215 -16 44 -54 61 -254 107 -347 80
-520 144 -738 274 -708 419 -1445 1414 -1982 2674 l-67 157 -307 -600z m462
-74 c517 -1045 1103 -1798 1717 -2208 235 -156 561 -292 840 -349 61 -12 114
-26 119 -30 4 -4 -27 -15 -70 -26 -66 -15 -120 -18 -334 -17 -514 1 -830 75
-1214 284 -452 247 -898 653 -1258 1146 -148 204 -408 632 -408 674 0 13 415
834 433 858 8 10 18 -3 41 -55 17 -37 77 -162 134 -277z"/>
<path d="M4061 3378 c-394 -928 -961 -1794 -1495 -2287 -386 -356 -690 -517
-1196 -632 -248 -56 -290 -79 -276 -151 36 -179 478 -246 1071 -162 263 37
416 80 640 181 738 331 1465 1081 1919 1981 l27 53 -303 595 c-167 326 -305
594 -308 594 -4 0 -39 -78 -79 -172z m315 -581 l222 -432 -54 -102 c-366 -694
-939 -1323 -1516 -1665 -428 -253 -765 -341 -1313 -342 -218 -1 -273 2 -338
17 -72 17 -95 37 -44 37 12 0 83 15 157 34 501 127 864 340 1270 746 372 371
725 862 1054 1465 81 148 266 520 307 617 13 32 26 58 29 58 3 0 105 -195 226
-433z"/>
</g>
</svg>
