<?xml version="1.0" standalone="no"?>
<!DOCTYPE svg PUBLIC "-//W3C//DTD SVG 20010904//EN"
 "http://www.w3.org/TR/2001/REC-SVG-20010904/DTD/svg10.dtd">
<svg version="1.0" xmlns="http://www.w3.org/2000/svg"
 width="1200.000000pt" height="1851.000000pt" viewBox="0 0 1200.000000 1851.000000"
 preserveAspectRatio="xMidYMid meet">

<g transform="translate(0.000000,1851.000000) scale(0.100000,-0.100000)"
fill="#000000" stroke="none">
<path d="M3340 17768 c0 -18 9 -69 19 -113 58 -239 198 -504 399 -755 84 -104
288 -318 394 -412 l67 -59 48 37 c139 107 425 174 683 161 156 -8 425 -76 601
-151 14 -6 15 0 7 51 -27 176 -106 354 -223 500 -29 37 -52 69 -51 71 6 5 140
-48 186 -75 220 -127 376 -369 440 -685 l21 -101 70 -70 c83 -83 177 -221 252
-370 65 -128 64 -130 73 113 19 503 -129 926 -430 1225 -118 117 -239 202
-410 290 -224 114 -453 190 -713 237 -112 20 -161 23 -390 23 -196 0 -265 -3
-274 -12 -10 -10 -10 -13 3 -13 36 0 199 -54 285 -95 176 -83 303 -188 359
-296 24 -46 28 -66 29 -136 0 -74 -3 -85 -30 -124 -86 -122 -302 -132 -522
-25 -226 111 -512 361 -790 694 -98 116 -103 121 -103 90z m1420 -194 c223
-37 433 -105 624 -201 505 -253 793 -669 846 -1219 15 -157 13 -156 -31 21
-52 212 -90 324 -147 437 -159 314 -399 543 -747 713 -180 88 -296 129 -540
191 -115 29 -228 60 -250 69 -40 15 -39 15 55 10 52 -3 138 -12 190 -21z
m-1218 -146 c86 -109 293 -308 393 -380 299 -212 587 -282 773 -187 44 23 77
49 99 77 41 54 43 44 3 -18 -119 -185 -419 -199 -729 -35 -240 128 -441 326
-585 578 -15 26 -25 47 -23 47 2 0 33 -37 69 -82z"/>
<path d="M1805 17480 c-82 -13 -158 -37 -235 -72 l-65 -30 90 -23 c269 -70
390 -136 828 -453 126 -91 264 -186 308 -213 195 -117 411 -177 724 -201 152
-11 435 -3 418 12 -4 4 -35 15 -67 25 -91 26 -250 91 -367 151 -143 73 -276
162 -504 338 -457 353 -678 461 -960 471 -60 2 -137 0 -170 -5z m162 -151
c211 -75 368 -172 568 -354 261 -238 397 -311 702 -379 131 -30 89 -34 -63 -6
-281 50 -437 135 -695 377 -178 167 -313 258 -499 338 -126 53 -126 54 -113
54 6 1 51 -13 100 -30z m1431 -766 c-10 -2 -26 -2 -35 0 -10 3 -2 5 17 5 19 0
27 -2 18 -5z"/>
<path d="M1912 16880 c-43 -10 -51 -19 -29 -31 49 -28 182 -136 221 -181 129
-147 135 -269 20 -384 -59 -59 -122 -78 -238 -71 -62 3 -113 13 -158 30 l-68
24 23 -40 c12 -23 51 -71 87 -108 149 -152 345 -191 567 -114 37 12 178 77
313 143 268 131 476 222 505 222 37 0 -1 18 -95 45 -135 38 -269 89 -384 146
-108 54 -121 62 -251 164 -50 38 -122 85 -162 103 -116 53 -257 74 -351 52z
m207 -75 c126 -30 190 -77 376 -276 79 -84 139 -121 247 -149 l73 -19 -55 0
c-65 -1 -153 20 -211 50 -41 20 -65 44 -173 168 -78 88 -167 157 -261 202 -89
43 -89 45 4 24z m96 -562 c-23 -56 -66 -105 -110 -127 -48 -24 -144 -26 -195
-4 l-35 15 74 6 c91 7 177 47 236 106 21 23 40 41 42 41 2 0 -4 -17 -12 -37z"/>
<path d="M4757 16506 c147 -70 277 -196 345 -333 23 -45 39 -85 37 -88 -3 -2
-45 15 -95 39 -433 211 -1179 272 -1774 144 -214 -45 -458 -133 -640 -230
-144 -76 -382 -239 -369 -253 3 -2 87 -24 189 -50 235 -59 491 -132 645 -185
296 -101 699 -339 1035 -609 41 -33 78 -61 82 -61 4 0 14 13 23 30 49 95 204
273 320 368 l40 33 -23 17 c-149 109 -442 264 -637 337 l-120 44 165 1 c255 0
556 -41 817 -113 l121 -33 44 23 c159 84 575 152 838 138 123 -6 327 -36 384
-55 16 -6 31 -8 34 -6 7 8 -97 183 -155 258 -291 382 -705 591 -1198 605
l-160 4 52 -25z m335 -71 c312 -65 643 -263 839 -502 100 -122 100 -124 -1
-29 -185 175 -352 293 -555 394 -104 51 -298 129 -360 145 -49 12 11 6 77 -8z
m-845 -200 c158 -21 323 -58 465 -105 122 -41 271 -100 266 -106 -2 -2 -51 12
-110 31 -122 38 -323 85 -489 114 -572 99 -1198 -1 -1742 -276 -71 -36 -127
-67 -125 -69 2 -2 60 -15 128 -29 316 -67 594 -155 791 -251 120 -58 299 -160
299 -169 0 -2 -57 25 -127 59 -152 76 -173 85 -325 141 -216 80 -452 144 -721
195 -82 15 -150 30 -153 33 -8 8 178 115 308 177 300 142 659 239 998 269 134
12 386 5 537 -14z m773 -225 c8 -5 11 -10 5 -10 -5 0 -17 5 -25 10 -8 5 -10
10 -5 10 6 0 17 -5 25 -10z"/>
<path d="M5455 15595 c-444 -72 -821 -294 -1052 -619 -215 -303 -327 -717
-294 -1089 17 -190 34 -258 94 -364 28 -50 53 -90 55 -89 2 2 -3 44 -10 92 -8
56 -13 188 -13 354 0 233 3 279 23 383 95 496 336 821 767 1033 151 74 271
115 422 144 325 63 734 32 1056 -79 31 -11 57 -18 57 -16 0 2 -18 33 -41 69
l-41 66 -108 35 c-197 63 -355 87 -605 91 -159 2 -245 -1 -310 -11z"/>
<path d="M3200 15364 c0 -4 33 -42 74 -85 166 -176 248 -352 217 -465 -47
-176 -251 -219 -468 -98 -75 42 -166 123 -205 184 l-29 45 6 -40 c23 -139 88
-296 170 -410 53 -75 173 -188 247 -232 29 -18 118 -62 196 -97 259 -117 378
-191 474 -294 l55 -60 6 216 c7 295 44 496 128 698 l30 72 -53 50 c-239 224
-521 406 -760 491 -49 17 -88 28 -88 25z m223 -140 c223 -112 444 -282 537
-410 33 -47 32 -46 -66 36 -56 47 -179 141 -275 209 -282 202 -299 217 -196
165z m147 -541 c-34 -156 -183 -234 -359 -189 -76 19 -120 44 -179 100 -60 56
-76 89 -21 42 163 -139 397 -149 495 -20 27 34 63 135 66 182 1 15 3 7 6 -18
2 -25 -1 -68 -8 -97z"/>
<path d="M5563 15325 c-500 -65 -919 -340 -1117 -733 -115 -229 -174 -541
-163 -867 10 -296 46 -507 103 -606 68 -118 61 -111 93 -95 43 23 185 130 254
193 162 149 286 316 402 543 202 399 428 677 696 856 214 143 430 211 827 260
69 8 128 17 130 19 2 1 -38 68 -88 148 l-92 146 -125 40 c-300 99 -631 133
-920 96z"/>
<path d="M6703 14789 c-429 -38 -751 -185 -1024 -466 -158 -163 -283 -344
-443 -643 -185 -346 -429 -604 -724 -765 l-74 -40 -144 -389 c-80 -214 -143
-390 -141 -392 2 -2 44 5 93 15 385 79 738 274 1034 571 90 90 213 238 239
288 12 22 13 22 35 5 270 -208 433 -312 661 -423 458 -222 968 -346 1512 -366
l172 -7 -392 879 c-215 483 -392 881 -394 883 -1 2 -25 -17 -52 -42 -96 -90
-226 -134 -367 -123 -186 14 -327 92 -425 238 -37 54 -83 147 -77 154 10 9
567 45 643 42 113 -5 180 -35 272 -121 108 -102 179 -222 244 -412 20 -60 41
-110 45 -110 5 0 87 7 182 14 123 10 172 18 170 26 -2 7 -190 278 -418 603
l-415 591 -60 -1 c-33 0 -101 -4 -152 -9z m103 -360 c69 -13 147 -52 169 -85
17 -26 13 -29 -14 -14 -51 27 -138 28 -466 4 -181 -13 -330 -22 -331 -21 -8
11 -35 70 -32 72 5 5 472 47 589 54 14 0 52 -4 85 -10z m633 -1394 c187 -424
341 -774 341 -778 0 -4 -22 -7 -49 -7 l-49 0 -332 748 c-183 411 -334 752
-337 758 -5 13 69 65 78 55 4 -3 160 -353 348 -776z"/>
<path d="M5498 12777 c-165 -224 -462 -469 -737 -606 -185 -93 -319 -137 -595
-197 -37 -8 -42 -13 -63 -69 -13 -32 -23 -63 -23 -69 0 -24 267 30 450 90 362
121 707 350 982 652 l58 63 102 -73 c235 -168 432 -275 688 -375 319 -124 602
-192 985 -238 135 -17 591 -33 619 -22 13 5 12 14 -10 64 -14 32 -27 59 -29
61 -1 2 -56 5 -121 7 -481 18 -822 79 -1219 215 -324 112 -668 292 -928 487
-54 40 -102 73 -106 73 -4 0 -28 -28 -53 -63z"/>
<path d="M6155 11804 c-1539 -41 -2947 -287 -4112 -720 -349 -130 -870 -363
-865 -387 2 -13 222 -699 271 -847 l18 -56 -104 -64 c-395 -244 -653 -530
-747 -827 -38 -124 -52 -243 -38 -350 44 -361 305 -650 670 -744 42 -10 77
-21 79 -23 4 -4 -192 -1060 -203 -1099 -3 -9 -33 -36 -67 -59 -368 -248 -603
-533 -676 -821 -73 -282 2 -561 207 -779 109 -116 280 -216 427 -250 38 -9 55
-17 55 -28 0 -9 -34 -197 -75 -420 l-75 -403 47 -81 c291 -508 648 -826 1288
-1148 99 -50 182 -92 184 -94 2 -2 -9 -23 -26 -47 -105 -145 -123 -363 -103
-1217 7 -311 15 -615 19 -677 l6 -111 340 305 c520 468 720 634 1134 941 l203
152 66 -73 c128 -142 560 -564 707 -691 407 -349 866 -638 1379 -866 l159 -70
141 114 c187 151 382 316 661 562 127 111 258 226 292 255 34 30 62 56 62 59
0 3 -94 56 -210 119 -134 72 -206 117 -197 121 7 4 165 10 351 14 l339 6 119
112 c65 61 119 114 119 118 0 4 -99 43 -221 86 -121 43 -217 80 -212 81 4 2
159 16 343 32 l335 30 129 133 128 133 -58 17 c-33 9 -167 45 -299 80 l-240
63 145 6 c80 4 215 7 301 8 86 0 197 4 247 7 l92 7 120 128 c66 71 120 132
120 136 0 5 -150 49 -333 98 l-332 90 295 6 c162 3 354 7 427 8 l132 1 165
189 c128 147 161 191 148 195 -9 3 -215 44 -457 93 l-440 88 537 3 537 2 137
176 c75 96 135 176 133 178 -2 2 -156 41 -341 87 -186 46 -334 86 -330 90 4 3
222 60 485 125 263 66 484 122 490 126 8 5 6 55 -7 178 -10 95 -15 174 -12
177 3 4 51 -1 105 -10 55 -10 110 -17 123 -17 19 0 48 38 159 208 75 114 178
279 228 367 134 232 311 597 376 772 l56 152 -65 140 c-36 78 -66 143 -66 146
0 2 35 5 77 7 l76 3 50 110 c163 364 236 612 272 922 29 244 14 500 -39 699
-14 50 -69 205 -124 345 l-99 254 53 59 c92 101 175 292 218 502 43 207 136
717 132 722 -7 6 -595 -54 -729 -74 -54 -9 -100 -14 -101 -12 -32 53 -73 102
-127 152 l-68 63 75 463 c41 255 73 470 72 478 -5 27 -535 218 -879 317 -822
238 -1748 384 -2759 434 -214 11 -835 20 -1025 15z m165 -430 c0 -3 -36 -50
-80 -104 -44 -54 -80 -101 -80 -104 0 -3 27 -6 60 -6 95 0 100 -10 100 -175
l0 -135 -89 0 -88 0 -7 46 c-3 26 -6 74 -6 107 l0 60 -61 -7 c-34 -3 -78 -6
-97 -6 l-35 0 5 -105 5 -105 -71 0 c-39 0 -81 -3 -92 -6 -21 -6 -22 -2 -28 98
-3 56 -8 176 -11 266 l-6 162 95 0 96 0 0 -89 c0 -91 5 -121 21 -121 5 0 45
48 89 108 l81 107 67 6 c104 9 132 9 132 3z m1122 -23 c114 -6 153 -12 174
-26 l27 -17 -7 -152 c-3 -83 -9 -193 -12 -243 l-7 -93 -62 0 c-34 0 -76 3 -94
6 l-31 6 7 104 6 104 -59 0 c-32 0 -76 3 -96 6 l-38 7 0 -54 c0 -30 -3 -78 -7
-108 l-6 -53 -88 4 c-49 2 -90 6 -92 9 -7 6 21 477 28 489 11 18 69 27 140 23
39 -2 136 -8 217 -12z m1247 -126 c135 -19 246 -37 249 -40 2 -2 1 -25 -3 -51
l-7 -46 -36 6 c-76 12 -152 19 -152 14 0 -21 -60 -401 -64 -405 -3 -3 -43 0
-90 7 -77 11 -86 14 -86 34 0 11 12 103 27 203 14 101 24 186 20 189 -3 4 -43
13 -88 20 -44 7 -83 15 -86 17 -2 3 -1 26 3 52 6 46 7 47 38 41 17 -3 141 -22
275 -41z m-4054 13 c5 -24 45 -368 45 -388 0 -12 13 -11 148 7 l44 6 -7 53
c-3 30 -4 54 -2 54 3 0 41 7 84 15 43 8 83 15 89 15 6 0 14 -29 18 -67 4 -38
10 -86 13 -109 l5 -41 -276 -33 c-152 -18 -279 -30 -283 -27 -6 7 -62 448 -63
494 0 19 8 22 73 31 108 14 106 14 112 -10z m-953 -156 c8 -8 98 -413 98 -444
0 -32 -49 -50 -253 -94 -235 -51 -271 -54 -290 -21 -18 28 -101 421 -94 441
12 31 59 47 258 91 190 41 260 48 281 27z m6318 -123 c154 -40 196 -58 206
-84 6 -15 -103 -454 -117 -469 -7 -7 -146 20 -168 34 -6 3 0 44 15 104 14 54
24 99 22 101 -13 10 -172 45 -178 38 -4 -4 -18 -48 -30 -98 -13 -49 -24 -91
-26 -93 -2 -3 -164 37 -175 43 -8 5 109 455 122 472 24 28 58 23 329 -48z
m-7660 -284 c-28 -65 -48 -120 -46 -123 3 -2 19 1 37 7 37 13 88 14 107 3 12
-8 92 -233 92 -258 0 -11 -168 -71 -175 -62 -1 2 -15 45 -30 96 -17 54 -33 92
-41 92 -14 0 -174 -49 -174 -54 0 -1 13 -42 30 -91 17 -49 30 -94 30 -100 0
-13 -162 -68 -171 -57 -8 9 -159 463 -159 479 0 10 139 63 166 63 5 0 23 -41
39 -91 16 -50 33 -93 39 -96 15 -10 30 19 75 140 l42 113 92 31 c51 16 93 29
94 28 2 -1 -20 -55 -47 -120z m4970 -175 c711 -42 1392 -149 1980 -310 158
-44 657 -204 669 -215 7 -8 -21 -105 -31 -105 -5 0 -101 25 -212 55 -844 229
-1627 352 -2571 407 -268 15 -1057 15 -1330 -1 -679 -38 -1302 -122 -1950
-261 -126 -27 -231 -48 -233 -45 -8 8 11 117 24 130 15 14 393 109 599 149
543 107 1167 175 1870 206 241 10 943 5 1185 -10z m-1846 -415 c15 -40 28
-200 23 -285 -22 -352 -232 -655 -639 -923 -306 -202 -749 -385 -1224 -505
l-192 -49 65 -58 c123 -110 224 -253 423 -595 166 -286 258 -432 358 -566 340
-454 740 -696 1275 -770 26 -3 46 -8 44 -10 -13 -13 -300 -36 -452 -36 -757
-1 -1301 321 -1775 1052 -245 376 -322 490 -367 535 -47 47 -118 95 -126 85
-2 -3 -32 -185 -67 -405 -34 -220 -67 -410 -71 -422 -5 -13 -16 -23 -25 -23
-30 0 -398 -128 -544 -189 -79 -33 -146 -58 -148 -56 -2 2 107 587 242 1301
135 714 243 1300 241 1302 -8 9 -413 -198 -500 -255 -176 -115 -275 -231 -275
-322 0 -36 6 -49 34 -77 19 -19 41 -34 49 -34 12 0 5 -46 -37 -251 -34 -164
-57 -253 -66 -259 -24 -15 -200 -12 -265 5 -250 64 -397 282 -341 505 59 233
283 463 666 684 201 116 552 270 971 426 191 72 542 191 547 185 2 -2 -60
-325 -137 -719 -78 -393 -141 -722 -141 -730 0 -11 10 -13 43 -10 546 59 903
193 1151 433 96 94 155 174 205 283 112 241 107 474 -14 591 -21 21 -36 39
-34 41 12 12 698 100 964 125 133 12 132 12 139 -4z m3449 -229 c44 -18 95
-78 103 -122 5 -27 -18 -141 -100 -486 -59 -248 -105 -452 -103 -454 2 -3 24
4 49 15 80 34 271 102 383 137 145 45 214 43 283 -7 28 -20 62 -85 62 -116 0
-31 -339 -1496 -348 -1504 -4 -3 -72 -29 -152 -57 -80 -28 -208 -73 -286 -101
l-141 -49 34 146 c19 81 94 401 166 712 73 311 130 566 126 568 -6 3 -162 -52
-229 -81 l-35 -15 -164 -704 c-90 -387 -167 -707 -172 -712 -8 -9 -611 -218
-615 -213 -1 1 119 515 267 1142 148 627 276 1178 285 1225 10 60 14 135 12
255 -1 94 1 180 5 193 9 23 87 71 237 144 194 95 265 113 333 84z m-4585 -223
c8 -166 -50 -295 -203 -449 -168 -170 -365 -275 -650 -349 -134 -34 -301 -63
-311 -52 -3 3 -1 31 6 61 9 45 16 57 33 60 12 3 69 15 127 26 444 91 798 330
923 623 26 61 31 85 31 159 l1 87 19 -37 c14 -26 21 -64 24 -129z m6166 153
c18 -8 45 -29 59 -48 41 -53 43 -100 12 -233 -15 -64 -25 -118 -23 -120 2 -2
80 16 175 41 159 41 372 83 486 98 l49 6 -7 -42 c-31 -184 -78 -331 -125 -395
-63 -85 -125 -100 -504 -123 -93 -5 -172 -14 -175 -19 -12 -19 -234 -982 -228
-988 13 -12 364 68 538 123 46 14 90 28 98 31 22 7 -10 -19 -204 -165 -319
-240 -702 -494 -885 -587 l-48 -24 -18 20 c-32 36 -90 59 -145 59 -37 0 -50 4
-46 13 13 34 328 1369 324 1373 -2 3 -35 -7 -73 -20 -37 -14 -69 -24 -71 -23
-1 1 15 81 36 177 l38 175 65 35 c76 40 78 44 78 177 0 57 -5 96 -16 118 -14
29 -14 40 -2 82 l13 48 180 90 c259 130 341 154 419 121z m-3964 -309 c14 -7
34 -30 44 -51 21 -43 21 -45 -46 -328 l-29 -126 -34 14 c-44 18 -98 18 -193
-2 -82 -17 -236 -71 -315 -111 -27 -13 -51 -22 -53 -20 -3 2 20 112 51 243 38
165 61 243 73 252 46 36 198 103 287 127 63 17 182 18 215 2z m-4257 -359 c-2
-13 -102 -545 -222 -1183 l-217 -1160 -93 -48 c-51 -27 -94 -47 -96 -45 -2 2
95 524 214 1161 201 1069 220 1159 241 1175 36 26 173 122 175 122 1 0 0 -10
-2 -22z m5642 -29 c86 -24 135 -84 135 -166 0 -28 -91 -427 -219 -962 -179
-748 -222 -916 -237 -924 -11 -5 -49 -40 -85 -76 -69 -70 -125 -168 -150 -263
l-13 -47 -130 -35 c-248 -68 -425 -104 -639 -131 -60 -7 -110 -15 -112 -17 -2
-2 -102 -425 -223 -941 -200 -857 -221 -939 -243 -954 -41 -27 -118 -113 -162
-180 -35 -54 -48 -65 -82 -74 -118 -30 -371 -102 -445 -127 l-85 -29 -60 54
c-121 110 -370 263 -487 299 -32 10 -58 23 -58 30 0 7 34 158 75 335 42 177
83 363 92 413 18 107 21 269 5 308 -8 20 -8 42 0 82 l10 55 112 49 c208 93
522 202 580 202 13 0 59 -33 112 -79 l91 -80 71 317 c40 174 72 320 72 323 0
4 -37 12 -82 18 -327 47 -695 194 -909 363 l-51 40 28 19 c71 46 439 197 451
185 3 -2 -5 -50 -16 -107 -12 -56 -21 -105 -21 -110 0 -12 141 -55 241 -74
100 -19 376 -42 385 -32 4 4 1 31 -6 60 -10 44 -10 62 1 103 l14 49 114 56
c128 63 290 125 367 142 100 21 200 -33 223 -121 10 -35 8 -56 -8 -124 -11
-46 -18 -84 -17 -86 2 -1 50 14 107 33 126 44 281 118 368 177 l64 44 48 184
c26 101 46 186 45 188 -4 4 -171 -44 -314 -90 l-93 -29 -32 27 c-18 15 -46 33
-64 41 -59 24 -191 15 -314 -23 -13 -4 -7 32 32 203 135 580 148 663 130 813
-9 65 -8 96 2 134 l13 48 129 71 c366 198 791 363 1060 411 100 18 130 19 180
5z m-1591 -332 c61 -35 81 -68 80 -135 -1 -49 -275 -1277 -288 -1290 -3 -2
-58 -25 -123 -52 -144 -58 -334 -152 -428 -213 -38 -25 -71 -44 -73 -42 -2 2
50 252 115 557 l118 553 1 200 c0 110 4 209 7 221 8 23 106 82 232 140 188 87
285 103 359 61z m-861 -68 c22 -6 55 -25 74 -43 62 -56 61 -67 -71 -686 -63
-300 -120 -568 -126 -597 l-11 -52 -87 -31 c-126 -46 -395 -156 -463 -191 -33
-16 -59 -26 -59 -23 0 9 260 1146 265 1163 7 19 -30 9 -160 -47 l-110 -47 -67
-285 c-38 -157 -89 -372 -114 -477 -26 -110 -50 -190 -56 -187 -21 13 -341
514 -397 621 -8 17 -6 48 9 139 25 148 30 272 11 307 -11 21 -11 32 0 66 l14
42 133 45 c160 54 319 121 476 201 64 33 116 58 116 56 0 -3 -11 -50 -25 -105
-14 -55 -24 -102 -22 -104 2 -2 73 29 158 70 135 64 324 143 399 167 36 11 70
10 113 -2z m5719 -673 c30 -115 41 -240 35 -396 -7 -166 -24 -277 -67 -444
-29 -115 -102 -322 -119 -339 -4 -4 -35 -14 -67 -22 -112 -26 -341 -139 -431
-212 l-21 -18 65 -80 c90 -112 243 -375 243 -420 0 -66 -266 -587 -453 -886
l-59 -96 -76 18 c-287 69 -772 72 -1291 9 -90 -11 -166 -18 -169 -15 -3 3 24
130 60 282 l64 278 128 33 c70 17 171 37 224 43 l97 12 155 161 c85 89 195
203 245 254 l90 93 -57 52 -56 52 49 220 c62 281 63 352 5 437 -20 30 -22 42
-16 82 4 25 9 48 11 50 2 1 40 22 84 46 345 187 899 567 1175 807 130 113 122
113 152 -1z m-8062 -516 c147 -233 269 -418 334 -503 223 -296 489 -512 779
-633 100 -42 50 -35 -88 13 -281 97 -552 293 -776 563 -82 98 -153 196 -287
397 -67 100 -135 197 -152 217 -31 35 -31 35 -20 98 20 111 17 109 69 51 25
-28 89 -120 141 -203z m-115 -537 c79 -125 231 -294 384 -427 220 -191 368
-283 564 -352 60 -21 76 -30 73 -43 -3 -9 -19 -88 -36 -175 -73 -375 -170
-591 -345 -775 -85 -89 -182 -159 -300 -219 -75 -37 -226 -91 -304 -107 l-35
-7 37 -13 c47 -16 113 -66 274 -207 377 -332 606 -471 928 -564 179 -51 245
-59 505 -59 223 0 258 3 393 28 242 44 486 112 592 164 l30 15 -30 -26 c-148
-127 -369 -277 -525 -356 -280 -141 -501 -185 -915 -185 -244 1 -268 3 -386
28 -373 79 -608 207 -1029 557 -209 174 -352 260 -434 260 -19 0 -25 -6 -30
-32 -3 -18 -48 -276 -101 -573 -52 -297 -97 -550 -100 -563 l-5 -22 -39 20
c-127 64 -461 385 -461 442 0 11 386 2094 406 2190 5 25 37 43 307 177 332
164 348 171 341 144 -2 -10 -58 -304 -124 -653 -66 -349 -122 -646 -125 -658
-6 -23 -4 -24 37 -17 286 46 540 269 668 588 33 83 100 309 100 335 -1 10 -30
35 -68 59 -164 103 -451 404 -579 609 -33 53 -32 53 -180 -2 -375 -138 -832
-423 -954 -593 -33 -45 -39 -62 -39 -103 0 -41 5 -54 29 -79 16 -16 37 -29 45
-29 9 0 16 -4 16 -10 0 -21 -91 -456 -100 -477 -9 -22 -15 -23 -118 -23 -121
0 -199 16 -276 58 -75 41 -147 117 -187 197 -31 64 -34 77 -34 160 1 99 20
159 86 273 44 75 231 262 340 340 297 212 899 492 1514 703 77 26 145 48 150
48 6 1 23 -20 40 -46z m6438 36 c91 -25 148 -111 155 -236 4 -73 -2 -109 -58
-355 -35 -150 -66 -276 -69 -280 -3 -4 -84 -23 -180 -43 -96 -20 -219 -50
-274 -66 -55 -17 -101 -28 -103 -26 -3 2 22 117 54 256 33 138 56 251 53 251
-10 0 -211 -154 -257 -197 l-42 -38 -137 -595 c-76 -327 -140 -600 -142 -606
-2 -6 -43 -19 -91 -28 -48 -10 -181 -38 -295 -63 -115 -25 -210 -43 -212 -41
-3 2 53 252 124 554 71 302 136 593 145 647 19 109 23 278 7 318 -7 19 -6 41
3 75 l12 49 184 62 c102 35 261 90 354 123 92 34 170 59 173 56 3 -2 -4 -45
-16 -94 -12 -49 -21 -95 -21 -101 0 -7 30 21 66 63 126 143 289 267 400 305
67 23 112 26 167 10z m-1552 -565 c45 -23 73 -92 65 -161 -5 -40 -126 -574
-171 -753 l-6 -25 -232 0 c-196 -1 -250 -4 -347 -23 -108 -20 -220 -49 -220
-56 0 -2 -18 -81 -40 -176 -22 -95 -39 -174 -37 -176 2 -2 30 5 63 17 182 63
592 166 743 185 l54 7 -45 -84 c-25 -46 -75 -140 -111 -209 l-66 -125 -123
-34 c-68 -19 -314 -92 -548 -162 -386 -116 -426 -127 -435 -111 -26 44 -96
101 -132 108 -21 4 -43 9 -49 13 -8 4 18 127 87 406 54 220 110 451 124 514
31 134 42 292 27 374 -8 41 -8 72 0 111 l10 54 82 12 c110 16 278 58 535 137
335 101 509 153 549 162 64 15 190 13 223 -5z m-3386 -279 c157 -27 175 -33
217 -73 39 -36 42 -68 18 -173 -29 -128 -26 -122 -53 -95 -27 26 -83 46 -134
46 -86 0 -268 -58 -381 -121 -45 -25 -53 -27 -48 -12 3 10 28 117 56 238 28
121 52 225 54 231 3 9 20 8 64 -2 32 -8 125 -25 207 -39z m-1401 -305 c36 -35
66 -72 66 -82 0 -36 -73 -257 -110 -333 -79 -162 -198 -285 -351 -365 -95 -49
-103 -50 -94 -7 12 57 15 62 71 96 182 110 314 310 359 544 l13 67 -30 38
c-76 94 -163 238 -183 300 -4 13 37 -24 93 -85 55 -59 130 -137 166 -173z
m-1333 -949 c-102 -550 -189 -1003 -193 -1006 -4 -4 -32 31 -62 78 l-55 85
160 858 c88 475 165 864 172 871 16 16 150 111 158 112 3 1 -78 -449 -180
-998z m2742 748 c54 -15 105 -63 118 -112 10 -37 -1 -93 -132 -664 -101 -442
-147 -623 -156 -623 -45 0 -467 193 -494 227 -10 11 -3 57 34 221 76 333 92
475 66 574 -9 32 -9 54 0 85 10 37 22 50 98 103 92 64 281 165 348 186 50 16
71 16 118 3z m5606 -933 c-2 -2 -58 -9 -124 -16 -1498 -141 -3190 -635 -4475
-1307 -834 -436 -1897 -1157 -2587 -1755 -56 -48 -105 -88 -108 -88 -9 0 -5
569 5 678 5 56 15 115 22 129 34 70 402 321 832 567 753 431 1721 856 2576
1130 1177 377 2374 605 3430 655 189 9 435 13 429 7z m-7529 -451 c53 -27 106
-69 310 -248 395 -346 742 -484 1228 -488 l137 -1 -80 -15 c-116 -21 -386 -21
-505 1 -315 56 -536 167 -885 447 -168 135 -246 186 -292 195 l-35 7 6 48 c4
27 9 56 12 64 9 22 48 18 104 -10z m6555 15 c-16 -5 -94 -23 -173 -40 -317
-69 -718 -188 -1117 -330 -253 -90 -487 -181 -482 -186 2 -2 107 0 233 6 299
13 747 13 899 -1 131 -11 338 -41 425 -61 55 -12 55 -12 -100 -20 -582 -29
-1158 -143 -1669 -331 l-86 -32 390 -12 c470 -14 771 -42 1105 -105 126 -23
125 -31 -5 -42 -409 -33 -1737 -238 -1685 -259 26 -11 481 -76 850 -122 337
-42 546 -76 578 -94 8 -5 -24 -11 -79 -15 -456 -34 -1600 -188 -1539 -207 14
-5 234 -49 490 -99 256 -50 509 -101 563 -113 l99 -23 -149 -12 c-185 -15
-370 -42 -633 -92 -211 -41 -560 -117 -568 -124 -2 -3 16 -10 39 -16 167 -43
842 -289 814 -296 -6 -1 -71 -8 -145 -14 -74 -6 -193 -20 -265 -31 -237 -36
-513 -97 -442 -99 67 -1 444 -155 477 -195 9 -10 -12 -33 -92 -103 -235 -205
-499 -412 -525 -412 -27 0 -366 179 -549 290 -96 58 -231 145 -300 194 -262
187 -610 498 -922 828 l-173 183 76 72 c408 383 1181 835 2040 1193 926 386
1904 665 2515 719 123 11 142 11 105 1z"/>
<path d="M7260 11208 l0 -55 68 -6 c128 -13 122 -15 122 48 l0 55 -34 0 c-18
0 -61 3 -95 6 l-61 7 0 -55z"/>
<path d="M3415 10954 c-33 -8 -65 -16 -71 -18 -7 -3 0 -54 22 -156 18 -83 34
-153 36 -155 5 -5 167 30 175 38 5 6 -35 227 -53 290 -6 20 -26 20 -109 1z"/>
<path d="M9820 10856 c-6 -22 -13 -46 -15 -52 -3 -10 139 -54 174 -54 11 0 34
75 28 93 -2 6 -42 21 -90 33 l-87 22 -10 -42z"/>
<path d="M5260 10014 c-12 -4 -14 -21 -11 -95 11 -305 -122 -599 -382 -845
-87 -83 -89 -85 -32 -45 226 158 385 351 456 551 38 107 51 199 47 325 l-3
110 -30 2 c-16 0 -37 -1 -45 -3z"/>
<path d="M3150 9956 c-22 -8 -38 -22 -43 -37 -5 -13 -66 -318 -136 -676 l-127
-653 37 0 c21 0 40 4 43 8 3 5 64 308 136 673 72 365 133 672 136 682 6 20 2
20 -46 3z"/>
<path d="M2003 9291 c-289 -153 -421 -285 -440 -439 -7 -58 8 -110 44 -153 24
-28 90 -69 111 -69 5 0 12 19 16 42 6 38 4 44 -23 65 -16 13 -37 43 -47 68
-53 140 72 308 355 479 91 54 109 66 100 66 -2 0 -54 -27 -116 -59z"/>
<path d="M3275 8293 c-80 -10 -81 -11 -31 -44 93 -62 185 -183 421 -548 265
-412 342 -524 469 -681 200 -247 415 -434 611 -532 68 -34 206 -88 226 -88 5
0 -48 29 -118 65 -156 79 -302 187 -442 326 -200 200 -356 418 -650 905 -90
149 -193 313 -230 365 -64 90 -202 241 -218 238 -4 -1 -21 -4 -38 -6z"/>
<path d="M2726 7992 c-11 -40 -139 -833 -135 -837 3 -2 21 0 41 5 34 10 36 13
46 68 50 288 126 762 122 765 -3 2 -19 7 -37 10 -25 5 -33 3 -37 -11z"/>
<path d="M8835 9774 c32 -76 33 -69 -79 -543 -59 -249 -105 -455 -103 -457 3
-3 22 2 44 11 l39 16 102 432 c57 237 103 444 102 459 0 35 -46 85 -84 94 -26
6 -28 5 -21 -12z"/>
<path d="M9403 8879 c38 -57 35 -72 -137 -814 -91 -390 -163 -711 -162 -712 2
-2 20 3 42 10 l39 14 162 694 c90 382 163 710 163 730 0 43 -39 85 -89 95 -33
7 -33 7 -18 -17z"/>
<path d="M8598 8429 c-21 -11 -38 -23 -38 -27 0 -4 -69 -307 -154 -672 -85
-366 -153 -667 -151 -669 2 -2 21 3 42 12 l38 15 157 668 c86 368 157 675 158
682 0 16 -8 15 -52 -9z"/>
<path d="M10389 9694 c28 -36 27 -88 -5 -230 -14 -64 -24 -118 -21 -120 3 -3
21 -2 41 1 40 8 37 1 77 180 21 96 21 102 5 136 -18 38 -51 59 -92 59 l-25 0
20 -26z"/>
<path d="M11084 9412 c-12 -7 -87 -277 -82 -293 2 -5 18 0 36 11 41 25 74 93
100 208 l19 82 -31 0 c-17 0 -36 -4 -42 -8z"/>
<path d="M10283 8928 c-9 -12 -233 -961 -233 -988 0 -9 10 -10 38 -5 20 4 38
8 39 8 2 2 233 985 233 992 0 11 -68 4 -77 -7z"/>
<path d="M6445 9408 c-6 -19 -75 -317 -75 -326 0 -4 18 -8 39 -9 l39 -2 31
130 c33 141 38 188 19 207 -16 16 -47 15 -53 0z"/>
<path d="M7869 8981 c12 -22 21 -59 21 -84 0 -60 -427 -1861 -443 -1866 -7 -2
-41 -32 -75 -65 -51 -48 -74 -82 -113 -161 -27 -55 -49 -106 -49 -112 0 -17
55 -17 67 0 5 6 20 39 33 72 47 117 119 217 206 286 31 24 33 30 249 934 210
880 217 911 204 950 -14 38 -45 64 -97 80 l-23 7 20 -41z"/>
<path d="M7365 8656 c-108 -40 -165 -65 -165 -71 0 -2 -45 -196 -100 -431 -55
-235 -100 -430 -100 -434 0 -13 253 65 262 81 7 12 208 865 208 883 0 10 -9 7
-105 -28z"/>
<path d="M7069 8543 l-35 -14 -101 -432 c-55 -238 -99 -434 -97 -436 4 -4 64
18 76 28 6 5 208 845 208 865 0 8 -9 6 -51 -11z"/>
<path d="M6395 7074 c24 -36 29 -58 25 -119 -1 -16 -122 -547 -269 -1180 -147
-632 -267 -1151 -265 -1153 7 -10 83 53 87 71 66 270 537 2299 537 2311 0 49
-64 106 -119 106 -20 0 -20 -1 4 -36z"/>
<path d="M5446 5896 l-28 -11 60 -52 60 -52 6 31 c7 33 -1 48 -43 77 -22 16
-31 17 -55 7z"/>
<path d="M5161 5240 c-69 -291 -122 -532 -120 -534 6 -6 225 -106 231 -106 3
0 8 11 10 24 5 22 -3 28 -82 64 l-87 40 119 499 119 498 -26 23 c-14 12 -29
22 -33 22 -4 0 -63 -238 -131 -530z"/>
<path d="M5311 5255 c-57 -239 -104 -442 -105 -451 -1 -12 33 -32 118 -71 65
-30 119 -53 121 -51 2 2 46 185 99 408 l95 405 -22 24 c-31 34 -188 171 -196
171 -3 0 -53 -196 -110 -435z"/>
<path d="M6210 8708 c0 -2 9 -21 20 -43 11 -22 20 -51 20 -65 0 -14 -62 -292
-138 -617 -76 -326 -136 -593 -134 -593 3 0 22 5 43 11 34 11 39 16 48 58 5
25 66 286 135 580 70 294 126 549 126 567 0 43 -43 92 -87 100 -18 4 -33 5
-33 2z"/>
<path d="M5400 8588 c12 -21 20 -50 20 -78 -1 -25 -54 -295 -119 -600 -65
-305 -117 -556 -116 -557 1 -2 20 4 43 13 36 15 42 21 51 63 49 208 221 1042
221 1068 0 73 -38 123 -94 123 l-26 0 20 -32z"/>
<path d="M4674 8503 c-25 -12 -33 -25 -43 -66 -6 -27 -10 -52 -8 -53 2 -2 22
4 45 14 37 15 42 22 52 65 5 26 10 50 10 52 0 9 -25 4 -56 -12z"/>
<path d="M4588 8119 c-21 -11 -38 -22 -38 -24 0 -3 -34 -138 -76 -301 l-75
-295 30 -40 30 -41 10 38 c42 165 171 675 171 679 0 9 -14 5 -52 -16z"/>
<path d="M11088 7905 l-36 -34 15 -48 c12 -35 17 -106 20 -268 5 -209 0 -276
-32 -495 -8 -60 23 41 50 160 38 165 56 314 58 455 1 120 -16 265 -32 265 -3
0 -23 -16 -43 -35z"/>
<path d="M10655 7280 c-4 -6 -50 -43 -103 -84 l-97 -73 -23 -104 c-12 -57 -31
-141 -41 -187 l-19 -83 31 20 c165 100 261 155 324 183 l75 33 -4 80 c-5 86
-28 146 -76 198 -26 28 -56 35 -67 17z"/>
<path d="M10329 7117 l-36 -21 -45 -193 c-25 -106 -42 -193 -39 -193 3 0 24
10 46 23 l40 22 42 180 c23 99 42 186 43 193 0 16 -7 14 -51 -11z"/>
<path d="M10414 6549 c-16 -13 -31 -24 -33 -25 -1 -2 24 -40 57 -86 75 -103
222 -345 222 -365 0 -30 -170 -442 -283 -685 -25 -54 -44 -98 -42 -98 6 0 155
262 222 390 70 132 171 359 179 398 4 21 -12 57 -66 151 -71 124 -160 262
-203 314 l-23 28 -30 -22z"/>
<path d="M9848 5989 c-147 -155 -208 -222 -208 -230 0 -2 26 -5 58 -7 82 -4
153 -18 293 -57 142 -40 198 -44 223 -16 27 29 31 92 11 153 -19 60 -102 187
-173 267 l-48 53 -156 -163z"/>
<path d="M9260 5669 c-104 -10 -247 -39 -264 -53 -8 -6 -17 -26 -21 -45 -6
-30 -5 -33 11 -27 43 17 191 47 299 61 150 19 452 19 619 0 71 -8 131 -13 133
-11 4 4 -140 39 -227 55 -155 29 -387 37 -550 20z"/>
<path d="M2883 6910 c-13 -5 -23 -12 -23 -16 0 -10 104 -137 172 -209 125
-134 337 -304 477 -383 68 -38 181 -91 147 -69 -241 157 -528 421 -668 612
-53 74 -65 81 -105 65z"/>
<path d="M1742 6230 c-286 -152 -414 -289 -414 -444 0 -92 35 -147 114 -180
41 -18 43 -16 53 35 6 31 3 38 -20 53 -41 27 -68 98 -60 154 20 133 130 245
411 419 44 27 3 9 -84 -37z"/>
<path d="M2639 6172 l-34 -17 -111 -590 c-61 -324 -114 -607 -118 -627 -7 -38
-7 -38 27 -38 32 0 35 3 42 38 4 20 58 309 121 641 63 332 113 605 111 607 -2
2 -19 -4 -38 -14z"/>
<path d="M3855 6117 c-129 -566 -174 -710 -272 -856 l-44 -66 46 45 c101 97
190 263 249 465 50 170 100 396 90 404 -5 4 -21 12 -36 19 -25 10 -28 9 -33
-11z"/>
<path d="M2852 4784 l-34 -15 47 -24 c65 -35 121 -79 270 -214 294 -266 446
-378 646 -476 195 -96 366 -136 573 -134 76 1 112 4 96 9 -14 4 -46 8 -71 9
-140 3 -361 66 -532 152 -200 100 -351 214 -642 484 -228 210 -280 242 -353
209z"/>
<path d="M2308 4503 c-20 -5 -14 25 -119 -556 l-84 -458 25 -19 c14 -10 28
-16 31 -12 4 5 186 979 193 1036 1 11 -22 16 -46 9z"/>
<path d="M9368 6911 c68 -44 92 -129 72 -256 -6 -38 -31 -159 -56 -269 -25
-109 -43 -200 -41 -203 3 -2 20 -1 39 2 l35 7 49 211 c41 179 49 228 49 312 0
82 -4 106 -20 134 -28 47 -64 72 -116 78 l-44 5 33 -21z"/>
<path d="M8709 6693 c-31 -12 -39 -21 -48 -58 -17 -68 -14 -72 27 -25 75 88
80 107 21 83z"/>
<path d="M8619 6207 c-9 -7 -32 -26 -52 -44 l-37 -32 -114 -512 -113 -511 35
5 c19 4 37 8 40 11 3 3 60 243 128 533 68 291 125 536 128 546 5 20 5 20 -15
4z"/>
<path d="M7750 6385 c0 -4 11 -20 25 -37 19 -22 25 -41 25 -76 0 -26 -32 -188
-72 -359 -39 -172 -70 -315 -67 -317 2 -2 18 -7 34 -10 l31 -7 84 357 c90 387
91 393 35 425 -33 19 -95 34 -95 24z"/>
<path d="M7252 6056 c-68 -23 -127 -48 -132 -56 -8 -16 -70 -274 -70 -294 0
-7 50 5 138 33 75 25 139 46 141 48 5 4 70 274 71 296 0 23 -6 22 -148 -27z"/>
<path d="M6997 5983 c-17 -3 -32 -13 -37 -26 -14 -33 -72 -296 -68 -306 1 -5
19 -3 39 5 l36 15 32 142 c18 78 35 150 37 160 3 9 2 16 -3 16 -4 -1 -21 -4
-36 -6z"/>
<path d="M6862 5403 c-13 -3 -27 -14 -32 -26 -13 -29 -90 -361 -85 -365 2 -2
19 1 38 7 l35 12 42 177 c23 97 43 183 45 190 4 12 -1 13 -43 5z"/>
<path d="M7579 5183 c-29 -5 -82 -76 -158 -215 -45 -82 -44 -86 21 -66 36 10
42 19 88 108 27 54 58 113 69 131 22 36 26 50 14 48 -5 -1 -20 -4 -34 -6z"/>
<path d="M4605 6049 c-8 -24 -26 -112 -23 -114 2 -1 19 -5 40 -9 l36 -7 10 48
c10 46 2 83 -18 83 -4 0 -15 3 -24 6 -9 3 -18 0 -21 -7z"/>
<path d="M4410 5572 c0 -5 11 -19 25 -32 39 -36 48 -86 31 -166 -14 -63 -198
-864 -212 -918 -5 -20 0 -25 27 -35 18 -6 34 -10 35 -8 6 5 244 1044 244 1062
0 31 -29 72 -64 89 -36 17 -86 22 -86 8z"/>
<path d="M6895 3646 c-915 -348 -1691 -780 -2252 -1253 l-105 -88 58 -51 57
-52 131 110 c590 495 1406 994 2206 1350 74 33 137 62 139 64 12 12 -33 -4
-234 -80z"/>
<path d="M6235 3106 c-329 -173 -653 -389 -900 -601 -115 -98 -265 -242 -265
-254 0 -5 39 -63 86 -128 267 -366 445 -559 741 -808 170 -142 432 -340 440
-332 14 14 43 1003 43 1464 0 371 -9 723 -19 723 -3 0 -60 -29 -126 -64z"/>
</g>
</svg>
