<?xml version="1.0" standalone="no"?>
<!DOCTYPE svg PUBLIC "-//W3C//DTD SVG 20010904//EN"
 "http://www.w3.org/TR/2001/REC-SVG-20010904/DTD/svg10.dtd">
<svg version="1.0" xmlns="http://www.w3.org/2000/svg"
 width="413.000000pt" height="241.000000pt" viewBox="0 0 413.000000 241.000000"
 preserveAspectRatio="xMidYMid meet">

<g transform="translate(0.000000,241.000000) scale(0.100000,-0.100000)"
fill="#000000" stroke="none">
<path d="M1710 2056 c-60 -32 -608 -266 -623 -266 -9 0 -17 -4 -17 -8 0 -11
-100 -52 -126 -52 -12 0 -27 -7 -34 -15 -16 -19 -96 -55 -133 -60 -25 -4 -26
-2 -16 18 6 12 19 31 27 42 16 19 16 19 -2 3 -10 -9 -28 -33 -40 -53 -19 -34
-37 -44 -181 -107 -88 -38 -171 -70 -183 -72 -13 -2 -27 -8 -31 -14 -3 -6 -24
-15 -46 -20 -22 -5 -64 -26 -94 -46 -29 -20 -57 -36 -62 -36 -5 0 -9 -4 -9 -8
0 -12 160 35 179 52 36 31 275 140 429 196 34 12 65 27 68 31 4 8 69 39 80 39
9 0 27 -49 46 -123 11 -45 24 -89 29 -98 8 -16 71 -39 107 -39 12 0 26 -10 33
-22 17 -33 70 -88 102 -104 21 -12 27 -22 27 -49 0 -37 -18 -48 -27 -16 -3 12
-11 17 -20 14 -8 -3 -30 10 -54 33 l-39 38 0 -38 c0 -20 5 -46 10 -56 10 -18
8 -19 -22 -13 -59 11 -84 32 -57 48 5 4 19 -1 30 -11 10 -9 22 -15 25 -11 13
12 -44 38 -72 32 -28 -6 -28 -6 -10 9 11 9 16 16 12 16 -5 0 -3 7 4 15 15 19
7 19 -28 1 -15 -7 -40 -16 -57 -20 l-30 -6 33 30 c39 37 26 39 -24 5 -21 -14
-42 -24 -48 -22 -20 7 -17 27 6 37 20 9 18 10 -12 5 l-35 -5 24 19 24 19 -49
-8 c-27 -5 -58 -12 -69 -16 -18 -6 -17 -4 5 20 18 20 20 25 7 20 -14 -5 -16
-2 -10 12 6 16 3 16 -21 -4 -29 -22 -76 -30 -76 -12 0 6 6 10 14 10 8 0 18 5
22 12 12 20 -58 0 -83 -24 -34 -31 -28 -15 10 29 31 37 31 37 5 20 -27 -17
-37 -12 -21 9 5 5 -9 -10 -30 -33 -39 -44 -67 -55 -67 -28 0 8 4 15 8 15 5 0
17 7 28 15 17 14 16 14 -16 2 -21 -8 -41 -25 -49 -42 l-14 -29 -18 22 c-17 22
-36 31 -24 13 3 -5 1 -13 -5 -16 -8 -5 -7 -11 1 -21 12 -15 4 -18 -33 -15 -9
1 -19 -3 -23 -9 -4 -6 4 -10 18 -10 22 0 16 -9 -48 -75 -41 -41 -78 -75 -84
-75 -5 0 -21 -11 -35 -24 -19 -17 -26 -34 -26 -60 0 -39 9 -43 54 -26 20 7 26
6 26 -5 0 -7 -9 -17 -20 -20 -11 -3 -20 -13 -20 -20 0 -20 43 -29 68 -16 12 6
36 11 55 11 19 0 49 8 68 17 20 10 59 17 100 17 70 1 74 15 4 16 l-40 1 35 19
c34 18 36 18 72 -2 20 -12 35 -25 33 -29 -3 -4 9 -11 27 -14 21 -5 55 -30 95
-70 55 -56 63 -68 63 -102 0 -21 13 -65 30 -101 21 -44 26 -64 17 -67 -6 -2
-54 -8 -104 -13 -51 -5 -100 -15 -108 -22 -10 -8 -15 -30 -15 -61 0 -56 14
-69 97 -94 28 -8 73 -33 101 -55 l50 -40 97 2 c82 1 99 -1 107 -15 5 -9 21
-17 36 -17 41 0 73 -11 69 -24 -3 -6 -10 -10 -16 -8 -18 3 -13 -23 8 -42 10
-9 31 -18 47 -19 23 -2 30 3 32 21 4 27 22 28 55 2 33 -26 59 -25 86 4 l22 23
-33 8 c-45 10 -9 19 40 10 l35 -7 -29 -23 c-16 -14 -43 -31 -59 -39 -17 -8
-41 -26 -54 -39 -12 -14 -43 -38 -67 -53 -26 -17 -43 -35 -42 -43 4 -21 46
-41 87 -41 30 0 33 2 27 23 -8 32 19 67 51 67 19 0 44 19 92 69 l67 70 65 3
c62 3 64 4 67 32 2 16 -1 49 -8 74 -6 25 -7 49 -3 53 4 4 54 11 110 15 56 4
100 10 98 15 -7 10 -177 5 -194 -5 -9 -6 -12 -3 -9 10 2 15 14 20 56 22 51 3
52 4 52 35 l0 32 20 -31 c19 -29 25 -32 98 -38 42 -4 88 -9 102 -11 106 -19
149 -16 64 4 l-39 9 50 1 c29 1 66 9 88 21 l37 20 0 -20 c0 -18 7 -20 78 -22
42 -1 96 -2 119 -3 23 -1 42 1 41 4 -3 31 4 41 31 41 21 0 32 -6 36 -20 5 -17
16 -20 63 -22 31 -1 68 -3 82 -4 14 -1 40 -2 59 -3 25 -1 32 -5 27 -16 -4 -12
5 -15 57 -14 l62 1 -44 9 c-46 9 -66 19 -38 19 10 0 17 5 17 10 0 9 -19 12
-104 15 -16 1 -31 6 -33 12 -2 6 6 8 22 6 15 -3 25 -1 25 6 0 6 -13 11 -30 11
-16 0 -30 5 -30 11 0 8 22 9 68 6 51 -5 61 -4 42 4 -14 6 -46 11 -72 12 -45 2
-48 4 -63 40 -19 49 -19 49 11 35 23 -11 24 -13 7 -19 -13 -5 -7 -8 19 -8 20
-1 39 -7 41 -13 4 -10 6 -10 6 -1 1 7 8 10 16 7 9 -4 15 0 15 8 0 10 -9 13
-30 10 -18 -3 -30 0 -30 7 0 8 48 10 170 7 141 -3 170 -2 170 10 0 8 -1 14 -2
15 -2 0 -73 7 -158 14 -220 19 -250 37 -50 29 110 -4 151 -2 140 5 -17 12 -10
14 40 11 37 -2 35 12 -3 16 -44 5 -253 17 -272 15 -11 -1 -45 2 -75 6 -47 7
-37 9 80 13 l135 5 -75 14 c-154 28 -150 26 -150 76 0 38 3 45 20 45 16 0 20
-7 20 -33 0 -62 12 -68 130 -65 l105 3 6 55 c3 30 6 45 7 32 1 -12 9 -25 17
-28 8 -4 15 -12 15 -20 0 -8 7 -14 15 -14 8 0 15 -4 15 -9 0 -18 55 -37 105
-36 52 1 105 18 105 34 0 5 8 11 19 14 10 2 24 18 32 36 20 44 29 38 29 -19
l0 -50 60 0 60 0 0 50 c0 43 3 50 19 50 14 0 21 -9 26 -32 14 -70 11 -68 81
-68 64 0 65 0 53 23 -11 21 -11 21 7 5 30 -26 97 -40 144 -29 59 13 88 36 99
78 9 31 7 44 -8 75 -10 21 -15 38 -10 38 17 0 9 67 -11 93 -42 54 -162 57
-216 6 l-24 -22 -25 23 c-19 18 -41 25 -107 31 -46 4 -98 8 -115 8 -33 1 -33
1 -33 -49 0 -29 -5 -50 -11 -50 -5 0 -7 5 -3 12 4 6 0 16 -8 22 -8 6 -17 18
-20 26 -7 19 -95 66 -105 57 -3 -4 -12 -2 -19 4 -7 6 -19 7 -26 3 -7 -5 -20
-7 -30 -6 -9 2 -19 -2 -22 -7 -4 -6 -13 -8 -21 -5 -8 4 -18 -1 -21 -10 -3 -9
-11 -16 -17 -16 -6 0 -21 -12 -34 -27 -16 -21 -22 -24 -23 -12 0 9 7 22 15 29
8 7 15 19 15 26 0 14 -24 18 -90 17 -19 -1 -26 1 -16 4 15 4 16 7 5 14 -9 6 4
9 39 9 58 0 69 15 22 31 -30 11 -32 32 -3 27 8 -2 19 7 24 20 6 16 5 22 -6 22
-8 0 -15 5 -15 10 0 7 6 7 19 0 14 -7 29 -6 54 5 40 16 57 35 32 35 -9 0 -13
5 -10 10 7 11 -41 33 -59 27 -6 -2 -23 0 -38 4 -15 4 -43 3 -62 -3 -19 -6 -43
-7 -53 -3 -16 6 -16 8 5 16 13 5 28 7 33 3 5 -3 9 -1 9 4 0 11 -72 22 -141 22
-48 0 -49 1 -49 30 l0 30 -136 0 c-109 0 -157 5 -247 26 -238 54 -358 66 -625
60 -135 -3 -247 -7 -249 -10 -3 -3 23 -19 57 -36 94 -48 65 -46 -34 1 -85 41
-89 42 -138 31 -54 -13 -70 -9 -62 13 4 8 -6 29 -20 46 -38 44 -35 62 9 53 23
-4 35 -2 35 5 0 6 -15 12 -32 12 -55 2 -61 4 -65 16 -7 20 27 42 138 90 57 24
149 64 204 88 55 24 146 63 203 88 56 24 105 47 109 51 12 11 -32 5 -57 -8z
m-620 -302 c0 -3 -14 -23 -31 -44 -27 -33 -30 -44 -25 -75 4 -20 14 -39 22
-42 7 -3 14 -11 14 -18 0 -7 7 -16 16 -19 15 -6 15 -8 -1 -26 -27 -29 -41 -25
-74 23 -29 43 -34 62 -32 129 1 34 5 39 44 57 43 20 67 25 67 15z m658 -164
c6 0 12 -4 12 -10 0 -16 -46 -11 -61 7 -13 15 -11 16 11 10 14 -4 31 -7 38 -7z
m-14 -91 c50 -23 58 -112 13 -144 -12 -8 -43 -15 -69 -15 l-47 0 -3 -42 c-3
-40 -5 -43 -35 -46 l-33 -3 0 130 0 131 75 0 c41 0 85 -5 99 -11z m146 -31 c2
-153 7 -168 57 -168 33 0 43 29 43 125 l0 86 32 -3 32 -3 -3 -100 c-1 -65 -7
-108 -17 -122 -20 -31 -83 -47 -134 -33 -57 15 -70 46 -70 165 l0 95 30 0 c29
0 30 -2 30 -42z m333 -40 l47 -83 0 78 0 77 30 0 30 0 0 -125 0 -125 -33 0
c-31 0 -36 5 -78 78 l-44 77 -3 -77 -3 -78 -29 0 -30 0 0 130 0 130 33 0 c31
0 36 -5 80 -82z m377 47 c0 -24 -2 -25 -70 -25 -68 0 -70 -1 -70 -25 0 -24 3
-25 60 -25 57 0 60 -1 60 -25 0 -24 -3 -25 -60 -25 -57 0 -60 -1 -60 -25 0
-24 2 -25 70 -25 68 0 70 -1 70 -25 l0 -25 -105 0 -105 0 0 125 0 125 105 0
105 0 0 -25z m-650 -7 c0 -7 -5 -20 -10 -28 -8 -12 -10 -9 -10 13 0 15 5 27
10 27 6 0 10 -6 10 -12z m-424 -73 c18 -14 17 -14 -11 -6 -57 17 -60 19 -34
20 14 1 34 -6 45 -14z m-6 -75 c14 -11 20 -20 14 -20 -7 0 -22 9 -35 20 -31
25 -12 26 21 0z m282 -24 c13 -19 9 -28 -9 -21 -10 4 -43 11 -73 15 l-55 7 53
2 c32 0 51 5 47 11 -8 13 28 0 37 -14z m-496 -1 c-11 -8 -27 -15 -35 -14 -9 0
-2 7 14 14 39 18 45 18 21 0z m-521 -10 c74 -16 142 -47 200 -91 53 -40 36
-40 -23 0 -61 41 -143 73 -232 91 -36 7 -54 13 -40 14 14 0 57 -6 95 -14z
m385 -67 c0 -5 -6 -8 -14 -8 -18 0 -21 6 -30 45 l-6 30 25 -30 c14 -16 25 -33
25 -37z m337 50 c21 -8 33 -19 33 -30 0 -16 10 -18 98 -18 66 -1 92 -4 81 -10
-9 -5 -20 -27 -24 -47 l-8 -38 -11 40 -12 40 -57 1 c-31 1 -59 -2 -62 -6 -2
-4 -23 10 -45 31 -55 52 -53 59 7 37z m536 -56 c-29 -3 -34 -8 -43 -43 -17
-63 -72 -201 -77 -195 -6 6 7 64 37 167 16 51 26 68 46 77 14 7 31 9 37 6 7
-4 9 -4 5 1 -4 4 -2 15 4 23 11 12 13 11 18 -9 5 -21 2 -24 -27 -27z m-170 11
c25 -8 21 -23 -8 -23 -15 0 -29 8 -36 22 -10 19 -9 20 7 13 11 -4 27 -10 37
-12z m352 8 c-3 -5 3 -11 12 -14 10 -2 -7 -8 -37 -12 -49 -7 -52 -9 -29 -17
31 -10 39 -39 38 -137 l0 -66 -33 90 c-54 146 -54 135 -7 135 30 0 41 4 41 15
0 8 5 15 11 15 5 0 8 -4 4 -9z m500 -1 c-4 -6 -12 -10 -20 -10 -7 0 -16 -6
-18 -12 -4 -10 -8 -10 -15 1 -5 7 -15 10 -21 7 -6 -4 -11 -1 -11 6 0 8 16 14
45 15 27 1 43 -2 40 -7z m-2317 -22 c-3 -7 -14 -14 -26 -16 -16 -3 -20 1 -16
12 7 19 48 22 42 4z m2337 2 c3 -5 1 -10 -4 -10 -6 0 -11 5 -11 10 0 6 2 10 4
10 3 0 8 -4 11 -10z m-255 -26 c0 -24 -1 -24 -25 -8 -14 9 -40 20 -58 24 -27
6 -22 8 26 8 54 0 57 -1 57 -24z m127 20 c-3 -3 -12 -4 -19 -1 -8 3 -5 6 6 6
11 1 17 -2 13 -5z m-1419 -16 c7 -10 2 -22 -18 -46 l-27 -33 -37 37 c-20 20
-36 38 -36 41 0 6 37 -1 64 -12 13 -6 17 -5 13 2 -4 6 -1 14 5 16 21 8 25 8
36 -5z m1852 -13 c0 -8 5 -17 11 -20 6 -4 10 -1 8 6 -3 25 1 39 10 39 5 0 11
-12 13 -27 l4 -28 12 28 c16 37 25 34 17 -4 -5 -22 -4 -29 4 -25 6 4 9 12 6
17 -4 5 -4 9 -1 9 2 0 12 3 20 6 14 5 15 2 6 -20 -6 -17 -6 -26 0 -26 6 0 10
5 10 10 0 6 7 10 17 10 15 0 15 -1 0 -18 -23 -25 -21 -35 3 -20 26 16 40 0 16
-18 -19 -13 -19 -14 8 -14 15 0 25 -4 21 -10 -3 -5 -15 -10 -26 -10 -11 0 -17
-5 -14 -10 4 -6 11 -8 16 -5 5 4 16 2 25 -3 15 -8 15 -10 -1 -16 -9 -3 -21 -4
-25 -1 -5 3 -11 1 -15 -5 -3 -5 3 -10 14 -10 35 0 34 -20 -1 -21 -30 0 -31 -1
-10 -9 24 -10 30 -30 9 -30 -7 0 -18 5 -25 12 -18 18 -14 -3 5 -24 20 -22 11
-35 -10 -13 -22 22 -28 19 -21 -12 l5 -28 -22 25 -22 25 7 -27 c3 -15 2 -29
-4 -33 -5 -3 -13 7 -17 22 -7 27 -7 27 -12 5 -7 -28 -27 -29 -24 -1 2 10 -2
19 -7 19 -6 0 -10 -9 -10 -19 0 -11 -5 -23 -12 -27 -8 -5 -9 2 -5 24 4 19 2
32 -3 32 -6 0 -10 -6 -10 -14 0 -8 -7 -16 -15 -20 -21 -8 -19 11 7 47 l21 32
-31 -29 c-41 -38 -54 -25 -16 16 l29 31 -32 -21 c-36 -26 -55 -28 -47 -7 4 8
12 15 20 15 8 0 14 5 14 10 0 6 -11 8 -25 4 -15 -4 -25 -2 -25 5 0 6 9 11 20
11 11 0 20 5 20 11 0 5 -4 8 -9 5 -13 -8 -42 4 -35 15 3 5 15 9 26 9 12 0 18
3 14 8 -4 4 -12 7 -17 7 -5 0 -8 5 -7 10 0 6 10 8 22 6 19 -3 19 -1 -4 18 -26
21 -13 28 21 11 13 -8 19 -7 19 0 0 6 -7 13 -15 16 -8 4 -15 13 -15 22 0 13 2
13 18 -1 25 -23 35 -21 20 3 -19 29 1 38 23 10 l20 -25 -6 34 c-5 23 -4 31 4
27 6 -4 11 -13 11 -21z m-1597 -160 c80 -71 143 -132 141 -134 -7 -8 -344 286
-344 301 0 13 34 -15 203 -167z m211 67 c11 -51 21 -91 23 -89 1 2 11 44 21
93 18 88 18 89 49 92 l31 3 17 -78 c26 -124 30 -128 45 -43 19 110 24 120 60
120 16 0 30 -2 30 -6 0 -3 -11 -44 -24 -92 -14 -48 -29 -106 -36 -129 -10 -40
-13 -43 -44 -43 -39 0 -39 1 -57 98 -7 39 -16 72 -20 72 -3 0 -12 -33 -19 -72
-17 -98 -17 -98 -56 -98 -30 0 -34 4 -43 38 -6 20 -22 78 -36 127 -13 50 -25
94 -25 98 0 5 15 7 33 5 l32 -3 19 -93z m488 -28 c26 -65 47 -125 48 -131 0
-8 -13 -13 -33 -13 -24 0 -35 6 -42 23 -8 17 -20 23 -52 25 -38 3 -44 0 -55
-22 -9 -20 -18 -26 -45 -26 -18 0 -33 2 -33 4 0 5 67 189 83 228 12 29 18 33
48 32 34 -1 34 -1 81 -120z m-592 86 c0 -10 -4 -22 -10 -25 -6 -4 -10 7 -10
25 0 18 4 29 10 25 6 -3 10 -15 10 -25z m884 9 c30 -23 34 -63 11 -96 -13 -19
-13 -24 0 -50 8 -15 15 -44 15 -64 0 -34 -2 -35 -29 -31 -25 3 -31 10 -40 48
-11 43 -12 44 -51 44 l-40 0 0 -45 0 -45 -41 0 -42 0 6 128 c4 70 7 128 7 130
0 1 40 2 89 2 74 0 92 -3 115 -21z m280 0 c30 -24 35 -72 10 -100 -14 -15 -14
-20 -1 -41 9 -12 17 -41 19 -63 3 -38 2 -40 -26 -40 -26 0 -30 4 -40 45 -11
44 -12 45 -53 48 l-43 3 0 -50 0 -51 -35 0 -35 0 0 135 0 135 89 0 c74 0 92
-3 115 -21z m144 -111 l-3 -133 -30 0 -30 0 -3 133 -3 132 36 0 36 0 -3 -132z
m628 98 c29 -33 30 -56 5 -87 -17 -21 -18 -26 -5 -40 8 -8 17 -37 20 -62 l7
-47 -31 0 c-31 0 -42 14 -42 55 0 27 -26 45 -63 45 -26 0 -37 -21 -37 -72 0
-25 -4 -28 -35 -28 l-35 0 0 53 c0 28 3 90 7 136 l6 83 90 -4 c83 -4 92 -6
113 -32z m261 0 c13 -15 23 -31 23 -37 0 -15 -59 -10 -85 7 -27 17 -65 11 -65
-11 0 -9 22 -21 57 -31 74 -22 107 -54 99 -97 -3 -18 -15 -40 -27 -49 -61 -51
-189 -22 -201 47 -5 30 45 29 73 -1 26 -27 61 -31 79 -9 18 22 -1 40 -56 54
-50 13 -94 50 -94 78 0 25 27 62 54 74 11 5 43 7 70 5 39 -3 55 -9 73 -30z
m-2195 -68 c-7 -7 -12 -8 -12 -2 0 14 12 26 19 19 2 -3 -1 -11 -7 -17z m-507
-14 c-36 -27 -119 -45 -230 -49 -128 -5 -98 7 62 25 57 6 120 17 140 25 49 18
52 18 28 -1z m-606 -11 c22 -6 20 -8 -20 -23 -24 -10 -47 -16 -51 -13 -15 8
-8 24 15 33 28 11 27 11 56 3z m2038 -25 c-3 -7 -5 -2 -5 12 0 14 2 19 5 13 2
-7 2 -19 0 -25z m1069 -5 c-3 -3 -13 -3 -22 1 -13 5 -14 9 -3 22 11 14 13 14
22 -1 5 -9 6 -19 3 -22z m-776 6 c0 -11 -4 -17 -10 -14 -5 3 -10 13 -10 21 0
8 5 14 10 14 6 0 10 -9 10 -21z m-1583 -56 c-3 -10 -5 -2 -5 17 0 19 2 27 5
18 2 -10 2 -26 0 -35z m1172 -1 c12 -23 3 -62 -14 -62 -12 0 -27 58 -18 73 7
13 22 8 32 -11z m-296 -49 c-7 -2 -19 -2 -25 0 -7 3 -2 5 12 5 14 0 19 -2 13
-5z m-876 -25 c-3 -8 -6 -5 -6 6 -1 11 2 17 5 13 3 -3 4 -12 1 -19z m1203 -39
c0 -11 -3 -11 -34 1 -37 14 -33 32 4 19 17 -6 30 -15 30 -20z m-760 -139 l0
-130 -35 0 -35 0 0 130 0 130 35 0 35 0 0 -130z m160 47 l45 -82 3 83 3 82 36
0 c34 0 35 -1 29 -31 -3 -17 -6 -78 -6 -135 l0 -104 -32 5 c-43 8 -43 7 -85
85 -21 39 -41 70 -45 70 -5 0 -8 -35 -8 -78 l0 -79 -30 5 -30 4 0 129 0 129
38 0 c36 0 38 -2 82 -83z m371 45 c25 -27 29 -41 29 -88 0 -62 -20 -105 -58
-125 -14 -8 -58 -13 -105 -14 l-82 0 -2 125 c-1 69 1 129 4 133 3 5 46 7 95 5
87 -3 91 -4 119 -36z m137 -94 l-3 -133 -32 -3 -33 -3 0 135 0 136 35 0 36 0
-3 -132z m247 10 c26 -68 50 -129 52 -135 4 -9 -6 -13 -31 -13 -30 0 -38 5
-46 25 -8 22 -15 25 -58 25 -42 0 -50 -3 -60 -25 -9 -19 -19 -25 -42 -25 -16
0 -30 5 -30 11 0 6 21 67 47 135 l47 124 36 0 37 0 48 -122z m-178 93 c12 11
12 9 2 -14 -14 -30 -39 -26 -31 6 3 12 7 16 10 9 3 -10 7 -10 19 -1z m570 -97
c-3 -3 -12 -4 -19 -1 -8 3 -5 6 6 6 11 1 17 -2 13 -5z m-1674 -54 c-3 -11 -9
-17 -14 -15 -4 3 -6 12 -3 19 3 8 1 17 -5 21 -6 3 -11 11 -11 17 0 6 9 3 19
-6 11 -10 17 -25 14 -36z m74 -2 c-3 -8 -6 -5 -6 6 -1 11 2 17 5 13 3 -3 4
-12 1 -19z m156 -77 c41 -86 48 -150 21 -189 -16 -23 -19 -23 -133 -17 -196
10 -248 32 -245 101 0 16 2 52 2 81 l2 52 46 7 c27 4 50 2 56 -4 15 -15 -6
-47 -41 -62 -34 -14 -32 -30 2 -30 29 0 94 23 109 38 7 7 18 12 24 12 20 0 26
18 14 41 -14 26 -10 30 37 39 65 13 66 12 106 -69z m-653 -26 c36 -8 89 -14
118 -15 48 0 54 -3 72 -32 11 -18 20 -42 20 -52 0 -17 -2 -18 -17 -4 -31 27
-58 30 -78 8 -21 -24 -29 -25 -47 -7 -7 8 -53 32 -101 55 -125 59 -111 79 33
47z"/>
<path d="M1630 1424 c0 -35 1 -35 37 -32 28 2 39 8 42 22 4 23 -24 46 -56 46
-20 0 -23 -5 -23 -36z"/>
<path d="M3116 967 c3 -10 9 -15 12 -12 3 3 0 11 -7 18 -10 9 -11 8 -5 -6z"/>
<path d="M2046 1066 c-3 -13 -9 -31 -12 -40 -5 -13 1 -16 26 -16 25 0 31 3 26
16 -3 9 -9 27 -12 40 -3 13 -10 24 -14 24 -4 0 -11 -11 -14 -24z"/>
<path d="M2300 1089 c0 -29 1 -30 42 -27 33 2 44 8 46 22 5 24 -14 36 -55 36
-30 0 -33 -3 -33 -31z"/>
<path d="M2582 1088 c3 -35 21 -44 64 -34 17 5 24 13 24 30 0 26 -17 36 -61
36 -28 0 -30 -2 -27 -32z"/>
<path d="M3344 1083 c3 -26 6 -28 47 -28 40 0 44 2 44 25 0 23 -4 25 -47 28
-46 3 -47 3 -44 -25z m63 1 c-3 -3 -12 -4 -19 -1 -8 3 -5 6 6 6 11 1 17 -2 13
-5z"/>
<path d="M2027 773 c-4 -3 -7 -37 -7 -75 l0 -68 29 0 c20 0 35 8 45 22 22 31
20 91 -2 111 -19 17 -53 22 -65 10z m40 -65 c-3 -7 -5 -2 -5 12 0 14 2 19 5
13 2 -7 2 -19 0 -25z"/>
<path d="M2452 740 c-26 -67 -26 -70 7 -70 34 0 36 7 16 60 l-13 35 -10 -25z"/>
<path d="M877 1792 c-31 -33 -35 -47 -8 -33 10 6 22 7 26 3 3 -4 6 -2 4 3 -1
6 1 18 6 28 12 29 0 29 -28 -1z"/>
<path d="M825 1730 c-3 -5 -2 -10 4 -10 5 0 13 5 16 10 3 6 2 10 -4 10 -5 0
-13 -4 -16 -10z"/>
<path d="M3813 1155 l10 -35 83 0 c66 0 93 5 129 22 25 12 44 27 42 33 -2 6
-56 11 -139 13 l-136 3 11 -36z m182 -5 c-34 -14 -155 -12 -155 3 0 9 22 11
87 8 58 -2 81 -6 68 -11z"/>
<path d="M3840 1086 c0 -8 4 -26 10 -40 8 -21 16 -26 45 -26 39 0 147 49 142
65 -2 6 -45 11 -100 13 -80 2 -97 0 -97 -12z m103 -17 c33 0 38 -2 22 -9 -11
-5 -37 -9 -57 -9 -29 -1 -38 3 -38 15 0 11 5 14 16 10 9 -3 34 -6 57 -7z"/>
<path d="M2759 660 c-8 -13 -10 -13 -20 0 -9 13 -10 13 -6 0 2 -9 14 -14 28
-12 48 5 85 5 122 -1 39 -6 53 9 15 17 -59 13 -130 11 -139 -4z"/>
<path d="M2688 513 c7 -3 16 -2 19 1 4 3 -2 6 -13 5 -11 0 -14 -3 -6 -6z"/>
<path d="M2938 513 c7 -3 16 -2 19 1 4 3 -2 6 -13 5 -11 0 -14 -3 -6 -6z"/>
<path d="M2918 498 c5 -5 16 -8 23 -6 8 3 3 7 -10 11 -17 4 -21 3 -13 -5z"/>
<path d="M2985 490 c3 -5 8 -10 11 -10 2 0 4 5 4 10 0 6 -5 10 -11 10 -5 0 -7
-4 -4 -10z"/>
</g>
</svg>
