<?xml version="1.0" standalone="no"?>
<!DOCTYPE svg PUBLIC "-//W3C//DTD SVG 20010904//EN"
 "http://www.w3.org/TR/2001/REC-SVG-20010904/DTD/svg10.dtd">
<svg version="1.0" xmlns="http://www.w3.org/2000/svg"
 width="1200.000000pt" height="1060.000000pt" viewBox="0 0 1200.000000 1060.000000"
 preserveAspectRatio="xMidYMid meet">

<g transform="translate(0.000000,1060.000000) scale(0.100000,-0.100000)"
fill="#000000" stroke="none">
<path d="M5656 10450 c-1693 -96 -3188 -780 -4245 -1940 -629 -691 -1057
-1555 -1205 -2430 -51 -302 -60 -423 -60 -775 0 -344 10 -481 55 -750 226
-1351 1043 -2558 2290 -3381 1597 -1054 3709 -1315 5584 -689 727 243 1402
621 1985 1113 163 138 498 474 630 632 679 816 1060 1726 1141 2723 15 194 7
685 -15 867 -153 1255 -778 2373 -1811 3234 -868 723 -1984 1199 -3170 1351
-336 43 -864 63 -1179 45z m-161 -1380 c171 -14 294 -37 419 -77 l109 -35 106
31 c276 81 686 94 957 31 240 -56 463 -187 646 -378 174 -184 280 -393 323
-639 17 -98 20 -342 5 -448 -65 -457 -364 -895 -752 -1105 -43 -23 -78 -45
-78 -48 0 -4 10 -23 22 -42 34 -57 116 -224 149 -308 17 -42 82 -228 144 -412
124 -368 155 -450 216 -573 129 -256 260 -377 412 -379 149 -2 213 95 150 227
-21 45 -9 60 41 51 42 -8 116 -61 133 -96 33 -65 2 -176 -63 -225 -78 -59
-118 -70 -259 -69 -153 1 -239 21 -364 83 -158 79 -301 209 -411 372 -147 221
-189 345 -280 834 -41 221 -92 450 -103 461 -1 2 -34 -7 -72 -18 -96 -29 -305
-31 -385 -5 -128 42 -191 122 -191 241 0 147 113 243 300 254 176 10 329 -60
433 -198 l27 -34 58 39 c182 124 364 385 447 640 49 150 61 235 60 430 -1 257
-38 418 -141 616 -121 232 -329 426 -545 509 -145 56 -249 73 -458 73 -102 0
-216 -3 -253 -7 l-68 -8 104 -68 c233 -154 388 -346 443 -550 24 -91 25 -258
1 -326 -42 -120 -112 -190 -203 -200 -67 -8 -128 10 -175 53 -64 58 -83 104
-84 198 0 85 25 165 51 165 7 0 20 -26 30 -59 19 -71 48 -101 103 -108 35 -5
44 -2 70 24 37 37 51 88 51 181 0 136 -55 247 -189 382 l-74 74 -12 -39 c-7
-22 -29 -74 -48 -117 -55 -119 -85 -238 -59 -238 5 0 15 -11 22 -26 13 -23 12
-27 -12 -47 l-26 -22 -11 -1460 c-6 -803 -11 -1614 -12 -1803 0 -395 -8 -360
105 -472 111 -109 90 -132 -103 -109 -133 16 -272 17 -451 5 -109 -8 -127 -7
-138 7 -19 23 5 63 72 120 93 80 94 83 100 307 3 107 8 614 11 1125 3 512 8
1236 12 1610 l6 681 -26 17 c-34 22 -34 31 -1 64 26 26 26 28 14 82 -7 31 -32
106 -57 166 -25 61 -48 121 -52 134 -7 23 -11 20 -88 -55 -128 -126 -181 -224
-190 -354 -6 -87 7 -147 42 -188 66 -78 163 -29 190 96 9 42 29 41 50 -5 25
-53 31 -151 12 -207 -57 -166 -243 -225 -363 -114 -153 141 -146 443 15 689
81 124 298 313 425 371 14 6 26 14 26 18 0 12 -84 20 -285 26 -157 6 -209 4
-295 -11 -229 -38 -390 -122 -555 -289 -206 -210 -316 -458 -346 -784 -14
-152 -2 -302 36 -453 70 -277 235 -545 429 -693 l76 -59 61 66 c140 153 373
201 556 115 56 -26 110 -79 131 -127 32 -77 11 -194 -46 -254 -90 -95 -295
-123 -500 -67 -48 13 -87 19 -92 14 -17 -17 -61 -191 -116 -457 -92 -447 -144
-596 -276 -789 -200 -294 -452 -450 -751 -465 -126 -7 -209 11 -282 59 -76 50
-119 150 -96 221 20 59 99 117 161 117 40 0 45 -16 20 -65 -23 -44 -26 -108
-7 -145 22 -43 91 -74 165 -72 157 2 290 129 431 410 64 128 92 197 198 497
143 401 221 584 309 723 19 29 34 54 34 56 0 2 -33 23 -72 47 -249 147 -454
371 -591 646 -167 335 -202 755 -90 1091 60 181 168 348 319 493 224 214 461
323 789 362 64 8 256 6 370 -3z m4439 -589 c44 -48 65 -366 32 -489 -37 -140
-69 -169 -122 -108 -27 31 -35 35 -62 30 -30 -6 -63 15 -74 47 -7 21 -204 25
-293 6 -98 -21 -185 -55 -185 -73 0 -23 -47 -64 -73 -64 -14 0 -32 -11 -45
-30 -35 -46 -67 -49 -109 -9 l-35 34 -69 -74 c-84 -89 -143 -185 -175 -286
-29 -92 -30 -115 -5 -115 25 0 35 14 55 80 36 114 163 312 219 342 12 6 -5
-18 -38 -54 -70 -77 -137 -190 -170 -285 -20 -62 -21 -70 -7 -91 12 -18 12
-28 4 -47 -6 -14 -9 -38 -6 -55 4 -20 1 -39 -10 -55 -15 -23 -16 -35 -6 -101
36 -237 127 -418 295 -584 47 -47 86 -83 88 -81 6 10 47 -12 61 -34 18 -27
141 -78 230 -94 85 -16 182 -15 168 2 -8 9 7 13 70 15 55 3 78 0 74 -7 -4 -7
-1 -8 8 -5 9 3 13 10 10 15 -8 13 60 11 90 -2 26 -12 38 -39 26 -58 -5 -8 -15
-7 -36 4 -30 15 -94 21 -94 8 0 -20 -330 -24 -394 -5 -22 6 -41 10 -43 9 -1
-2 4 -24 12 -49 7 -25 11 -49 8 -52 -6 -6 67 -153 98 -197 18 -26 18 -27 -3
-45 -11 -11 -34 -37 -49 -58 -26 -35 -29 -47 -29 -118 0 -63 3 -78 15 -78 9 0
15 9 15 24 0 21 38 82 46 74 5 -6 -40 -123 -58 -149 l-17 -24 -19 24 c-42 53
-89 244 -76 309 5 26 3 31 -17 34 -21 3 -22 7 -20 69 2 65 2 66 -21 62 -38 -7
-70 65 -112 259 -4 16 -25 40 -55 63 -77 56 -220 213 -281 308 -34 52 -62 86
-72 86 -19 1 -24 16 -9 25 5 3 -7 42 -26 86 -19 44 -44 121 -56 170 -16 64
-27 92 -39 96 -23 7 -33 46 -19 72 5 10 8 35 5 54 -4 24 -1 39 10 50 8 9 25
59 36 112 26 120 57 212 102 301 44 86 116 186 157 216 22 16 31 31 31 51 0
21 8 33 33 48 17 11 38 20 45 20 7 0 25 14 39 31 22 25 32 30 62 28 26 -3 56
7 108 34 145 75 335 134 483 153 35 4 62 13 73 26 11 10 29 18 40 17 33 -4 64
17 92 61 28 45 61 52 89 21z m-7797 -48 c37 -55 75 -85 100 -78 17 4 30 -1 47
-20 15 -16 34 -25 54 -25 103 0 322 -65 477 -141 76 -38 106 -48 128 -43 23 5
34 0 62 -30 18 -20 42 -36 53 -36 30 0 72 -38 72 -66 0 -16 13 -36 36 -56 110
-96 219 -322 255 -528 7 -41 19 -80 26 -85 9 -7 16 -39 18 -90 5 -70 3 -82
-14 -95 -12 -9 -29 -51 -45 -112 -14 -53 -39 -127 -56 -164 -22 -48 -27 -70
-20 -80 11 -13 -5 -32 -17 -20 -3 3 -22 -20 -41 -52 -81 -131 -214 -279 -316
-352 -25 -18 -46 -41 -46 -50 0 -38 -44 -188 -67 -228 -19 -33 -29 -42 -43
-37 -17 5 -19 -1 -22 -62 -2 -56 -6 -68 -19 -65 -14 2 -17 -12 -21 -90 -6
-101 -42 -227 -76 -261 -18 -18 -19 -18 -36 8 -19 30 -58 136 -52 142 8 9 46
-51 46 -73 0 -27 15 -32 24 -8 9 25 7 120 -4 148 -5 14 -28 46 -51 71 l-41 44
20 28 c33 48 97 177 98 198 1 11 5 38 9 59 8 39 8 39 -19 32 -111 -28 -294
-26 -407 4 -37 10 -89 1 -115 -21 -11 -9 -15 -8 -20 4 -10 26 14 56 54 67 50
14 62 13 62 -6 0 -11 6 -14 23 -8 24 8 28 8 106 6 49 -2 52 -4 40 -19 -13 -15
-8 -16 71 -9 47 4 112 14 144 22 81 21 186 70 186 86 0 7 18 21 40 31 50 21
173 142 227 222 99 147 143 270 178 497 3 16 -2 31 -11 39 -12 10 -15 25 -11
56 2 24 1 46 -4 49 -12 7 -11 61 1 69 16 10 11 36 -23 120 -35 88 -104 196
-165 263 -34 36 -43 41 -63 33 -31 -11 -64 2 -84 32 -9 14 -29 27 -45 30 -30
6 -70 42 -70 63 0 13 -71 46 -135 63 -80 21 -192 32 -267 25 -64 -5 -79 -10
-83 -26 -10 -30 -50 -51 -74 -39 -17 10 -24 6 -48 -24 -51 -64 -87 -42 -123
72 -27 87 -35 211 -21 331 16 136 31 184 61 199 34 17 37 17 57 -14z m6543
-1678 c0 -8 -4 -15 -10 -15 -5 0 -10 7 -10 15 0 8 5 15 10 15 6 0 10 -7 10
-15z m-5340 -45 c0 -5 -4 -10 -10 -10 -5 0 -10 5 -10 10 0 6 5 10 10 10 6 0
10 -4 10 -10z m5340 -21 c0 -5 -7 -9 -15 -9 -15 0 -20 12 -9 23 8 8 24 -1 24
-14z m-5339 -52 c-13 -13 -26 -3 -16 12 3 6 11 8 17 5 6 -4 6 -10 -1 -17z
m5329 -12 c0 -8 -4 -15 -10 -15 -5 0 -10 7 -10 15 0 8 5 15 10 15 6 0 10 -7
10 -15z m1550 5 c0 -11 -40 -11 -85 0 -25 6 -20 8 28 9 32 0 57 -3 57 -9z
m-88 -46 c110 -38 195 -47 237 -25 35 19 36 7 1 -33 -56 -63 -117 -68 -276
-20 -45 13 -99 24 -120 24 -20 0 -61 8 -91 17 -39 12 -62 14 -89 7 -53 -14
-41 -29 23 -29 57 0 58 0 78 -40 12 -22 35 -48 53 -58 32 -19 32 -19 32 2 0
16 6 21 26 21 22 0 25 4 21 21 -5 20 -3 21 35 15 22 -4 52 -13 67 -21 26 -14
26 -14 3 -15 -43 0 -93 -31 -99 -60 -5 -27 -6 -27 -34 -13 -33 17 -59 11 -59
-11 0 -12 7 -14 28 -10 23 5 32 1 45 -19 8 -13 23 -32 32 -41 21 -21 1 -21
-35 -1 -46 27 -53 18 -24 -33 32 -58 71 -108 78 -101 3 2 1 21 -3 42 -11 45
-6 46 68 7 98 -53 228 -156 250 -198 27 -52 33 -100 18 -141 -17 -48 -34 -49
-42 -3 -8 52 -39 99 -76 120 -17 9 -64 43 -105 76 -41 32 -77 56 -81 53 -6 -6
38 -63 128 -167 81 -93 106 -134 119 -193 19 -81 -13 -166 -72 -198 -21 -11
-21 -10 -14 55 8 76 -2 101 -79 201 -25 33 -67 102 -92 152 -26 51 -48 91 -51
89 -9 -10 32 -138 88 -271 97 -231 107 -301 55 -363 -21 -25 -92 -58 -103 -47
-3 2 1 19 9 37 7 18 13 55 13 83 -1 48 -8 69 -88 261 -29 69 -50 229 -40 295
6 32 4 38 -8 34 -21 -8 -38 -49 -38 -94 0 -21 20 -118 45 -215 27 -107 45
-201 45 -235 0 -99 -44 -152 -138 -167 l-43 -7 20 35 c32 53 35 113 16 249
-26 178 -9 293 57 406 21 35 19 39 -13 23 -43 -23 -75 -125 -88 -281 -6 -74
-13 -104 -29 -127 -57 -79 -142 -124 -203 -106 -42 12 -45 25 -10 45 39 23 80
86 136 212 26 59 61 129 78 154 16 26 23 42 16 36 -119 -94 -188 -137 -254
-158 -82 -25 -159 -66 -174 -93 -9 -15 -10 -13 -11 9 0 67 81 137 216 185 111
40 134 54 86 54 -18 0 -60 8 -93 17 l-60 17 27 14 c22 12 39 12 105 1 44 -7
79 -15 79 -19 0 -3 -6 -12 -12 -20 -13 -13 26 13 72 49 17 13 27 16 31 9 5 -8
22 -6 56 8 26 10 62 19 80 20 17 1 45 10 60 20 l29 19 -33 28 -33 29 0 -35 c0
-20 -4 -39 -10 -42 -5 -3 -10 3 -10 14 0 32 -15 32 -39 1 -28 -38 -39 -38 -33
0 5 37 -10 39 -32 5 -9 -14 -23 -25 -31 -25 -17 0 -20 16 -5 25 6 3 10 13 10
21 0 13 -8 15 -40 10 -22 -3 -58 -9 -80 -12 -32 -5 -40 -3 -40 10 0 34 46 49
125 42 67 -6 76 -5 96 15 45 45 -13 139 -87 139 -91 0 -158 87 -104 135 11 10
20 28 20 40 0 35 20 45 95 45 42 1 80 6 95 15 42 24 112 18 222 -21z m169 6
c-27 -23 -37 -24 -99 -7 l-47 12 70 6 c39 3 77 6 85 7 10 1 7 -6 -9 -18z
m-8443 -7 c-16 -2 -40 -2 -55 0 -16 2 -3 4 27 4 30 0 43 -2 28 -4z m1492 -3
c0 -5 -7 -10 -16 -10 -8 0 -12 5 -9 10 3 6 10 10 16 10 5 0 9 -4 9 -10z
m-1260 -21 c14 -5 55 -11 91 -12 70 -2 99 -17 99 -49 0 -11 9 -31 20 -45 28
-35 25 -50 -14 -89 -26 -26 -42 -34 -70 -34 -71 0 -126 -47 -126 -106 0 -47
17 -54 116 -53 80 1 90 -1 106 -21 10 -12 18 -26 18 -30 0 -9 -58 -4 -125 11
-22 4 -41 6 -44 4 -2 -3 4 -16 13 -29 9 -14 16 -28 16 -31 0 -13 -22 -3 -42
20 -29 33 -41 32 -36 -4 4 -26 2 -29 -14 -20 -11 6 -24 21 -30 34 -12 27 -28
24 -28 -6 0 -10 -4 -19 -10 -19 -5 0 -10 16 -10 35 0 36 -16 47 -27 19 -3 -9
-15 -19 -27 -23 -20 -8 -19 -10 14 -30 19 -12 46 -21 60 -20 14 1 42 -6 63
-15 20 -9 50 -15 65 -14 19 1 43 -10 80 -39 28 -23 73 -49 99 -59 116 -42 170
-66 205 -90 37 -26 78 -93 78 -129 0 -15 -3 -14 -19 7 -23 28 -104 69 -183 92
-40 11 -87 39 -159 92 -85 64 -97 70 -74 40 15 -19 51 -90 81 -157 62 -139
102 -201 144 -226 17 -9 30 -20 30 -24 0 -23 -99 -25 -146 -3 -49 23 -112 96
-118 136 -2 18 -10 78 -16 133 -16 138 -56 235 -96 235 -9 0 -2 -24 21 -72 49
-104 61 -201 41 -337 -23 -148 -21 -208 7 -263 l23 -46 -35 5 c-144 22 -174
119 -111 354 55 203 65 264 51 309 -6 22 -19 44 -29 49 -16 8 -17 2 -14 -75 5
-124 -10 -197 -67 -328 -58 -134 -70 -200 -47 -263 17 -49 10 -54 -47 -29
-101 43 -101 129 1 371 70 167 92 231 92 269 0 26 -8 16 -44 -59 -24 -49 -68
-121 -96 -160 -79 -107 -83 -117 -75 -197 7 -68 7 -70 -13 -59 -53 28 -88 108
-79 182 8 64 33 110 112 199 86 98 149 179 143 185 -2 3 -33 -18 -67 -46 -34
-27 -84 -64 -111 -80 -50 -31 -90 -92 -90 -137 0 -36 -20 -35 -35 2 -19 45
-19 77 1 124 22 54 66 96 181 173 139 92 169 100 146 39 -18 -47 3 -45 38 2
34 48 73 118 64 118 -3 0 -23 -9 -45 -20 -54 -28 -56 -26 -19 21 27 34 37 40
61 37 30 -5 38 11 14 31 -16 14 -66 -2 -67 -21 0 -7 -5 2 -10 19 -10 34 -51
63 -89 63 -11 0 -20 4 -20 9 0 12 56 31 93 31 24 0 27 -2 18 -14 -10 -12 -7
-15 16 -18 20 -2 29 -9 31 -25 3 -22 3 -22 34 -3 18 10 41 38 52 62 22 45 35
50 106 37 17 -3 25 1 25 11 0 30 -208 9 -345 -34 -133 -42 -220 -32 -269 30
-29 37 -26 47 9 29 46 -24 114 -18 224 19 136 47 169 50 236 25z m-286 -5 c50
6 50 5 21 -9 -37 -17 -117 -19 -133 -3 -21 21 -13 27 24 16 20 -5 59 -7 88 -4z
m6866 6 c0 -5 -7 -10 -15 -10 -8 0 -15 5 -15 10 0 6 7 10 15 10 8 0 15 -4 15
-10z m-5316 -45 c3 -9 0 -15 -9 -15 -8 0 -15 7 -15 15 0 8 4 15 9 15 5 0 11
-7 15 -15z m5306 -20 c0 -8 -4 -15 -10 -15 -5 0 -10 7 -10 15 0 8 5 15 10 15
6 0 10 -7 10 -15z m1324 -4 c3 -5 -1 -14 -8 -20 -12 -10 -13 -8 -9 8 6 23 9
25 17 12z m444 -26 c18 -4 30 -11 26 -16 -6 -10 -107 -13 -117 -2 -10 9 26 33
43 28 8 -2 30 -6 48 -10z m-7068 -15 c0 -5 -7 -10 -15 -10 -8 0 -15 5 -15 10
0 6 7 10 15 10 8 0 15 -4 15 -10z m-1330 -21 c0 -6 -4 -7 -10 -4 -5 3 -10 11
-10 16 0 6 5 7 10 4 6 -3 10 -11 10 -16z m6630 1 c0 -5 -4 -10 -10 -10 -5 0
-10 5 -10 10 0 6 5 10 10 10 6 0 10 -4 10 -10z m1656 -6 c37 -16 97 -15 137 1
40 17 12 -69 -40 -116 -49 -46 -68 -51 -89 -27 -11 11 -39 34 -63 50 -25 15
-40 28 -33 28 20 0 14 16 -20 49 l-32 31 51 0 c28 0 68 -7 89 -16z m-8666 -4
c13 -9 13 -11 0 -20 -8 -5 -29 -10 -47 -10 -63 0 -88 26 -30 33 58 7 62 7 77
-3z m8504 -13 c17 -12 13 -15 -35 -35 -30 -13 -49 -26 -43 -31 5 -4 38 -16 74
-25 114 -31 145 -49 184 -108 40 -60 61 -146 33 -135 -44 17 -196 129 -222
163 -16 22 -43 53 -62 70 -34 33 -41 61 -23 95 13 23 66 26 94 6z m-8350 -13
c12 -5 9 -11 -14 -31 -33 -28 -41 -56 -12 -47 9 3 -5 -7 -33 -24 -27 -16 -59
-39 -69 -51 -11 -11 -25 -21 -33 -21 -25 0 -102 81 -113 118 -5 20 -8 37 -6
39 2 2 23 -1 47 -6 30 -7 57 -7 84 0 111 29 127 31 149 23z m1556 -15 c0 -5
-4 -9 -10 -9 -5 0 -10 7 -10 16 0 8 5 12 10 9 6 -3 10 -10 10 -16z m-1422 -28
c18 -23 6 -61 -31 -97 -18 -17 -47 -50 -65 -73 -19 -23 -75 -69 -125 -102 -87
-56 -92 -58 -95 -37 -6 38 16 93 58 141 41 46 70 61 183 92 31 8 57 19 57 24
0 5 -20 17 -45 28 -25 10 -45 21 -45 25 0 11 54 26 75 21 11 -3 26 -12 33 -22z
m6719 3 c-9 -9 -28 6 -21 18 4 6 10 6 17 -1 6 -6 8 -13 4 -17z m1083 1 c0 -8
-2 -15 -4 -15 -2 0 -6 7 -10 15 -3 8 -1 15 4 15 6 0 10 -7 10 -15z m-6380 -40
c0 -8 -4 -15 -10 -15 -5 0 -10 7 -10 15 0 8 5 15 10 15 6 0 10 -7 10 -15z
m-1085 -5 c-3 -5 -11 -10 -16 -10 -6 0 -7 5 -4 10 3 6 11 10 16 10 6 0 7 -4 4
-10z m6383 -11 c-2 -6 -8 -10 -13 -10 -5 0 -11 4 -13 10 -2 6 4 11 13 11 9 0
15 -5 13 -11z m-5302 -56 c-10 -10 -19 5 -10 18 6 11 8 11 12 0 2 -7 1 -15 -2
-18z m5304 -14 c0 -5 -7 -9 -15 -9 -15 0 -20 12 -9 23 8 8 24 -1 24 -14z
m-5299 -42 c-1 -12 -15 -9 -19 4 -3 6 1 10 8 8 6 -3 11 -8 11 -12z m5293 -22
c-4 -8 -10 -15 -15 -15 -5 0 -9 7 -9 15 0 8 7 15 15 15 9 0 12 -6 9 -15z
m-5284 -46 c0 -5 -7 -9 -15 -9 -15 0 -20 12 -9 23 8 8 24 -1 24 -14z m5279
-28 c-15 -5 -22 6 -14 19 6 9 10 9 16 -1 5 -8 4 -15 -2 -18z m542 -34 c-13
-13 -26 -3 -16 12 3 6 11 8 17 5 6 -4 6 -10 -1 -17z m-5830 -10 c-13 -13 -26
-3 -16 12 3 6 11 8 17 5 6 -4 6 -10 -1 -17z m5291 -12 c0 -5 -5 -11 -11 -13
-6 -2 -11 4 -11 13 0 9 5 15 11 13 6 -2 11 -8 11 -13z m-5831 -18 c-1 -12 -15
-9 -19 4 -3 6 1 10 8 8 6 -3 11 -8 11 -12z m-358 -10 c15 -10 7 -15 -63 -31
-63 -15 -85 -17 -105 -8 -37 17 -31 29 23 40 68 14 126 14 145 -1z m6727 -6
c0 -6 -4 -13 -10 -16 -5 -3 -10 1 -10 9 0 9 5 16 10 16 6 0 10 -4 10 -9z
m-5825 -11 c3 -5 -1 -10 -9 -10 -9 0 -16 5 -16 10 0 6 4 10 9 10 6 0 13 -4 16
-10z m5295 -20 c0 -5 -7 -10 -15 -10 -8 0 -15 5 -15 10 0 6 7 10 15 10 8 0 15
-4 15 -10z m-5830 -20 c0 -5 -4 -10 -9 -10 -6 0 -13 5 -16 10 -3 6 1 10 9 10
9 0 16 -4 16 -10z m6351 -23 c-13 -13 -26 -3 -16 12 3 6 11 8 17 5 6 -4 6 -10
-1 -17z m-5820 -10 c-13 -13 -26 -3 -16 12 3 6 11 8 17 5 6 -4 6 -10 -1 -17z
m5299 -12 c0 -8 -4 -15 -9 -15 -13 0 -22 16 -14 24 11 11 23 6 23 -9z m-5829
-18 c-1 -12 -15 -9 -19 4 -3 6 1 10 8 8 6 -3 11 -8 11 -12z m6347 -18 c-2 -6
-8 -10 -13 -10 -5 0 -11 4 -13 10 -2 6 4 11 13 11 9 0 15 -5 13 -11z m-5818
-9 c0 -5 -4 -10 -10 -10 -5 0 -10 5 -10 10 0 6 5 10 10 10 6 0 10 -4 10 -10z
m5300 -20 c0 -5 -4 -10 -10 -10 -5 0 -10 5 -10 10 0 6 5 10 10 10 6 0 10 -4
10 -10z m981 -58 c-30 -99 -53 -128 -121 -153 -33 -12 -57 -25 -54 -30 3 -5
25 -20 49 -35 79 -46 179 -32 266 37 22 17 42 29 45 27 2 -3 7 -28 11 -55 6
-59 -7 -107 -50 -177 -29 -47 -30 -49 -12 -62 39 -29 108 -6 192 63 40 33 42
34 52 14 16 -28 14 -39 -6 -37 -35 2 -18 -28 21 -39 29 -8 57 -32 118 -100 44
-49 91 -108 104 -131 13 -23 40 -104 60 -180 42 -162 57 -194 116 -252 92 -89
168 -66 168 51 -1 55 -26 109 -106 223 -108 156 -147 267 -148 424 -1 89 2
101 32 163 37 75 77 108 158 133 128 38 236 -1 288 -105 32 -63 43 -115 56
-261 12 -132 25 -190 42 -190 21 0 -14 -29 -42 -35 -39 -9 -88 15 -132 64 -34
36 -38 47 -38 94 0 28 7 77 15 107 8 30 15 57 15 59 0 3 -12 -7 -27 -22 -31
-29 -91 -57 -123 -57 -30 0 -60 35 -60 70 0 28 2 30 25 24 54 -13 89 63 61
130 -12 28 -21 36 -41 36 -48 0 -113 -48 -142 -105 -23 -43 -19 -128 10 -210
l24 -70 18 43 c9 23 21 42 25 42 21 0 33 -65 27 -146 -4 -53 -2 -95 5 -112
l11 -27 8 35 c4 20 17 58 29 85 20 47 22 49 36 31 20 -28 18 -76 -7 -158 -18
-57 -19 -74 -10 -95 15 -32 24 -23 46 47 22 70 26 75 36 59 13 -20 10 -86 -6
-152 -8 -37 -11 -84 -8 -133 7 -89 -12 -143 -62 -174 -36 -22 -103 -35 -139
-26 -69 17 -129 112 -162 256 -10 44 -20 80 -23 80 -3 0 -14 -30 -24 -68 -9
-37 -24 -92 -32 -122 -20 -74 -19 -143 5 -245 28 -119 55 -168 75 -135 10 16
24 12 51 -15 22 -22 24 -31 19 -68 -5 -32 -1 -58 19 -111 26 -68 36 -170 16
-150 -6 6 -25 38 -43 73 -29 53 -36 60 -47 47 -15 -19 -10 -51 21 -133 18 -48
21 -65 12 -74 -13 -13 -13 -12 -48 76 -15 36 -17 38 -27 21 -7 -12 -9 -51 -5
-105 4 -52 2 -78 -3 -66 -5 11 -9 35 -9 53 -1 17 -4 32 -8 32 -5 0 -23 -50
-42 -110 -33 -107 -54 -146 -116 -224 -85 -106 -162 -91 -135 26 15 65 13 65
-34 19 l-44 -43 -23 31 -24 32 -10 -32 c-6 -18 -17 -35 -23 -37 -19 -6 -14 49
5 70 10 11 18 29 18 41 0 15 11 27 36 39 58 27 106 92 180 244 38 77 69 145
69 152 0 33 -56 130 -113 195 -97 111 -101 127 -34 127 12 0 29 5 37 10 10 6
-1 8 -35 4 -42 -5 -55 -2 -78 16 -33 26 -52 61 -61 113 -8 42 1 68 15 46 5 -9
9 9 9 46 0 54 7 74 61 185 38 76 64 141 67 169 6 55 -4 50 -21 -10 l-13 -43
-33 58 c-43 76 -129 159 -209 199 -35 18 -79 45 -98 61 l-35 28 46 29 c70 44
165 141 165 168 0 28 -15 19 -36 -21 -11 -20 -19 -27 -23 -19 -5 8 -17 -2 -36
-29 -28 -41 -54 -56 -35 -20 20 37 -7 20 -36 -22 -20 -31 -29 -38 -32 -26 -2
9 2 27 8 39 9 15 9 19 1 14 -20 -12 -60 -102 -55 -122 3 -11 0 -39 -6 -62 -10
-37 -13 -41 -27 -30 -14 12 -15 57 -2 94 2 6 0 11 -6 13 -10 3 -23 -41 -44
-148 -7 -31 -21 -71 -33 -90 l-21 -35 -9 25 c-5 14 -8 49 -6 78 2 28 2 52 1
52 -2 0 -30 -53 -63 -117 l-60 -118 3 63 c3 63 3 63 -14 40 -10 -12 -23 -48
-29 -78 -23 -119 -31 -133 -75 -142 -60 -13 -67 -7 -59 52 4 27 3 50 -2 50 -5
0 -18 -26 -30 -57 -26 -74 -53 -81 -104 -28 l-35 36 26 22 c14 12 34 27 43 32
25 14 26 50 2 50 -17 0 -74 -68 -89 -107 -4 -10 -8 -10 -16 2 -11 14 -8 61 6
98 6 15 5 15 -10 3 -15 -12 -17 -11 -17 2 0 19 27 47 44 47 7 0 27 20 44 44
17 24 86 101 151 171 83 88 139 158 182 228 37 60 90 129 128 167 36 36 79 84
95 105 16 22 41 50 55 62 26 22 26 22 4 23 -15 0 -44 -21 -82 -61 -63 -64 -76
-51 -17 17 25 29 47 41 106 58 41 12 76 22 77 21 1 -1 -6 -29 -16 -63z m-6801
38 c0 -5 -4 -10 -10 -10 -5 0 -10 5 -10 10 0 6 5 10 10 10 6 0 10 -4 10 -10z
m517 -36 c-9 -9 -28 6 -21 18 4 6 10 6 17 -1 6 -6 8 -13 4 -17z m5813 16 c0
-5 -4 -10 -10 -10 -5 0 -10 5 -10 10 0 6 5 10 10 10 6 0 10 -4 10 -10z m-6773
-17 c13 -3 20 -10 16 -19 -3 -8 2 -17 10 -20 9 -3 34 -29 55 -57 22 -29 69
-81 104 -117 35 -36 91 -110 125 -165 40 -64 102 -142 171 -216 60 -63 128
-140 151 -170 24 -30 53 -56 65 -59 13 -4 22 -15 24 -30 4 -21 2 -22 -12 -11
-15 13 -16 11 -6 -13 11 -30 14 -89 4 -99 -4 -3 -23 20 -44 52 -37 58 -64 79
-75 60 -12 -18 6 -46 40 -65 46 -24 46 -54 2 -88 -47 -36 -65 -33 -83 12 -8
20 -21 51 -29 67 -15 30 -15 30 -12 -23 3 -31 0 -55 -7 -59 -16 -10 -79 -3
-93 10 -7 7 -19 49 -27 94 -8 49 -23 95 -36 113 -26 37 -33 38 -20 4 6 -14 10
-44 9 -67 0 -41 -1 -40 -60 76 -55 108 -79 146 -64 97 9 -27 -5 -131 -16 -124
-18 11 -46 81 -58 144 -16 87 -30 130 -43 130 -6 0 -7 -9 -3 -22 16 -52 16
-74 1 -87 -13 -11 -17 -9 -26 14 -5 14 -10 44 -10 66 0 40 -29 111 -52 125 -8
5 -9 2 -4 -12 5 -10 10 -28 13 -39 4 -19 4 -19 -14 1 -10 12 -28 34 -41 50
-20 26 -22 26 -17 7 4 -13 2 -23 -4 -23 -6 0 -11 3 -11 8 0 4 -14 23 -30 42
-21 24 -28 29 -25 15 6 -19 5 -19 -7 -1 -31 45 -47 61 -53 54 -19 -19 59 -104
181 -195 l29 -22 -25 -20 c-14 -12 -59 -38 -100 -60 -87 -46 -175 -131 -219
-210 l-29 -54 -16 49 -16 49 4 -48 c3 -34 21 -85 61 -165 43 -87 58 -132 62
-175 4 -37 9 -54 14 -45 19 29 8 -84 -11 -122 -21 -41 -44 -59 -95 -71 l-30
-7 33 -1 33 -1 -17 -30 c-10 -16 -46 -62 -81 -102 -37 -44 -72 -96 -86 -131
l-24 -59 44 -91 c96 -201 135 -259 201 -295 27 -15 42 -30 42 -43 0 -11 9 -29
20 -41 20 -22 28 -78 10 -78 -13 0 -30 34 -30 60 0 18 -3 17 -29 -12 l-30 -33
-46 45 c-40 38 -46 41 -39 20 5 -14 9 -50 9 -80 0 -54 -1 -55 -31 -58 -25 -3
-38 6 -85 55 -73 76 -101 126 -140 253 l-33 105 -13 -60 -12 -60 1 75 c1 154
-6 166 -41 70 -12 -33 -26 -58 -32 -55 -15 10 -11 38 16 109 29 78 29 77 12
101 -13 16 -17 12 -53 -54 -35 -65 -39 -70 -45 -47 -8 28 2 83 26 138 8 21 15
64 15 96 0 45 5 63 20 80 23 24 40 28 57 11 18 -18 48 41 70 130 27 114 23
206 -15 335 -18 60 -34 111 -35 113 -2 1 -11 -32 -21 -75 -24 -105 -79 -218
-119 -242 -65 -40 -138 -33 -197 17 -44 36 -52 64 -51 170 1 50 -6 120 -14
155 -11 50 -12 73 -3 103 l11 40 26 -78 c21 -62 29 -75 39 -65 17 17 15 57 -7
137 -20 70 -18 113 4 131 11 9 18 1 35 -37 12 -26 24 -61 27 -76 10 -51 27
-11 23 55 -6 108 -3 157 10 173 19 23 27 19 40 -20 6 -19 15 -35 19 -35 12 0
51 144 51 188 0 23 -5 53 -11 69 -14 38 -67 92 -107 110 -30 12 -37 12 -58 -2
-65 -42 -30 -177 41 -159 27 7 28 6 21 -26 -10 -53 -24 -63 -78 -58 -35 4 -60
14 -88 37 -45 36 -45 36 -25 -39 8 -30 15 -70 15 -88 0 -103 -121 -194 -201
-152 -18 10 -18 12 -3 34 9 15 20 75 29 163 18 181 30 230 68 294 43 71 96 99
187 99 120 0 195 -40 245 -131 25 -46 30 -68 33 -147 8 -166 -30 -285 -140
-444 -88 -125 -111 -173 -112 -230 -2 -94 62 -133 135 -82 79 54 100 97 164
334 30 110 53 148 161 271 59 68 84 89 104 89 14 0 31 4 39 9 16 10 6 31 -15
31 -16 0 -18 14 -4 40 9 18 12 17 43 -11 76 -71 159 -102 195 -72 l21 18 -35
56 c-39 62 -50 114 -40 184 l7 46 32 -27 c49 -41 127 -74 176 -74 48 0 118 29
146 60 17 19 17 20 1 20 -36 0 -112 41 -130 70 -17 30 -56 135 -56 153 0 5 8
6 18 2 9 -4 27 -10 39 -12z m6273 -14 c0 -5 -7 -9 -15 -9 -15 0 -20 12 -9 23
8 8 24 -1 24 -14z m-6170 -25 c17 -15 40 -45 51 -68 l20 -41 -43 48 c-24 26
-56 56 -73 67 -27 18 -28 20 -8 20 12 0 36 -12 53 -26z m350 10 c0 -9 -5 -14
-12 -12 -18 6 -21 28 -4 28 9 0 16 -7 16 -16z m6310 -19 c0 -8 -4 -15 -10 -15
-5 0 -10 7 -10 15 0 8 5 15 10 15 6 0 10 -7 10 -15z m-5809 -8 c-1 -12 -15 -9
-19 4 -3 6 1 10 8 8 6 -3 11 -8 11 -12z m5319 -16 c0 -6 -4 -13 -10 -16 -5 -3
-10 1 -10 9 0 9 5 16 10 16 6 0 10 -4 10 -9z m-5810 -21 c0 -5 -4 -10 -9 -10
-6 0 -13 5 -16 10 -3 6 1 10 9 10 9 0 16 -4 16 -10z m487 -36 c-9 -9 -28 6
-21 18 4 6 10 6 17 -1 6 -6 8 -13 4 -17z m5803 16 c0 -5 -4 -10 -10 -10 -5 0
-10 5 -10 10 0 6 5 10 10 10 6 0 10 -4 10 -10z m-470 -25 c0 -8 -4 -15 -10
-15 -5 0 -10 7 -10 15 0 8 5 15 10 15 6 0 10 -7 10 -15z m-5810 -20 c0 -8 -4
-15 -9 -15 -13 0 -22 16 -14 24 11 11 23 6 23 -9z m6270 -13 c0 -13 -12 -22
-22 -16 -10 6 -1 24 13 24 5 0 9 -4 9 -8z m-5800 -10 c0 -13 -12 -22 -22 -16
-10 6 -1 24 13 24 5 0 9 -4 9 -8z m5350 -21 c0 -6 -4 -13 -10 -16 -5 -3 -10 1
-10 9 0 9 5 16 10 16 6 0 10 -4 10 -9z m2310 -45 c0 -49 -28 -86 -64 -86 -18
0 -25 7 -30 28 -3 15 -8 37 -12 50 -6 19 -3 22 23 22 17 0 38 9 48 20 24 27
35 17 35 -34z m-8120 24 c0 -5 -4 -10 -10 -10 -5 0 -10 5 -10 10 0 6 5 10 10
10 6 0 10 -4 10 -10z m6242 -15 c0 -5 -5 -11 -11 -13 -6 -2 -11 4 -11 13 0 9
5 15 11 13 6 -2 11 -8 11 -13z m-8037 -45 c14 0 25 -1 25 -3 0 -2 -7 -24 -16
-50 -18 -53 -40 -61 -73 -26 -26 28 -34 69 -22 102 l10 27 25 -25 c14 -14 37
-25 51 -25z m2245 35 c0 -8 -4 -15 -10 -15 -5 0 -10 7 -10 15 0 8 5 15 10 15
6 0 10 -7 10 -15z m5370 -20 c0 -8 -4 -15 -10 -15 -5 0 -10 7 -10 15 0 8 5 15
10 15 6 0 10 -7 10 -15z m-5802 -16 c-2 -6 -8 -10 -13 -10 -5 0 -11 4 -13 10
-2 6 4 11 13 11 9 0 15 -5 13 -11z m6212 -19 c0 -5 -7 -10 -15 -10 -8 0 -15 5
-15 10 0 6 7 10 15 10 8 0 15 -4 15 -10z m-5790 -10 c0 -5 -7 -10 -16 -10 -8
0 -12 5 -9 10 3 6 10 10 16 10 5 0 9 -4 9 -10z m5400 -21 c0 -5 -7 -9 -15 -9
-9 0 -12 6 -9 15 6 15 24 11 24 -6z m-5808 -14 c0 -5 -5 -11 -11 -13 -6 -2
-11 4 -11 13 0 9 5 15 11 13 6 -2 11 -8 11 -13z m6173 -15 c3 -5 -1 -10 -9
-10 -9 0 -16 5 -16 10 0 6 4 10 9 10 6 0 13 -4 16 -10z m-5785 -15 c0 -8 -4
-15 -10 -15 -5 0 -10 7 -10 15 0 8 5 15 10 15 6 0 10 -7 10 -15z m5440 -15 c0
-5 -4 -10 -10 -10 -5 0 -10 5 -10 10 0 6 5 10 10 10 6 0 10 -4 10 -10z m-5800
-21 c0 -5 -7 -9 -15 -9 -15 0 -20 12 -9 23 8 8 24 -1 24 -14z m6120 -9 c0 -5
-7 -10 -15 -10 -8 0 -15 5 -15 10 0 6 7 10 15 10 8 0 15 -4 15 -10z m-5780
-15 c0 -8 -4 -15 -10 -15 -5 0 -10 7 -10 15 0 8 5 15 10 15 6 0 10 -7 10 -15z
m5490 -15 c0 -5 -7 -10 -15 -10 -8 0 -15 5 -15 10 0 6 7 10 15 10 8 0 15 -4
15 -10z m-5805 -20 c-3 -5 -10 -10 -16 -10 -5 0 -9 5 -9 10 0 6 7 10 16 10 8
0 12 -4 9 -10z m6051 -17 c-10 -10 -19 5 -10 18 6 11 8 11 12 0 2 -7 1 -15 -2
-18z m-5770 -20 c-10 -10 -19 5 -10 18 6 11 8 11 12 0 2 -7 1 -15 -2 -18z
m5554 7 c0 -5 -4 -10 -10 -10 -5 0 -10 5 -10 10 0 6 5 10 10 10 6 0 10 -4 10
-10z m-5800 -20 c0 -5 -7 -10 -15 -10 -8 0 -15 5 -15 10 0 6 7 10 15 10 8 0
15 -4 15 -10z m5980 0 c0 -5 -7 -10 -15 -10 -8 0 -15 5 -15 10 0 6 7 10 15 10
8 0 15 -4 15 -10z m-120 -16 c0 -17 -22 -14 -28 4 -2 7 3 12 12 12 9 0 16 -7
16 -16z m-5646 -15 c-3 -5 -10 -7 -15 -3 -5 3 -7 10 -3 15 3 5 10 7 15 3 5 -3
7 -10 3 -15z m5706 11 c0 -5 -7 -10 -15 -10 -8 0 -15 5 -15 10 0 6 7 10 15 10
8 0 15 -4 15 -10z m-5879 -33 c-13 -13 -26 -3 -16 12 3 6 11 8 17 5 6 -4 6
-10 -1 -17z m55 -24 c-10 -10 -19 5 -10 18 6 11 8 11 12 0 2 -7 1 -15 -2 -18z
m74 23 c0 -2 -7 -9 -15 -16 -12 -10 -15 -10 -15 4 0 9 7 16 15 16 8 0 15 -2
15 -4z m6652 -138 l31 -33 -51 -5 c-28 -3 -54 -8 -57 -12 -4 -4 25 -27 63 -52
129 -82 133 -121 18 -178 -121 -60 -177 -123 -162 -182 3 -14 26 -39 50 -56
25 -16 48 -39 51 -50 14 -43 -25 -209 -58 -248 -10 -12 -13 -11 -18 9 -4 13
-8 44 -8 69 l-2 45 -24 -40 c-14 -22 -28 -57 -32 -79 -3 -21 -17 -50 -30 -65
l-24 -26 7 78 c3 42 4 77 1 77 -3 0 -25 -36 -48 -79 -23 -44 -52 -92 -65 -108
l-23 -28 19 64 c11 36 18 67 16 68 -2 2 -15 -10 -29 -26 -48 -58 -117 -110
-153 -117 -33 -6 -69 11 -134 63 -10 8 26 23 57 23 17 0 35 5 39 12 5 8 -3 9
-29 5 -21 -3 -37 -3 -37 0 0 18 89 139 126 172 24 20 83 55 133 76 106 46 107
53 9 108 -35 19 -62 41 -61 48 1 8 13 64 27 124 14 61 29 152 32 202 9 121 17
129 111 114 79 -13 118 -5 164 33 40 34 55 33 91 -6z m-7542 -49 c44 -31 46
-31 137 -25 87 6 92 5 107 -16 10 -14 16 -44 16 -83 0 -50 19 -158 56 -326 5
-24 1 -30 -42 -55 -75 -42 -116 -84 -83 -84 26 0 187 -84 218 -113 18 -18 53
-61 77 -97 l44 -65 -35 -3 c-47 -4 -35 -22 15 -22 21 0 41 -4 44 -9 3 -4 -14
-22 -38 -40 -33 -23 -55 -31 -86 -31 -39 0 -48 6 -116 72 -41 39 -74 69 -74
67 0 -2 7 -29 15 -59 8 -30 13 -56 11 -57 -5 -5 -56 78 -96 155 -18 34 -34 61
-35 60 -1 -2 1 -37 5 -78 4 -41 5 -77 2 -80 -8 -11 -42 43 -48 78 -4 20 -17
54 -29 75 l-22 38 -7 -60 c-4 -34 -11 -61 -16 -61 -30 0 -81 196 -66 253 3 14
22 35 41 47 55 34 69 62 55 104 -15 46 -71 94 -165 139 -64 32 -75 41 -75 63
0 41 15 59 90 108 38 26 70 51 70 56 0 6 -22 10 -50 10 -27 0 -50 3 -50 7 0
14 54 63 69 63 9 0 36 -14 61 -31z m7087 -41 c-3 -7 -5 -2 -5 12 0 14 2 19 5
13 2 -7 2 -19 0 -25z m521 -4 c36 -41 28 -61 -11 -28 -18 16 -44 37 -57 47
l-25 18 35 -6 c20 -3 45 -16 58 -31z m-1028 -11 c0 -23 -17 -49 -26 -41 -9 10
4 58 16 58 6 0 10 -8 10 -17z m-6675 -11 c-49 -41 -105 -82 -105 -77 0 15 24
51 44 67 20 17 80 26 61 10z m452 -24 c-3 -7 -5 -2 -5 12 0 14 2 19 5 13 2 -7
2 -19 0 -25z m528 -19 c8 -23 1 -34 -14 -24 -13 8 -15 45 -2 45 5 0 13 -9 16
-21z m5719 -75 c3 -8 -2 -27 -11 -41 l-17 -25 -8 22 c-10 28 -1 60 17 60 7 0
16 -7 19 -16z m-5734 -70 c0 -40 -11 -44 -30 -9 -10 20 -11 27 0 40 18 21 30
9 30 -31z m5817 30 c7 -19 -9 -76 -24 -81 -13 -5 -30 44 -25 75 4 26 39 31 49
6z m203 -18 c0 -16 -26 -46 -41 -46 -5 0 -9 14 -9 30 0 25 4 30 25 30 15 0 25
-6 25 -14z m-6092 -51 c2 -16 -4 -39 -12 -50 -14 -20 -15 -19 -25 8 -6 16 -11
40 -11 53 0 21 4 25 23 22 16 -2 23 -11 25 -33z m-213 17 c6 -4 8 -20 5 -37
l-5 -30 -23 23 c-12 12 -22 29 -22 37 0 16 27 20 45 7z m6310 -612 c4 -6 -6
-10 -22 -10 -22 0 -25 2 -13 10 19 12 27 12 35 0z m-6315 -50 c0 -5 -9 -10
-20 -10 -11 0 -20 5 -20 10 0 6 9 10 20 10 11 0 20 -4 20 -10z m1123 -112
c103 -258 244 -602 258 -630 22 -43 54 -68 86 -68 13 0 23 -4 23 -10 0 -13
-210 -13 -230 0 -10 6 -11 10 -2 10 19 0 15 16 -26 125 l-38 100 -111 3 c-98
2 -111 1 -118 -15 -69 -174 -74 -213 -29 -213 13 0 24 -4 24 -10 0 -14 -214
-13 -263 1 -49 13 -98 62 -182 182 -64 91 -69 95 -111 102 -24 3 -48 3 -54 0
-15 -9 -12 -215 3 -245 9 -17 22 -26 45 -28 17 -2 32 -7 32 -13 0 -5 -60 -9
-140 -9 -87 0 -140 4 -140 10 0 6 13 10 29 10 24 0 31 6 40 31 14 39 15 597 1
619 -5 8 -26 20 -47 26 -32 11 -9 12 157 11 181 -2 198 -4 237 -25 76 -40 104
-139 64 -227 -10 -22 -37 -59 -60 -82 l-43 -42 84 -103 c99 -124 162 -188 183
-188 23 0 37 28 165 350 67 168 126 313 131 322 11 21 25 23 32 6z m1173 -310
c137 -340 163 -388 218 -388 14 0 26 -4 26 -10 0 -6 -41 -10 -104 -10 -109 0
-148 6 -125 21 10 6 3 33 -28 116 l-40 108 -113 0 -113 0 -35 -97 c-19 -54
-32 -104 -29 -113 4 -8 18 -15 32 -15 14 0 25 -4 25 -10 0 -6 -45 -10 -115
-10 -70 0 -115 4 -115 10 0 6 11 10 24 10 52 0 71 34 202 365 125 314 139 345
154 345 4 0 66 -145 136 -322z m2774 6 c126 -311 157 -377 186 -388 24 -9 107
-7 124 4 13 8 16 64 22 351 4 188 9 344 12 346 2 3 82 -76 178 -174 95 -98
216 -222 269 -277 l96 -99 -5 229 c-2 141 -9 239 -16 254 -7 16 -25 29 -51 36
-36 11 -27 12 90 12 113 0 126 -1 97 -11 -18 -7 -37 -19 -42 -27 -5 -8 -10
-73 -10 -145 0 -248 -13 -535 -23 -535 -13 0 -313 298 -432 429 -49 55 -93
100 -96 100 -3 1 -4 -81 -2 -181 6 -294 11 -318 74 -318 16 0 29 -4 29 -10 0
-11 -472 -15 -483 -3 -4 3 -3 11 2 17 6 7 -6 52 -31 119 l-41 108 -110 -3
-111 -3 -33 -85 c-40 -101 -40 -134 0 -138 15 -2 27 -8 27 -13 0 -5 -108 -9
-265 -9 -170 0 -265 4 -265 10 0 6 11 10 24 10 44 0 51 22 55 187 l3 153 -186
0 -186 0 0 -154 c0 -173 5 -186 66 -186 19 0 34 -4 34 -10 0 -6 -57 -10 -150
-10 -87 0 -150 4 -150 9 0 6 14 11 32 13 25 2 34 9 39 28 11 38 10 603 -1 620
-5 8 -26 20 -47 26 -33 10 -18 12 112 12 117 0 143 -2 120 -10 -54 -19 -55
-21 -55 -159 l0 -129 185 0 185 0 -1 118 c0 64 -4 126 -8 137 -5 12 -25 24
-52 31 -39 11 -28 12 106 13 100 0 145 -3 135 -9 -8 -5 -23 -10 -32 -10 -11 0
-21 -11 -25 -27 -14 -48 -8 -595 6 -620 10 -20 20 -23 74 -23 39 0 71 6 84 15
14 10 57 105 128 282 155 390 166 414 179 410 6 -2 67 -143 136 -313z m-2161
300 l31 -6 0 -69 c0 -37 -4 -71 -10 -74 -5 -3 -10 -1 -10 5 0 28 -35 82 -61
95 -15 8 -49 15 -74 15 -86 0 -133 -82 -87 -152 9 -14 55 -57 102 -95 98 -79
146 -144 156 -209 14 -95 -44 -189 -138 -220 -55 -18 -170 -16 -220 5 -27 10
-28 13 -28 90 0 87 14 115 25 51 17 -101 134 -150 221 -94 42 28 57 104 30
154 -8 14 -54 59 -102 101 -111 95 -145 141 -152 208 -6 64 2 92 35 132 40 47
95 69 179 69 39 0 86 -3 103 -6z m769 -8 c2 -3 1 -33 -3 -67 l-7 -62 -13 31
c-17 38 -60 52 -164 52 l-74 0 6 -299 c3 -190 9 -307 17 -320 8 -16 20 -21 51
-21 24 0 38 -4 34 -10 -4 -6 -65 -10 -151 -10 -89 0 -144 4 -144 10 0 6 11 10
24 10 49 0 51 11 54 338 l3 305 -107 -6 c-94 -4 -110 -8 -125 -26 -10 -12 -19
-27 -22 -34 -2 -6 -7 -9 -11 -6 -6 5 6 80 18 114 3 10 604 10 614 1z m-1917
-10 c-25 -9 -37 -21 -43 -42 -4 -16 -8 -164 -7 -329 0 -279 -1 -305 -20 -355
-27 -72 -67 -120 -144 -169 -82 -54 -104 -52 -40 4 84 73 85 83 91 475 2 184
0 351 -5 370 -8 30 -15 36 -54 46 -39 11 -28 12 106 12 131 0 146 -1 116 -12z
m5242 -434 c23 -26 52 -96 35 -86 -63 36 -93 76 -71 97 10 11 19 8 36 -11z
m86 -9 c-1 -16 -4 -39 -9 -53 l-7 -25 -8 28 c-8 31 1 77 15 77 6 0 10 -12 9
-27z m-7869 -67 c0 -12 -4 -28 -9 -35 -8 -12 -11 -8 -16 15 -4 16 -9 35 -11
42 -2 8 -1 19 2 24 9 15 34 -20 34 -46z m95 20 c0 -20 -71 -84 -81 -74 -6 6
20 62 39 86 14 18 42 10 42 -12z m4941 -781 c34 -82 128 -314 209 -515 81
-201 167 -406 191 -456 53 -113 104 -164 163 -164 44 0 71 -8 71 -21 0 -12
-447 -12 -455 0 -3 5 4 12 15 16 12 4 20 15 20 28 0 12 -31 103 -69 202 l-69
180 -207 0 -208 0 -58 -153 c-75 -195 -77 -252 -10 -252 38 0 72 -11 65 -21
-7 -12 -444 -12 -444 0 0 12 26 21 64 21 44 0 96 36 123 85 12 22 117 276 233
565 268 665 258 642 284 638 16 -2 33 -33 82 -153z m-2450 134 c93 -13 200
-50 275 -95 120 -72 225 -219 260 -364 20 -81 17 -270 -5 -355 -78 -297 -310
-484 -635 -511 -155 -13 -347 32 -463 109 -84 56 -171 155 -212 239 -60 126
-71 178 -71 323 1 116 4 139 29 210 37 106 77 174 146 249 154 163 399 234
676 195z m4778 -4 c43 -7 82 -17 86 -22 12 -13 -3 -256 -17 -260 -7 -3 -15 11
-19 34 -3 21 -17 56 -29 78 -41 72 -107 105 -208 105 -119 0 -197 -66 -197
-167 0 -28 4 -63 10 -77 15 -40 85 -111 194 -195 179 -138 254 -226 288 -333
24 -78 23 -150 -3 -234 -18 -57 -31 -77 -82 -129 -70 -70 -131 -98 -253 -117
-97 -15 -246 1 -312 34 l-47 23 2 144 c1 86 6 148 12 154 15 15 20 7 32 -59
25 -134 94 -202 226 -220 63 -8 149 15 194 53 66 56 87 158 49 241 -31 69 -67
108 -184 201 -138 109 -231 208 -265 280 -23 49 -26 69 -26 156 0 91 3 104 27
146 49 83 145 148 250 168 67 13 185 12 272 -4z m-6221 -24 c189 -44 289 -201
243 -380 -22 -86 -58 -144 -142 -227 l-72 -71 155 -189 c84 -104 182 -217 216
-252 65 -66 160 -122 208 -122 34 0 59 -9 59 -22 0 -6 -65 -8 -167 -6 -142 3
-174 6 -208 23 -64 31 -152 127 -290 318 -78 108 -136 179 -149 183 -12 3 -55
4 -96 2 l-75 -3 2 -197 c1 -108 7 -214 12 -236 12 -43 41 -62 96 -62 39 0 65
-8 65 -21 0 -12 -517 -12 -524 0 -7 10 27 21 65 21 37 0 58 29 69 96 14 85 13
1032 -1 1073 -14 39 -31 49 -103 57 -50 6 -64 13 -52 25 10 10 644 0 689 -10z
m2464 3 c2 -5 -11 -15 -28 -21 -29 -11 -31 -15 -25 -44 3 -18 27 -69 52 -113
147 -257 238 -413 249 -424 9 -10 38 35 140 218 169 305 180 339 115 363 -17
6 -29 16 -27 21 3 10 383 15 400 4 12 -7 12 -7 -58 -27 -96 -26 -139 -78 -323
-385 -177 -295 -166 -262 -170 -510 -2 -116 -1 -225 3 -244 10 -52 45 -82 97
-82 51 0 88 -9 88 -21 0 -5 -123 -9 -275 -9 -249 0 -308 5 -259 24 9 3 29 6
45 6 39 0 66 30 74 82 4 24 5 131 3 238 l-3 196 -32 64 c-37 75 -252 422 -319
517 -54 76 -109 119 -164 128 -38 6 -52 19 -30 27 24 8 444 0 447 -8z m2620
-1 c2 -6 -21 -13 -55 -17 -104 -12 -97 32 -97 -570 0 -479 1 -524 17 -548 25
-38 72 -48 221 -48 175 0 211 19 242 124 7 22 18 42 25 44 10 4 12 -12 6 -79
-9 -111 -21 -161 -43 -177 -15 -11 -94 -12 -423 -6 -378 6 -478 14 -384 29 74
12 81 15 95 42 11 23 15 125 17 564 4 608 4 599 -65 618 -21 6 -50 11 -65 11
-25 0 -35 9 -24 21 10 10 530 2 533 -8z"/>
<path d="M5874 8740 c-65 -33 -129 -68 -141 -78 -21 -17 -21 -17 64 -92 47
-41 116 -101 153 -132 l68 -58 48 37 c27 20 83 66 124 102 41 36 91 78 109 93
l34 26 -72 47 c-88 57 -211 115 -244 115 -13 0 -77 -27 -143 -60z"/>
<path d="M5220 6675 c-62 -21 -131 -74 -158 -123 l-23 -42 33 -20 c117 -72
328 -66 382 11 21 31 20 98 -2 125 -42 53 -151 76 -232 49z"/>
<path d="M6615 6656 c-57 -22 -85 -57 -85 -111 0 -55 38 -98 101 -115 72 -20
204 -9 271 22 67 31 68 43 6 113 -75 86 -201 124 -293 91z"/>
<path d="M9920 8455 c0 -11 7 -49 16 -85 19 -82 22 -267 4 -342 -24 -105 -74
-135 -105 -62 -11 27 -22 35 -65 48 -97 29 -214 39 -313 27 -86 -10 -204 -43
-257 -71 l-22 -12 22 -23 21 -22 60 24 c88 36 182 53 290 53 123 0 159 -7 159
-31 0 -26 35 -43 61 -29 17 10 25 6 58 -31 42 -45 52 -45 76 1 46 89 60 304
31 469 -14 79 -36 132 -36 86z"/>
<path d="M9026 8111 c-7 -11 39 -99 65 -126 15 -15 12 -5 -10 39 -17 32 -31
64 -31 71 0 17 -17 28 -24 16z"/>
<path d="M8930 8047 c0 -21 31 -82 60 -117 15 -19 12 -7 -11 45 -36 78 -49 98
-49 72z"/>
<path d="M8565 7330 c-3 -5 -1 -11 4 -14 19 -12 97 -17 126 -7 29 9 28 9 -15
10 -25 1 -60 5 -77 10 -18 5 -35 6 -38 1z"/>
<path d="M8550 7232 c0 -14 38 -22 100 -21 51 1 53 2 20 9 -68 16 -120 21
-120 12z"/>
<path d="M8703 7162 c-29 -18 29 -237 104 -387 53 -109 122 -203 202 -278 101
-93 131 -105 41 -16 -47 46 -108 117 -135 158 -86 131 -152 314 -171 474 -6
55 -15 66 -41 49z"/>
<path d="M2062 8403 c-29 -54 -48 -278 -33 -386 14 -97 49 -190 74 -195 12 -2
31 11 52 35 29 33 36 36 53 26 15 -9 24 -9 41 3 11 8 21 21 21 28 0 19 15 23
106 31 96 8 236 -13 331 -51 68 -27 86 -27 102 5 10 18 4 22 -72 49 -161 58
-354 67 -498 23 -56 -18 -67 -25 -80 -53 -10 -24 -20 -33 -38 -33 -72 0 -102
240 -56 454 16 75 15 98 -3 64z"/>
<path d="M2950 8056 c0 -7 -13 -40 -30 -72 -16 -32 -28 -59 -26 -61 1 -1 19
23 39 54 36 54 47 93 27 93 -5 0 -10 -6 -10 -14z"/>
<path d="M3023 7940 c-17 -39 -27 -68 -22 -64 13 8 69 106 69 122 0 29 -17 7
-47 -58z"/>
<path d="M3008 7763 c-17 -19 -16 -21 26 -66 86 -89 171 -234 197 -338 12 -44
15 -49 42 -49 27 0 28 2 22 33 -28 133 -92 251 -197 362 -71 75 -73 77 -90 58z"/>
<path d="M3404 7284 c-7 -3 -41 -9 -75 -13 l-64 -8 72 -2 c75 -1 107 5 97 20
-6 10 -12 10 -30 3z"/>
<path d="M3405 7190 c-11 -5 -45 -9 -75 -10 l-55 -2 43 -9 c47 -9 123 1 123
16 1 13 -12 15 -36 5z"/>
<path d="M3256 7104 c-3 -9 -6 -30 -6 -49 0 -49 -44 -211 -81 -300 -45 -109
-133 -236 -222 -322 -41 -40 -71 -73 -67 -73 17 0 183 166 226 226 93 131 179
342 191 471 5 59 4 63 -14 63 -12 0 -24 -7 -27 -16z"/>
<path d="M1988 4353 c7 -3 16 -2 19 1 4 3 -2 6 -13 5 -11 0 -14 -3 -6 -6z"/>
<path d="M3208 3914 c-5 -4 -8 -76 -8 -160 0 -171 -3 -164 79 -164 82 0 121
50 121 156 0 67 -21 116 -63 146 -30 21 -116 36 -129 22z"/>
<path d="M3932 3769 c-5 -13 -26 -68 -46 -122 -20 -53 -36 -100 -36 -102 0 -3
41 -5 90 -5 50 0 90 4 90 9 0 11 -79 233 -85 240 -3 2 -8 -7 -13 -20z"/>
<path d="M4980 3765 c-37 -94 -80 -211 -80 -217 0 -5 41 -8 90 -8 50 0 90 4
90 8 0 5 -20 62 -44 128 -43 116 -44 118 -56 89z"/>
<path d="M7722 3676 c-23 -62 -42 -118 -42 -124 0 -8 28 -12 91 -12 69 0 90 3
86 13 -2 6 -21 59 -42 117 -21 58 -41 108 -44 112 -4 4 -26 -43 -49 -106z"/>
<path d="M6971 2458 c-4 -13 -40 -109 -80 -214 -39 -104 -71 -193 -71 -197 0
-4 75 -7 166 -7 133 0 165 3 162 13 -11 47 -154 427 -161 427 -4 0 -11 -10
-16 -22z"/>
<path d="M4350 2724 c-147 -40 -243 -150 -285 -328 -20 -83 -19 -287 1 -379
26 -118 86 -232 163 -307 107 -106 214 -146 370 -138 103 5 180 38 240 103 97
105 133 221 134 430 1 161 -14 238 -69 352 -103 214 -335 326 -554 267z"/>
<path d="M2923 2710 l-23 -9 0 -274 c0 -238 2 -276 16 -288 17 -14 168 -25
208 -15 36 9 94 62 116 107 68 132 34 344 -67 428 -62 52 -186 77 -250 51z"/>
</g>
</svg>
