<?xml version="1.0" standalone="no"?>
<!DOCTYPE svg PUBLIC "-//W3C//DTD SVG 20010904//EN"
 "http://www.w3.org/TR/2001/REC-SVG-20010904/DTD/svg10.dtd">
<svg version="1.0" xmlns="http://www.w3.org/2000/svg"
 width="512.000000pt" height="341.000000pt" viewBox="0 0 512.000000 341.000000"
 preserveAspectRatio="xMidYMid meet">

<g transform="translate(0.000000,341.000000) scale(0.100000,-0.100000)"
fill="#000000" stroke="none">
<path d="M2485 2737 c-30 -25 -48 -97 -35 -133 22 -56 97 -83 151 -54 27 15
29 113 2 108 -12 -3 -17 -12 -16 -26 6 -51 -80 -48 -93 4 -6 22 -2 32 20 50
22 19 31 22 52 13 49 -18 75 28 29 49 -40 18 -81 14 -110 -11z"/>
<path d="M2345 2729 c-4 -6 -2 -31 5 -55 7 -25 11 -46 9 -49 -3 -2 -27 14 -54
35 -50 40 -78 49 -90 30 -3 -5 8 -54 25 -109 27 -87 33 -98 50 -94 24 6 24 5
5 66 -8 26 -11 47 -8 47 3 0 30 -18 60 -40 43 -33 57 -39 72 -31 18 10 17 14
-12 111 -29 93 -45 117 -62 89z"/>
<path d="M2755 2729 c-8 -25 -45 -177 -45 -187 0 -23 35 -17 46 7 9 22 15 25
55 23 35 -3 49 1 63 17 19 20 23 62 11 99 -10 33 -120 67 -130 41z m76 -59
c38 -21 11 -58 -32 -45 -20 7 -23 14 -13 39 7 19 18 20 45 6z"/>
<path d="M2921 2636 c-40 -70 -45 -140 -11 -168 33 -27 70 -33 99 -17 24 13
90 127 91 157 0 11 -4 14 -31 16 -5 1 -25 -26 -42 -59 -34 -64 -62 -80 -87
-50 -12 14 -9 26 18 81 18 35 32 66 32 69 0 2 -9 9 -19 15 -17 9 -23 3 -50
-44z"/>
<path d="M2133 2653 c-21 -8 -16 -28 29 -118 42 -85 56 -97 77 -72 8 11 0 35
-37 105 -26 51 -49 91 -52 91 -3 0 -11 -3 -17 -6z"/>
<path d="M2014 2581 c-22 -14 -33 -29 -37 -53 -10 -64 32 -93 98 -68 15 6 31
7 37 4 15 -10 -20 -34 -49 -34 -19 0 -23 -5 -23 -30 0 -25 4 -30 24 -30 12 0
38 10 57 23 28 19 35 30 37 63 4 59 -22 80 -80 66 -54 -14 -73 2 -23 18 25 8
35 16 31 27 -3 8 -6 19 -6 24 0 15 -33 10 -66 -10z"/>
<path d="M3086 2494 c-65 -74 -67 -77 -49 -96 17 -19 18 -19 54 24 21 24 40
40 43 37 4 -3 2 -35 -3 -70 -8 -54 -7 -67 7 -81 16 -16 21 -12 85 64 64 77 67
82 51 99 -16 18 -18 18 -51 -21 -40 -47 -55 -51 -49 -12 14 78 8 132 -13 132
-5 0 -39 -34 -75 -76z"/>
<path d="M1885 2470 c-19 -21 -18 -21 55 -95 l74 -75 21 20 20 20 -76 76 -75
75 -19 -21z"/>
<path d="M2505 2434 c-11 -2 -45 -9 -75 -15 -85 -16 -207 -80 -277 -144 -35
-31 -63 -62 -63 -68 0 -6 15 4 32 22 52 53 152 120 217 145 66 27 238 63 248
52 11 -10 -3 -17 -48 -23 -24 -4 -58 -17 -77 -30 -19 -12 -40 -23 -46 -23 -6
0 -24 -16 -41 -35 -17 -21 -39 -35 -52 -35 -16 0 -21 -4 -17 -15 4 -9 -3 -16
-20 -21 -15 -3 -31 -15 -37 -25 -5 -11 -17 -19 -25 -19 -9 0 -27 -9 -41 -20
-14 -11 -34 -20 -44 -20 -11 0 -19 -5 -19 -12 0 -6 -8 -4 -19 6 -18 16 -20 15
-45 -15 -92 -109 -139 -337 -102 -500 9 -41 27 -100 40 -131 13 -32 22 -58 19
-58 -4 0 -63 126 -77 165 -6 16 -9 17 -16 5 -6 -8 -10 -11 -10 -6 0 5 -9 -2
-21 -15 l-21 -24 21 -3 c13 -2 21 -11 21 -23 0 -16 -7 -19 -47 -19 -25 0 -43
-3 -39 -7 4 -5 29 -8 54 -8 40 0 47 -3 44 -19 -2 -10 1 -15 7 -12 5 4 13 -4
17 -16 19 -61 130 -189 221 -254 270 -194 644 -174 889 49 64 58 154 175 154
200 0 9 7 17 16 17 10 0 14 6 11 15 -4 8 -2 17 3 20 6 4 10 17 10 31 0 15 6
24 15 24 8 0 15 6 15 14 0 19 -17 29 -25 15 -4 -5 -13 -8 -20 -5 -8 3 -18 -7
-25 -25 -20 -47 -22 -27 -4 47 24 102 15 255 -20 359 -25 72 -85 177 -133 231
-32 36 -60 95 -31 66 17 -17 45 -15 52 3 5 13 2 14 -17 4 -19 -11 -21 -10 -9
3 11 14 7 21 -30 50 -62 50 -78 56 -40 17 17 -19 32 -38 32 -41 0 -9 -43 3
-60 17 -28 22 -148 75 -207 90 -59 16 -202 28 -238 19z m399 -294 c-2 -14 -6
-47 -9 -75 -7 -74 -28 -158 -43 -174 -7 -7 -11 -20 -8 -28 3 -8 -1 -22 -10
-31 -16 -15 -16 -13 -9 33 4 28 11 57 15 65 4 8 11 40 15 70 4 30 13 93 21
139 8 46 15 89 15 95 1 6 5 -7 9 -29 5 -22 6 -51 4 -65z m36 -62 c-6 -40 -14
-76 -18 -80 -5 -5 -2 29 4 75 7 45 14 87 14 92 1 6 4 4 7 -2 2 -7 0 -45 -7
-85z m147 11 c3 -18 9 -26 13 -19 5 8 10 2 14 -14 3 -14 11 -26 16 -26 23 0
58 -118 66 -226 5 -56 3 -73 -10 -83 -9 -8 -16 -20 -16 -28 0 -45 -74 -154
-121 -178 -37 -20 -46 -19 -54 6 -4 11 -12 18 -19 16 -18 -7 -18 99 0 114 8 6
14 24 14 40 0 15 5 31 11 35 6 3 9 15 6 25 -3 10 -1 22 4 25 5 3 9 18 9 33 0
15 5 32 12 39 9 9 9 18 -1 38 -6 15 -9 29 -6 32 3 3 5 -1 5 -8 0 -10 3 -11 11
-3 8 8 9 20 1 42 -9 25 -8 29 4 24 17 -6 17 -3 4 32 -7 17 -7 24 0 20 10 -6
15 25 12 73 -1 33 18 27 25 -9z m-106 -32 c-5 -5 -7 -16 -4 -23 3 -8 0 -14 -7
-14 -8 0 -10 8 -6 23 3 12 6 33 6 47 l1 25 10 -24 c6 -16 6 -28 0 -34z m49 13
c-4 -23 -11 -44 -15 -48 -4 -4 -5 4 -2 18 4 14 7 35 7 48 0 12 4 22 9 22 4 0
5 -18 1 -40z m-640 -15 c0 -8 7 -15 15 -15 10 0 15 -9 14 -27 0 -16 -3 -22 -6
-16 -4 10 -10 10 -26 -2 -12 -8 -31 -15 -42 -15 -15 0 -17 2 -6 9 7 5 10 14 6
21 -9 15 14 60 32 60 7 0 13 -7 13 -15z m640 -54 c0 -6 -5 -13 -11 -16 -6 -4
-8 -14 -4 -24 5 -12 3 -13 -5 -5 -13 13 -5 54 11 54 5 0 9 -4 9 -9z m-563 -88
c6 -16 -40 -25 -52 -10 -5 6 -16 12 -22 13 -7 1 -22 2 -33 3 -13 0 -20 8 -20
20 0 29 57 32 94 5 17 -11 31 -25 33 -31z m534 -9 c-9 -28 -9 -29 -10 -3 -1
14 2 29 6 32 11 12 13 2 4 -29z m-14 -81 c-4 -17 -4 -17 -12 0 -4 9 -4 25 0
35 8 16 8 16 12 0 3 -10 3 -26 0 -35z m-7 -48 c0 -8 -4 -17 -10 -20 -6 -4 -10
5 -10 20 0 15 4 24 10 20 6 -3 10 -12 10 -20z m-180 -55 c0 -5 -4 -10 -10 -10
-5 0 -10 5 -10 10 0 6 5 10 10 10 6 0 10 -4 10 -10z m147 -22 c-3 -7 -5 -2 -5
12 0 14 2 19 5 13 2 -7 2 -19 0 -25z m240 -35 c-3 -10 -5 -4 -5 12 0 17 2 24
5 18 2 -7 2 -21 0 -30z m-257 -22 c0 -6 -4 -13 -10 -16 -5 -3 -10 1 -10 9 0 9
5 16 10 16 6 0 10 -4 10 -9z m-30 -71 c0 -5 -5 -10 -11 -10 -5 0 -7 5 -4 10 3
6 8 10 11 10 2 0 4 -4 4 -10z m94 -298 c-63 -59 -147 -105 -243 -131 -41 -11
-76 -19 -78 -17 -9 8 27 25 76 35 64 14 167 66 236 121 67 52 71 49 9 -8z
m-674 -40 c0 -12 -46 -32 -54 -24 -4 3 4 12 16 19 27 15 38 16 38 5z m170 -52
c-15 -28 -69 -55 -83 -41 -6 6 -19 11 -30 11 -10 0 -28 5 -40 11 l-21 12 22 8
c12 5 36 6 52 2 24 -4 28 -8 19 -19 -20 -24 13 -16 46 11 37 30 49 32 35 5z
m79 -33 c-29 -23 -64 -31 -86 -19 -16 9 -15 11 10 17 15 4 27 10 27 14 0 4 16
7 35 7 36 -1 36 -1 14 -19z"/>
<path d="M3181 1744 c0 -11 3 -14 6 -6 3 7 2 16 -1 19 -3 4 -6 -2 -5 -13z"/>
<path d="M3252 2349 c-41 -28 -76 -58 -79 -65 -3 -8 15 -41 39 -73 41 -55 46
-59 61 -44 14 14 13 19 -10 55 -21 31 -24 41 -14 51 13 12 18 7 54 -46 11 -16
14 -16 31 -4 19 14 19 15 -3 46 -14 19 -20 38 -16 49 5 14 13 10 44 -27 33
-39 38 -41 51 -27 12 15 8 24 -27 73 -22 31 -44 58 -49 60 -5 1 -42 -20 -82
-48z"/>
<path d="M1798 2365 c-27 -26 -65 -92 -58 -98 3 -2 40 -30 83 -61 74 -55 79
-57 92 -39 19 24 18 27 -5 48 -26 24 -16 37 26 33 24 -2 38 3 48 17 22 29 20
32 -24 39 -26 4 -40 11 -40 22 0 23 -46 64 -73 64 -13 0 -35 -11 -49 -25z m72
-50 c10 -13 10 -19 -5 -35 -16 -18 -19 -18 -41 -3 -23 15 -24 17 -8 34 21 23
37 24 54 4z"/>
<path d="M364 2229 c-3 -6 0 -15 7 -20 14 -9 14 -9 -23 -13 -17 -1 -23 -35 -9
-49 8 -8 14 -8 22 0 7 7 21 8 41 2 17 -4 35 -6 41 -2 5 3 13 -1 18 -8 7 -11
50 -14 224 -12 152 2 215 -1 215 -8 0 -8 4 -8 13 0 9 7 73 10 181 10 92 0 170
2 174 5 3 3 -8 6 -23 6 -18 0 -25 4 -20 9 6 5 74 11 152 13 79 2 143 6 143 9
0 11 -29 19 -73 20 -35 0 -38 2 -19 9 65 27 -28 34 -238 19 -14 -1 0 -6 30
-10 34 -4 -9 -6 -115 -5 -111 2 -178 7 -193 15 -14 8 -65 12 -140 11 -64 -1
-154 2 -199 5 -51 4 -90 2 -102 -4 -13 -7 -22 -8 -26 -1 -8 14 -72 13 -81 -1z
m503 -16 c-20 -2 -52 -2 -70 0 -17 2 0 4 38 4 39 0 53 -2 32 -4z"/>
<path d="M4730 2232 c0 -4 -37 -8 -82 -9 -46 0 -107 -4 -135 -8 -37 -5 -53 -4
-53 4 0 6 -16 11 -36 11 -21 0 -33 -4 -29 -10 8 -13 -1 -14 -348 -19 -104 -1
-191 0 -195 3 -3 3 19 6 48 6 29 0 51 2 49 4 -9 9 -144 15 -192 9 -38 -5 -45
-8 -36 -19 9 -11 6 -14 -19 -14 -33 0 -62 -9 -62 -19 0 -3 64 -8 143 -10 144
-3 182 -9 137 -22 -26 -7 130 -11 440 -10 336 0 351 1 346 10 -8 12 72 19 84
7 15 -15 42 2 38 26 -2 19 -9 23 -37 21 -34 -1 -32 11 4 20 13 3 9 5 -12 6
-18 0 -33 6 -33 11 0 6 -4 10 -10 10 -5 0 -10 -3 -10 -8z"/>
<path d="M1037 2223 c18 -2 50 -2 70 0 21 2 7 4 -32 4 -38 0 -55 -2 -38 -4z"/>
<path d="M1525 2220 c-3 -5 -1 -10 4 -10 6 0 11 5 11 10 0 6 -2 10 -4 10 -3 0
-8 -4 -11 -10z"/>
<path d="M3145 2165 c3 -38 53 -165 67 -165 20 0 7 87 -22 137 -37 65 -47 71
-45 28z"/>
<path d="M1510 2130 c0 -14 26 -23 41 -15 8 6 7 10 -2 16 -19 12 -39 11 -39
-1z"/>
<path d="M1570 2132 c0 -5 17 -14 38 -20 l37 -11 -24 19 c-24 21 -51 26 -51
12z"/>
<path d="M3545 2123 c-20 -15 -19 -15 5 -9 14 3 28 6 33 6 4 0 7 5 7 10 0 15
-22 12 -45 -7z"/>
<path d="M3611 2131 c-24 -15 -3 -32 24 -19 13 6 22 15 19 19 -7 11 -25 11
-43 0z"/>
<path d="M3815 2129 c-24 -5 -20 -7 23 -8 28 0 52 1 52 3 0 8 -47 11 -75 5z"/>
<path d="M1313 2123 c15 -2 37 -2 50 0 12 2 0 4 -28 4 -27 0 -38 -2 -22 -4z"/>
<path d="M1650 2116 c0 -9 6 -16 14 -16 8 0 16 -10 18 -22 2 -17 19 -27 81
-48 42 -15 77 -23 77 -18 0 5 -6 10 -12 12 -69 19 -98 31 -98 38 0 11 34 10
46 -2 6 -6 24 -13 39 -16 36 -6 47 -13 40 -24 -3 -5 4 -14 16 -21 17 -9 23 -8
30 2 14 22 11 29 -11 29 -11 0 -20 5 -20 11 0 19 -33 39 -46 28 -8 -6 -29 -3
-62 10 -27 11 -53 17 -56 14 -3 -4 -6 1 -6 10 0 10 -4 17 -9 17 -5 0 -16 3
-25 6 -11 4 -16 1 -16 -10z"/>
<path d="M3478 2123 c-10 -2 -18 -11 -18 -19 0 -8 -4 -13 -9 -9 -5 3 -12 1
-16 -5 -4 -6 -10 -8 -15 -5 -5 3 -11 1 -15 -5 -3 -5 1 -10 9 -10 28 0 17 -17
-16 -28 -25 -7 -27 -10 -12 -11 38 -2 94 27 94 49 0 11 7 20 15 20 8 0 15 7
15 15 0 15 -2 16 -32 8z"/>
<path d="M540 2090 c0 -5 7 -10 16 -10 8 0 12 5 9 10 -3 6 -10 10 -16 10 -5 0
-9 -4 -9 -10z"/>
<path d="M580 2090 c0 -12 47 -12 75 0 15 6 8 9 -27 9 -27 1 -48 -3 -48 -9z"/>
<path d="M892 2091 c2 -7 7 -12 11 -12 12 1 9 15 -3 20 -7 2 -11 -2 -8 -8z"/>
<path d="M3525 2085 l-30 -13 27 -1 c15 -1 30 4 33 10 11 17 2 18 -30 4z"/>
<path d="M4000 2090 c0 -5 5 -10 11 -10 5 0 7 5 4 10 -3 6 -8 10 -11 10 -2 0
-4 -4 -4 -10z"/>
<path d="M4247 2094 c-8 -8 1 -24 14 -24 5 0 9 7 9 15 0 15 -12 20 -23 9z"/>
<path d="M4296 2091 c-4 -5 -2 -12 3 -15 5 -4 12 -2 15 3 4 5 2 12 -3 15 -5 4
-12 2 -15 -3z"/>
<path d="M4390 2090 c-10 -7 26 -10 110 -10 69 0 132 5 140 10 10 7 -26 10
-110 10 -69 0 -132 -5 -140 -10z"/>
<path d="M808 2083 c7 -3 16 -2 19 1 4 3 -2 6 -13 5 -11 0 -14 -3 -6 -6z"/>
<path d="M1605 2080 c3 -5 18 -10 33 -9 24 0 25 1 7 9 -28 12 -47 12 -40 0z"/>
<path d="M4338 2083 c6 -2 18 -2 25 0 6 3 1 5 -13 5 -14 0 -19 -2 -12 -5z"/>
<path d="M1514 2065 c25 -19 36 -19 36 0 0 10 -10 15 -27 15 -27 -1 -27 -1 -9
-15z"/>
<path d="M3307 2066 c-9 -7 -17 -18 -17 -25 0 -6 -9 -11 -20 -11 -19 0 -28
-24 -12 -33 15 -9 52 12 46 27 -4 10 6 16 35 21 23 4 44 12 48 17 4 7 -2 9
-17 5 -13 -3 -29 -2 -35 3 -6 5 -17 3 -28 -4z"/>
<path d="M3605 2071 c-3 -5 -1 -12 4 -15 12 -8 41 3 41 15 0 12 -37 12 -45 0z"/>
<path d="M386 2009 l20 -34 110 -5 c60 -3 309 -4 552 -3 372 2 449 0 479 -12
35 -15 58 -12 48 6 -4 5 -22 9 -41 9 -25 0 -34 4 -34 16 0 12 7 15 25 12 33
-7 43 9 13 21 -13 5 -286 12 -607 16 l-584 7 19 -33z"/>
<path d="M1600 2032 c0 -11 24 -22 48 -22 21 0 5 15 -25 25 -13 3 -23 2 -23
-3z"/>
<path d="M3528 2033 c-16 -2 -28 -9 -28 -15 0 -12 49 -2 65 13 5 6 5 8 0 8 -6
-1 -22 -4 -37 -6z"/>
<path d="M3895 2030 c-159 -3 -296 -9 -303 -13 -19 -13 -5 -25 23 -19 18 3 25
0 25 -12 0 -10 -9 -16 -24 -16 -32 0 -57 -10 -51 -21 3 -4 24 -1 47 7 47 16
323 20 348 4 9 -5 19 -5 27 2 8 6 27 7 50 3 47 -10 243 -12 300 -4 23 3 46 3
50 -1 12 -11 75 -21 69 -11 -3 5 4 9 17 9 12 -1 81 3 153 7 l132 8 16 34 16
34 -302 -3 c-167 -2 -433 -5 -593 -8z"/>
<path d="M1675 2020 c-6 -10 17 -22 95 -46 50 -15 77 -18 66 -6 -4 4 -11 7
-14 7 -20 2 -88 30 -100 42 -16 15 -38 17 -47 3z"/>
<path d="M3438 2017 c-7 -8 -38 -23 -68 -35 -63 -24 -48 -29 22 -8 58 18 88
34 88 46 0 15 -26 12 -42 -3z"/>
<path d="M1620 1974 c0 -8 3 -14 8 -15 4 0 17 -2 30 -3 31 -4 27 8 -8 21 -25
9 -30 9 -30 -3z"/>
<path d="M1700 1966 c0 -7 15 -20 33 -30 17 -9 24 -15 15 -12 -9 3 -22 -2 -28
-10 -10 -11 -9 -14 4 -14 9 0 16 -7 16 -15 0 -17 -13 -19 -58 -6 -20 6 -32 6
-32 0 0 -12 15 -17 70 -23 25 -3 50 -5 55 -6 6 -1 0 -5 -12 -10 -13 -5 -23
-14 -23 -20 0 -5 10 -10 23 -10 12 0 29 -5 37 -10 12 -8 11 -10 -7 -10 -14 0
-23 -6 -23 -15 0 -8 9 -15 21 -15 11 0 30 -5 41 -11 14 -7 23 -8 31 0 7 7 2
12 -17 17 -14 3 -26 12 -26 19 0 8 8 11 20 8 11 -3 20 0 20 6 0 9 -27 16 -52
13 -3 -1 -9 5 -12 13 -5 15 13 14 62 -1 8 -2 12 8 12 28 0 17 -3 29 -6 25 -3
-3 -20 1 -37 8 -22 9 -37 10 -50 3 -10 -5 -21 -7 -25 -4 -3 3 0 6 6 6 7 0 12
7 12 15 0 11 8 14 30 10 17 -3 30 -1 30 5 0 5 -3 9 -7 8 -18 -4 -72 14 -76 26
-7 18 -47 28 -47 12z m145 -104 c5 0 11 -6 14 -13 2 -8 -2 -10 -13 -6 -10 4
-26 7 -37 7 -10 0 -19 7 -19 15 0 11 5 12 23 6 12 -5 26 -9 32 -9z"/>
<path d="M1850 1966 c0 -7 9 -16 20 -19 15 -4 20 0 20 14 0 12 -7 19 -20 19
-11 0 -20 -6 -20 -14z"/>
<path d="M3270 1962 c0 -15 5 -19 20 -15 24 6 21 26 -3 31 -11 2 -17 -3 -17
-16z"/>
<path d="M3493 1973 c-21 -8 -15 -20 10 -18 35 4 37 4 37 15 0 10 -26 12 -47
3z"/>
<path d="M3414 1956 c-3 -8 -19 -18 -35 -21 -16 -4 -27 -11 -24 -15 3 -5 12
-7 20 -3 8 3 15 0 15 -6 0 -5 -18 -15 -40 -21 -22 -6 -38 -15 -35 -20 3 -6 15
-6 30 0 19 7 25 6 25 -4 0 -7 -6 -13 -12 -13 -7 0 -23 -3 -35 -7 -17 -5 -23
-3 -23 8 0 8 -4 17 -8 20 -5 3 -6 -8 -4 -24 2 -16 9 -27 16 -25 45 14 65 14
60 2 -2 -7 -16 -14 -31 -15 -28 -2 -40 -9 -31 -17 9 -10 119 18 115 29 -2 6
-12 10 -21 10 -9 -1 -16 2 -16 7 0 5 9 9 19 9 30 0 35 19 9 29 -14 6 -17 10
-8 12 8 0 27 3 41 4 33 4 99 33 77 34 -9 1 -28 -3 -41 -8 -14 -6 -38 -6 -53
-2 l-28 7 32 13 c18 7 32 17 32 22 0 15 -40 10 -46 -5z"/>
<path d="M1636 1920 c14 -14 64 -23 64 -11 0 9 -33 21 -59 21 -11 0 -12 -3 -5
-10z"/>
<path d="M3317 1919 c-9 -5 -22 -7 -27 -4 -6 3 -10 -1 -10 -9 0 -12 5 -13 30
-5 17 6 30 15 30 20 0 11 -1 11 -23 -2z"/>
<path d="M440 1909 c0 -3 10 -15 23 -26 17 -16 45 -23 125 -32 56 -6 130 -11
163 -11 38 0 58 -4 54 -10 -4 -6 10 -10 35 -10 25 0 39 4 35 10 -4 7 51 10
157 11 310 1 579 6 585 12 3 4 -13 9 -36 13 -24 4 -41 12 -41 20 0 9 10 11 35
7 26 -4 35 -2 35 8 0 12 -94 14 -585 14 -322 0 -585 -3 -585 -6z"/>
<path d="M1840 1911 c0 -5 9 -11 20 -14 12 -3 20 0 20 7 0 6 -9 12 -20 13 -11
1 -20 -2 -20 -6z"/>
<path d="M3550 1901 c0 -10 9 -12 35 -8 25 4 35 2 35 -7 0 -8 -17 -16 -41 -20
-23 -4 -39 -9 -36 -13 4 -3 118 -7 254 -9 419 -7 547 -11 577 -19 21 -6 27 -5
22 4 -5 7 1 11 16 12 119 3 205 9 231 14 29 7 77 40 77 54 0 3 -263 6 -585 6
-491 0 -585 -2 -585 -14z"/>
<path d="M3473 1878 c-18 -5 -33 -11 -33 -13 0 -9 45 -5 60 5 22 14 9 18 -27
8z"/>
<path d="M1660 1825 c0 -6 16 -12 35 -13 19 -2 35 2 35 7 0 5 -16 11 -35 13
-21 2 -35 0 -35 -7z"/>
<path d="M3470 1832 c-35 -5 -50 -22 -19 -22 24 0 58 16 49 22 -3 2 -16 2 -30
0z"/>
<path d="M1594 1810 c-7 -7 -189 -9 -536 -8 l-526 3 31 -27 c18 -15 48 -30 67
-34 70 -15 1010 -7 1010 9 0 4 -6 8 -12 9 -7 0 -17 2 -23 3 -5 2 -18 3 -27 4
-36 2 -16 21 22 21 29 0 40 4 40 15 0 17 -31 20 -46 5z"/>
<path d="M3516 1805 c-4 -12 4 -15 39 -15 56 0 59 -15 5 -24 -84 -13 -34 -21
137 -21 97 0 228 -4 292 -8 64 -5 216 -5 339 -2 l222 7 36 29 37 29 -526 0
c-340 0 -528 4 -532 10 -9 15 -42 12 -49 -5z"/>
<path d="M1685 1780 c3 -5 21 -10 38 -10 24 0 28 3 17 10 -20 13 -63 13 -55 0z"/>
<path d="M3340 1781 c0 -5 -12 -12 -26 -15 -19 -5 -24 -10 -17 -17 8 -8 17 -7
31 0 11 6 30 11 41 11 12 0 21 7 21 15 0 9 -9 15 -25 15 -14 0 -25 -4 -25 -9z"/>
<path d="M3420 1780 c-11 -7 -7 -10 18 -10 17 0 32 5 32 10 0 13 -30 13 -50 0z"/>
<path d="M1770 1741 c0 -6 -16 -8 -40 -5 -26 4 -40 2 -40 -5 0 -6 19 -11 43
-11 23 0 67 -3 97 -6 52 -6 70 2 21 9 -12 2 -26 8 -29 13 -10 13 -52 17 -52 5z"/>
<path d="M3333 1733 c-3 -7 -8 -11 -12 -9 -4 3 -13 0 -21 -5 -11 -8 -1 -9 34
-5 27 3 68 6 92 6 26 0 44 5 44 11 0 7 -12 9 -36 5 -19 -4 -41 -3 -47 2 -17
13 -48 11 -54 -5z"/>
<path d="M660 1701 c0 -5 15 -18 33 -29 42 -26 186 -33 572 -31 354 1 348 1
358 17 4 6 24 12 45 12 35 0 35 1 19 18 -16 16 -58 17 -522 20 -327 2 -505 0
-505 -7z"/>
<path d="M3523 1703 c-52 -5 -82 -33 -35 -33 16 0 41 -6 56 -14 19 -10 94 -14
298 -17 442 -5 573 1 626 33 17 11 32 24 32 29 0 9 -883 10 -977 2z"/>
<path d="M1810 1681 c0 -8 61 -22 69 -15 1 1 0 7 -4 13 -8 13 -65 15 -65 2z"/>
<path d="M3287 1683 c-14 -13 -6 -23 16 -19 12 3 28 5 35 5 7 1 10 6 7 11 -7
11 -48 14 -58 3z"/>
<path d="M1735 1670 c3 -5 17 -10 30 -10 13 0 27 5 30 10 4 6 -8 10 -30 10
-22 0 -34 -4 -30 -10z"/>
<path d="M3360 1670 c0 -5 16 -10 35 -10 19 0 35 5 35 10 0 6 -16 10 -35 10
-19 0 -35 -4 -35 -10z"/>
<path d="M1840 1635 c0 -9 9 -15 25 -15 16 0 25 6 25 15 0 9 -9 15 -25 15 -16
0 -25 -6 -25 -15z"/>
<path d="M3266 1635 c-4 -11 2 -15 24 -15 20 0 30 5 30 15 0 9 -9 15 -24 15
-13 0 -26 -7 -30 -15z"/>
<path d="M1665 1630 c3 -5 15 -10 26 -10 10 0 19 5 19 10 0 6 -12 10 -26 10
-14 0 -23 -4 -19 -10z"/>
<path d="M3450 1630 c0 -5 9 -10 19 -10 11 0 23 5 26 10 4 6 -5 10 -19 10 -14
0 -26 -4 -26 -10z"/>
<path d="M1760 1620 c0 -5 13 -10 29 -10 17 0 33 5 36 10 4 6 -8 10 -29 10
-20 0 -36 -4 -36 -10z"/>
<path d="M3330 1620 c0 -5 15 -10 34 -10 19 0 38 5 41 10 4 6 -10 10 -34 10
-23 0 -41 -4 -41 -10z"/>
<path d="M1211 1613 l-423 -3 28 -23 c45 -35 143 -38 717 -21 119 3 217 10
217 15 0 5 -20 9 -45 9 -33 0 -45 4 -45 15 0 8 -6 14 -12 13 -7 -2 -204 -4
-437 -5z"/>
<path d="M3500 1604 c0 -10 -13 -14 -45 -14 -25 0 -45 -4 -45 -8 0 -21 858
-31 902 -12 89 40 96 40 -337 41 -225 1 -425 2 -442 4 -23 2 -33 -2 -33 -11z"/>
<path d="M1790 1570 c0 -5 16 -10 35 -10 19 0 35 5 35 10 0 6 -16 10 -35 10
-19 0 -35 -4 -35 -10z"/>
<path d="M3300 1570 c0 -5 16 -10 35 -10 19 0 35 5 35 10 0 6 -16 10 -35 10
-19 0 -35 -4 -35 -10z"/>
<path d="M1645 1539 c-66 -3 -259 -7 -430 -9 -170 -1 -301 -5 -290 -9 11 -4
38 -15 59 -25 37 -16 72 -18 423 -14 311 2 383 5 383 16 0 10 -10 12 -40 7
-34 -6 -40 -4 -40 10 0 14 6 16 30 12 16 -4 32 -2 35 3 9 14 -5 15 -130 9z"/>
<path d="M3384 1541 c-11 -11 10 -20 36 -14 24 4 30 2 30 -12 0 -14 -6 -16
-40 -10 -30 5 -40 3 -40 -7 0 -11 70 -14 383 -17 351 -3 386 -1 423 15 21 10
48 21 59 25 11 4 -119 8 -290 9 -170 1 -366 5 -433 8 -68 4 -125 5 -128 3z"/>
<path d="M3260 1522 c0 -12 68 -14 75 -2 4 6 -9 10 -34 10 -23 0 -41 -4 -41
-8z"/>
<path d="M1845 1480 c4 -6 17 -9 30 -7 40 5 41 17 1 17 -23 0 -35 -4 -31 -10z"/>
<path d="M3254 1483 c11 -11 66 -12 66 -2 0 5 -16 9 -37 9 -20 0 -33 -3 -29
-7z"/>
<path d="M1799 1466 c-2 -2 -169 -6 -371 -8 -203 -1 -362 -5 -355 -6 6 -2 28
-11 47 -20 31 -15 74 -17 370 -14 184 2 331 0 327 -5 -5 -4 -147 -11 -315 -14
l-307 -5 285 -1 c234 0 490 9 403 15 -13 1 -23 9 -23 17 0 11 -9 13 -40 9 -27
-4 -40 -2 -40 6 0 7 7 10 15 7 16 -7 30 8 17 17 -5 3 -11 4 -13 2z"/>
<path d="M3345 1460 c-3 -5 3 -10 14 -10 12 0 21 -6 21 -14 0 -11 56 -15 303
-21 291 -7 304 -6 347 13 25 11 51 22 57 24 7 1 -152 5 -355 6 -202 2 -370 6
-374 8 -4 2 -9 0 -13 -6z"/>
<path d="M1872 1438 c5 -15 48 -18 48 -4 0 6 5 4 10 -4 8 -13 10 -12 10 3 0
13 -8 17 -36 17 -23 0 -34 -4 -32 -12z"/>
<path d="M3220 1440 c0 -16 47 -16 65 1 5 5 -5 9 -28 9 -20 0 -37 -4 -37 -10z"/>
<path d="M3300 1425 c0 -8 -10 -16 -22 -17 -88 -6 168 -15 402 -15 l285 1
-307 5 c-168 3 -310 9 -314 14 -4 4 1 7 12 7 16 0 17 2 4 10 -23 15 -60 12
-60 -5z"/>
<path d="M1887 1349 c-15 -9 -18 -21 -15 -60 4 -57 -11 -67 -32 -22 -18 39
-40 43 -40 8 0 -40 27 -84 57 -91 42 -11 58 7 58 64 0 64 11 75 30 29 10 -25
20 -35 30 -31 19 8 19 16 1 59 -13 30 -42 55 -63 55 -4 0 -16 -5 -26 -11z"/>
<path d="M3206 1339 c-16 -15 -29 -38 -32 -61 -6 -31 -3 -38 20 -53 25 -16 27
-16 62 4 20 12 39 20 41 17 9 -8 -8 -27 -33 -37 -21 -7 -23 -12 -14 -29 12
-23 23 -25 51 -10 49 27 58 112 13 132 -18 8 -30 6 -59 -12 -44 -27 -60 -18
-22 13 25 19 26 24 14 41 -13 18 -14 17 -41 -5z"/>
<path d="M1961 1209 c-46 -58 -52 -93 -20 -133 34 -43 77 -36 133 22 49 50 54
63 33 81 -11 8 -23 1 -55 -34 -42 -46 -49 -50 -76 -39 -24 9 -20 21 25 75 35
41 40 51 29 64 -19 23 -25 19 -69 -36z"/>
<path d="M3091 1215 c-55 -51 -55 -53 -41 -75 8 -12 11 -12 28 3 18 17 21 15
67 -34 28 -30 53 -48 61 -45 24 9 15 35 -27 81 -41 44 -41 46 -24 65 17 19 17
22 3 37 -15 14 -21 11 -67 -32z"/>
<path d="M2090 1078 c-22 -40 -40 -78 -40 -84 0 -21 29 -24 43 -4 13 19 16 19
46 4 31 -16 34 -15 59 3 34 25 41 76 15 105 -16 18 -64 48 -77 48 -3 0 -23
-33 -46 -72z m100 -16 c0 -19 -24 -31 -42 -21 -15 8 -16 14 -8 30 9 15 15 17
30 9 11 -6 20 -14 20 -18z"/>
<path d="M3002 1141 c-12 -7 -11 -14 3 -41 9 -17 14 -34 12 -37 -3 -2 -26 4
-51 15 -40 18 -46 19 -58 5 -11 -13 -6 -27 25 -85 21 -39 37 -72 35 -74 -2 -2
-31 28 -63 66 -85 101 -93 97 -104 -45 -5 -75 -4 -95 7 -95 7 0 17 11 22 24
10 28 63 44 84 27 11 -9 24 -7 55 10 46 24 47 28 26 69 -18 36 -9 38 45 10 37
-19 70 -18 70 2 0 13 -81 158 -88 158 -4 0 -13 -4 -20 -9z m-142 -171 c9 -17
8 -20 -10 -20 -13 0 -20 7 -20 20 0 11 4 20 10 20 5 0 14 -9 20 -20z"/>
<path d="M2255 1068 c-20 -54 -54 -162 -52 -164 9 -9 112 -42 119 -38 21 13 6
43 -27 54 -19 6 -35 16 -35 21 0 12 12 11 46 -1 30 -12 29 -12 38 17 6 18 1
23 -30 33 -21 7 -32 16 -27 21 6 6 24 4 45 -6 32 -13 37 -13 42 1 11 28 7 32
-49 53 -66 25 -64 25 -70 9z"/>
<path d="M2397 1024 c-4 -7 -20 -134 -22 -169 0 -5 8 -11 17 -13 11 -2 18 5
20 20 4 31 30 29 46 -4 8 -17 21 -28 33 -28 21 0 22 4 9 35 -5 13 -2 26 8 38
19 22 19 84 0 103 -16 16 -103 30 -111 18z m82 -58 c9 -10 8 -16 -3 -25 -19
-16 -58 3 -50 24 8 19 38 19 53 1z"/>
<path d="M2708 1025 c-5 -5 8 -80 27 -162 5 -22 29 -31 39 -15 3 4 -1 35 -9
68 -8 32 -16 71 -20 87 -5 24 -23 35 -37 22z"/>
<path d="M2569 991 c-51 -51 -35 -136 29 -159 33 -11 98 6 96 26 -1 6 -2 26
-2 42 -1 20 -7 30 -18 30 -11 0 -13 -6 -9 -19 9 -28 -23 -44 -56 -28 -31 16
-36 43 -13 68 14 16 26 19 51 14 40 -7 58 19 28 41 -31 23 -74 17 -106 -15z"/>
</g>
</svg>
